<svg width="70" height="70" viewBox="0 0 70 70" fill="none" xmlns="http://www.w3.org/2000/svg">
<path fill-rule="evenodd" clip-rule="evenodd" d="M35.2597 9.55078C59.3645 9.55078 49.97 49.4962 35.2597 49.4962C21.3662 49.4962 11.155 9.55078 35.2597 9.55078V9.55078Z" fill="#FFE8BE"/>
<path d="M35 70C54.33 70 70 54.33 70 35C70 15.67 54.33 0 35 0C15.67 0 0 15.67 0 35C0 54.33 15.67 70 35 70Z" fill="#58B0E0"/>
<path fill-rule="evenodd" clip-rule="evenodd" d="M51.5222 22.6387L18.4782 22.8369C18.4782 22.8369 19.6653 41.1276 15.5117 46.8612H55.9499C54.9078 45.3321 52.152 44.8394 51.5222 22.6387Z" fill="#60350A"/>
<path fill-rule="evenodd" clip-rule="evenodd" d="M20.541 51.6499L28.7032 48.04L41.7857 47.7002L50.1903 52.1143L44.1225 64.8174L35.4993 69.4478L26.5794 64.5206L20.541 51.6499V51.6499Z" fill="#D5E1ED"/>
<path fill-rule="evenodd" clip-rule="evenodd" d="M28.0273 43.8125L42.6742 43.9076V54.0441L28.0273 53.9478V43.8125Z" fill="#F9DCA4"/>
<path opacity="0.11" fill-rule="evenodd" clip-rule="evenodd" d="M42.676 43.9238V47.9788C42.692 48.4422 42.6768 48.9061 42.6307 49.3675C42.5625 49.879 42.4437 50.3825 42.2762 50.8706C37.3263 55.5882 29.3873 51.7541 28.1289 43.6973L42.676 43.9238Z" fill="black"/>
<path fill-rule="evenodd" clip-rule="evenodd" d="M59.803 59.6935C56.5237 62.9876 52.621 65.5955 48.3228 67.3649C44.0246 69.1342 39.4169 70.0296 34.7689 69.9987C30.1209 69.9678 25.5255 69.0112 21.2512 67.1849C16.9769 65.3586 13.1092 62.6991 9.87402 59.3616L11.257 55.8525L21.5679 51.1836C25.2627 57.9571 29.2815 64.2367 35.5192 68.6893C41.1657 63.9894 45.7395 58.1341 48.9326 51.5177L58.1572 55.882L59.803 59.6935Z" fill="#434955"/>
<path fill-rule="evenodd" clip-rule="evenodd" d="M21.6453 27.3916C18.2948 28.8528 21.1447 35.7848 23.2537 35.7542C22.3786 33.0427 21.8384 30.2343 21.6453 27.3916Z" fill="#F9DCA4"/>
<path fill-rule="evenodd" clip-rule="evenodd" d="M49.2801 27.3906C52.6329 28.8541 49.7819 35.785 47.6729 35.7544C48.5478 33.0425 49.0876 30.2337 49.2801 27.3906V27.3906Z" fill="#F9DCA4"/>
<path fill-rule="evenodd" clip-rule="evenodd" d="M35.2425 9.81543C45.1218 9.81543 49.2618 16.8381 49.5155 24.9561C49.8632 36.0678 43.0875 49.2296 35.2436 49.2296C27.8132 49.2296 20.8517 35.617 21.2742 24.392C21.5687 16.5164 25.5942 9.81543 35.2425 9.81543V9.81543Z" fill="#FFE8BE"/>
<path fill-rule="evenodd" clip-rule="evenodd" d="M37.8307 28.2977C39.6006 27.2165 41.7036 26.8167 43.7467 27.1729H43.7524C49.5903 27.8865 49.6809 29.7011 49.1134 30.119C48.7335 30.4329 48.4296 30.8287 48.2243 31.2766C48.0974 32.4593 47.6888 33.5943 47.0327 34.5864C46.5957 35.2708 46.0213 35.8571 45.3459 36.3079C44.6705 36.7587 43.9088 37.0642 43.109 37.2051C42.9187 37.2357 42.7239 37.2595 42.5246 37.2708C41.7452 37.3267 40.9637 37.1962 40.2448 36.8901C39.5259 36.584 38.8902 36.1112 38.3902 35.5106C37.6673 34.6618 37.1005 33.6916 36.7161 32.6449V32.6483C36.7161 32.6483 35.8134 30.7952 34.3692 32.5192C33.9813 33.6121 33.3979 34.6253 32.6475 35.5095C32.1475 36.1102 31.5116 36.5833 30.7925 36.8896C30.0734 37.1959 29.2917 37.3266 28.5121 37.2708C28.3163 37.2586 28.1212 37.2367 27.9276 37.2051C27.1279 37.0642 26.3662 36.7586 25.6908 36.3078C25.0153 35.857 24.4409 35.2708 24.004 34.5864C23.3481 33.5946 22.9394 32.46 22.8124 31.2778C22.6169 30.8283 22.318 30.4313 21.9402 30.119C21.3738 29.6999 21.4588 27.8842 27.2967 27.1706H27.2989C29.3507 26.8162 31.4612 27.223 33.2342 28.3147L33.2331 28.3135L33.2365 28.3158L33.48 28.4642C34.159 28.8113 34.9158 28.9782 35.6778 28.9489C36.4399 28.9195 37.1816 28.6949 37.8318 28.2965L37.8307 28.2977V28.2977ZM32.5388 29.0203C31.4861 28.4123 30.3017 28.0687 29.0871 28.0187C27.8724 27.9688 26.6638 28.2142 25.5648 28.7337C23.8533 29.5108 23.3311 30.059 23.9949 32.3164C24.1747 32.9322 24.4466 33.5173 24.8014 34.0517C25.2017 34.7032 25.7531 35.2487 26.4089 35.642C27.0646 36.0353 27.8054 36.2649 28.5687 36.3114C29.2028 36.3551 29.8382 36.2472 30.4224 35.9967C31.0066 35.7461 31.5228 35.3602 31.9283 34.8707C32.5998 34.0763 33.1217 33.1668 33.4687 32.1862C34.2378 30.17 34.4451 30.076 32.5399 29.0203H32.5388ZM44.9383 28.5106C43.8517 28.1024 42.6862 27.9479 41.5307 28.0588C40.3753 28.1697 39.2604 28.5431 38.2713 29.1506C36.5292 30.1825 36.8464 30.3546 37.6166 32.3108C37.9592 33.245 38.4638 34.1116 39.1072 34.8707C39.5128 35.3603 40.0292 35.7464 40.6136 35.9969C41.198 36.2475 41.8336 36.3553 42.4679 36.3114C42.6311 36.3016 42.7937 36.2835 42.955 36.2571C43.6246 36.1365 44.2619 35.8782 44.8265 35.4986C45.3912 35.119 45.8709 34.6263 46.2353 34.0517C46.5701 33.5478 46.831 32.9985 47.01 32.4207C47.8052 29.8721 47.0961 29.3046 44.9395 28.5117L44.9383 28.5106Z" fill="#464449"/>
<path fill-rule="evenodd" clip-rule="evenodd" d="M20.2636 29.0056C20.2636 28.283 21.3782 28.002 22.0736 32.3391C22.6353 30.5676 22.9984 28.7392 23.1565 26.8875C24.4727 27.1423 25.7368 30.1134 25.3392 32.7186C28.9253 31.8385 38.142 26.277 41.1391 18.7593C48.8097 23.1779 48.7677 32.458 48.7677 32.458C48.7677 32.458 49.1732 30.3059 49.3998 28.4755C49.4745 27.8661 49.7317 27.6452 50.3037 28.2342C54.4516 19.6439 47.9126 6.51266 35.4496 6.30877C18.3369 6.03013 16.1599 24.5609 20.2647 29.0067L20.2636 29.0056Z" fill="#8A5C42"/>
<path fill-rule="evenodd" clip-rule="evenodd" d="M28.0512 48.0615C29.8408 50.7284 32.3917 52.7949 35.3718 53.9923L30.6054 60.9515L23.9033 49.8738L28.0512 48.0615Z" fill="white"/>
<path fill-rule="evenodd" clip-rule="evenodd" d="M42.6819 48.0615C40.8922 50.7284 38.3414 52.7949 35.3613 53.9923L40.1288 60.9515L46.8717 50.0007L42.6819 48.0615Z" fill="white"/>
<path d="M35.3664 60.4867C35.8913 60.4867 36.3168 60.0612 36.3168 59.5363C36.3168 59.0114 35.8913 58.5859 35.3664 58.5859C34.8415 58.5859 34.416 59.0114 34.416 59.5363C34.416 60.0612 34.8415 60.4867 35.3664 60.4867Z" fill="#434955"/>
<path d="M35.3664 64.7113C35.8913 64.7113 36.3168 64.2858 36.3168 63.7609C36.3168 63.236 35.8913 62.8105 35.3664 62.8105C34.8415 62.8105 34.416 63.236 34.416 63.7609C34.416 64.2858 34.8415 64.7113 35.3664 64.7113Z" fill="#434955"/>
<path fill-rule="evenodd" clip-rule="evenodd" d="M47.5699 28.0195C49.5906 28.826 49.517 29.8103 49.1183 30.1048C48.7384 30.4187 48.4344 30.8145 48.2291 31.2624C48.1406 32.0809 47.9179 32.8792 47.5699 33.6252V28.0195V28.0195ZM23.2522 33.0928C23.031 32.5038 22.8848 31.8892 22.8172 31.2636C22.6218 30.814 22.3229 30.417 21.945 30.1048C21.5633 29.8228 21.4772 28.9042 23.2522 28.1181V33.0928Z" fill="#464449"/>
</svg>
