<svg width="70" height="70" viewBox="0 0 70 70" fill="none" xmlns="http://www.w3.org/2000/svg">
<path d="M9.84375 15.3125V60.1562H3.28125V20.7812C3.28125 19.3308 3.85742 17.9398 4.88301 16.9143C5.9086 15.8887 7.2996 15.3125 8.75 15.3125H9.84375Z" fill="#FF5023"/>
<path d="M44.8438 15.3125H9.84375V54.6875H44.8438V15.3125Z" fill="#FFDAAA"/>
<path d="M66.7188 4.375H31.7188V43.75H66.7188V4.375Z" fill="#009698"/>
<path d="M60.1562 10.9375H38.2812V19.6875H60.1562V10.9375Z" fill="#FFEB99"/>
<path d="M43.75 57.9688H9.84375V62.3438H43.75V57.9688Z" fill="#E0E0E2"/>
<path d="M65.625 47.0312H31.7188V51.4062H65.625V47.0312Z" fill="#E0E0E2"/>
<path d="M9.84375 57.9688V62.3438H44.8438V65.625H8.75C7.2996 65.625 5.9086 65.0488 4.88301 64.0232C3.85742 62.9977 3.28125 61.6067 3.28125 60.1562C3.28125 58.7058 3.85742 57.3148 4.88301 56.2893C5.9086 55.2637 7.2996 54.6875 8.75 54.6875H44.8438V57.9688H9.84375Z" fill="#FF7956"/>
<path d="M31.7188 4.37535V49.2191H25.1562V9.71395C25.1744 8.28109 25.7606 6.91404 26.786 5.91305C27.8114 4.91207 29.1921 4.35901 30.625 4.37535H31.7188Z" fill="#1E81CE"/>
<path d="M65.625 47.0312H66.7188V43.75H30.625C29.1746 43.75 27.7836 44.3262 26.758 45.3518C25.7324 46.3773 25.1562 47.7683 25.1562 49.2188C25.1562 50.6692 25.7324 52.0602 26.758 53.0857C27.7836 54.1113 29.1746 54.6875 30.625 54.6875H66.7188V51.4062H31.7188V47.0312H65.625Z" fill="#1A6FB0"/>
<path d="M66.7188 3.28125H30.625C28.885 3.28299 27.2169 3.97495 25.9865 5.20528C24.7562 6.43561 24.0642 8.1038 24.0625 9.84375V14.2188H8.75C7.01005 14.2205 5.34186 14.9124 4.11153 16.1428C2.8812 17.3731 2.18924 19.0413 2.1875 20.7812V60.1562C2.18924 61.8962 2.8812 63.5644 4.11153 64.7947C5.34186 66.0251 7.01005 66.717 8.75 66.7188H44.8438C45.1338 66.7188 45.412 66.6035 45.6171 66.3984C45.8223 66.1933 45.9375 65.9151 45.9375 65.625V62.3438C45.9375 62.0537 45.8223 61.7755 45.6171 61.5704C45.412 61.3652 45.1338 61.25 44.8438 61.25V59.0625C45.1338 59.0625 45.412 58.9473 45.6171 58.7421C45.8223 58.537 45.9375 58.2588 45.9375 57.9688V55.7812H66.7188C67.0088 55.7812 67.287 55.666 67.4921 55.4609C67.6973 55.2558 67.8125 54.9776 67.8125 54.6875V51.4062C67.8125 51.1162 67.6973 50.838 67.4921 50.6329C67.287 50.4277 67.0088 50.3125 66.7188 50.3125V48.125C67.0088 48.125 67.287 48.0098 67.4921 47.8046C67.6973 47.5995 67.8125 47.3213 67.8125 47.0312V4.375C67.8125 4.08492 67.6973 3.80672 67.4921 3.6016C67.287 3.39648 67.0088 3.28125 66.7188 3.28125V3.28125ZM65.625 45.9375H32.8125V44.8438H65.625V45.9375ZM30.625 53.5938C29.4647 53.5938 28.3519 53.1328 27.5314 52.3123C26.7109 51.4919 26.25 50.3791 26.25 49.2188C26.25 48.0584 26.7109 46.9456 27.5314 46.1252C28.3519 45.3047 29.4647 44.8438 30.625 44.8438V53.5938ZM30.625 5.46875V42.6562C29.0084 42.6567 27.4495 43.2569 26.25 44.3406V9.84375C26.25 8.68343 26.7109 7.57063 27.5314 6.75016C28.3519 5.92969 29.4647 5.46875 30.625 5.46875ZM24.0625 49.2188C24.0629 50.8353 24.6631 52.3943 25.7469 53.5938H10.9375V16.4062H24.0625V49.2188ZM8.75 16.4062V53.5938C7.13342 53.5942 5.5745 54.1944 4.375 55.2781V20.7812C4.375 19.6209 4.83594 18.5081 5.65641 17.6877C6.47688 16.8672 7.58968 16.4062 8.75 16.4062V16.4062ZM4.375 60.1562C4.375 58.9959 4.83594 57.8831 5.65641 57.0627C6.47688 56.2422 7.58968 55.7812 8.75 55.7812V64.5312C7.58968 64.5312 6.47688 64.0703 5.65641 63.2498C4.83594 62.4294 4.375 61.3166 4.375 60.1562ZM43.75 64.5312H10.9375V63.4375H43.75V64.5312ZM42.6562 61.25H10.9375V59.0625H42.6562V61.25ZM43.75 56.875H10.9375V55.7812H43.75V56.875ZM65.625 53.5938H32.8125V52.5H65.625V53.5938ZM64.5312 50.3125H32.8125V48.125H64.5312V50.3125ZM65.625 42.6562H32.8125V5.46875H65.625V42.6562Z" fill="black"/>
<path d="M60.1562 9.84375H38.2812C37.9912 9.84375 37.713 9.95898 37.5079 10.1641C37.3027 10.3692 37.1875 10.6474 37.1875 10.9375V19.6875C37.1875 19.9776 37.3027 20.2558 37.5079 20.4609C37.713 20.666 37.9912 20.7812 38.2812 20.7812H60.1562C60.4463 20.7812 60.7245 20.666 60.9296 20.4609C61.1348 20.2558 61.25 19.9776 61.25 19.6875V10.9375C61.25 10.6474 61.1348 10.3692 60.9296 10.1641C60.7245 9.95898 60.4463 9.84375 60.1562 9.84375ZM59.0625 18.5938H39.375V12.0312H59.0625V18.5938Z" fill="black"/>
</svg>
