<svg width="70" height="70" viewBox="0 0 70 70" fill="none" xmlns="http://www.w3.org/2000/svg">
<path d="M69.0282 35.0004C69.0282 53.839 53.7579 69.0282 35.0004 69.0282C15.9114 69.0282 0.972656 53.511 0.972656 35.0004C0.972656 16.2074 16.2073 0.972656 35.0004 0.972656C53.7935 0.972656 69.0282 16.2074 69.0282 35.0004Z" fill="#55BEC1"/>
<path d="M59.3871 69.0273H8.69824L9.29315 58.1032C9.81912 52.4213 14.6991 47.9551 20.338 47.6188C20.381 47.6188 21.2347 47.6101 22.64 47.6188H26.5717C27.1062 47.6188 27.6667 47.6101 28.2444 47.6188C31.8828 47.6101 36.1938 47.6101 39.8324 47.6188C40.4101 47.6101 40.9705 47.6188 41.5137 47.6188H45.4367C46.842 47.6101 47.7043 47.6188 47.7474 47.6188C53.4034 47.9551 58.2576 52.4299 58.7662 58.1032L59.3871 69.0273Z" fill="#F2914F"/>
<path d="M32.3056 69.0272H28.7102L20.709 57.9565L24.6147 55.6113L21.0193 53.6283C23.3817 51.1796 24.8993 49.1534 26.5719 47.6187C27.4082 46.8428 28.2877 46.1875 29.3309 45.6787C29.2361 45.7908 29.1413 45.9116 29.055 46.0322C28.7015 46.515 28.4256 47.0582 28.2446 47.6186C27.8739 48.7395 27.8307 49.9638 28.1066 51.1364L32.3056 69.0272ZM47.3682 57.9565L39.3669 69.0272H35.7715L39.9705 51.1365C40.2464 49.9639 40.2119 48.7396 39.8325 47.6187C39.6514 47.0583 39.3755 46.5238 39.0221 46.0323C38.9358 45.9116 38.8409 45.7909 38.7461 45.6788C39.7894 46.1961 40.6688 46.8428 41.5139 47.6188C43.1866 49.1535 44.704 51.1883 47.0579 53.6284L43.4625 55.6114L47.3682 57.9565Z" fill="#DD6E26"/>
<path d="M39.9698 51.1371L35.7709 69.0279H32.3049L28.106 51.1371C27.8301 49.9645 27.8732 48.7402 28.2439 47.6193C28.425 47.059 28.7009 46.5158 29.0544 46.033C29.1406 45.9122 29.2354 45.7916 29.3303 45.6795C30.9426 44.8949 32.5118 44.5499 34.0379 44.8001C35.5726 44.55 37.1332 44.8949 38.7455 45.6795C38.8403 45.7916 38.9352 45.9123 39.0214 46.033C39.3749 46.5244 39.6508 47.059 39.8318 47.6193C40.2113 48.7403 40.2457 49.9646 39.9698 51.1371Z" fill="#CED7DC"/>
<path d="M39.5956 39.2471V47.2449C39.5956 50.5095 37.1827 53.1548 34.2049 53.1548H33.8741C30.8963 53.1548 28.4834 50.5095 28.4834 47.2449V39.2471H39.5956Z" fill="#F8A771"/>
<path d="M34.0396 45.9454C41.4687 45.9454 47.4912 38.6022 47.4912 29.544C47.4912 20.4857 41.4687 13.1426 34.0396 13.1426C26.6104 13.1426 20.5879 20.4857 20.5879 29.544C20.5879 38.6022 26.6104 45.9454 34.0396 45.9454Z" fill="#FAB687"/>
<path d="M29.2594 32.4095C30.0262 32.4095 30.6478 31.7879 30.6478 31.0211C30.6478 30.2544 30.0262 29.6328 29.2594 29.6328C28.4927 29.6328 27.8711 30.2544 27.8711 31.0211C27.8711 31.7879 28.4927 32.4095 29.2594 32.4095Z" fill="#3D2F46"/>
<path d="M38.1637 32.4095C38.9305 32.4095 39.5521 31.7879 39.5521 31.0211C39.5521 30.2544 38.9305 29.6328 38.1637 29.6328C37.397 29.6328 36.7754 30.2544 36.7754 31.0211C36.7754 31.7879 37.397 32.4095 38.1637 32.4095Z" fill="#3D2F46"/>
<path d="M30.3962 27.2188C30.3227 26.8434 29.9587 26.5987 29.5833 26.6722L26.7617 27.2249C26.3863 27.2985 26.1416 27.6624 26.2152 28.0378C26.2887 28.4132 26.6527 28.6579 27.0281 28.5844L29.8497 28.0317C30.225 27.9582 30.4697 27.5942 30.3962 27.2188ZM40.6604 27.225L37.8388 26.6723C37.4634 26.5988 37.0995 26.8435 37.0259 27.2189C36.9523 27.5943 37.1971 27.9582 37.5724 28.0318L40.394 28.5845C40.7694 28.658 41.1333 28.4133 41.2069 28.0379C41.2805 27.6625 41.0358 27.2985 40.6604 27.225Z" fill="#3D2F46"/>
<path d="M38.3087 39.8951C38.1046 40.4104 37.7934 40.8674 37.4143 41.2563C37.4046 41.2757 37.3948 41.2854 37.3754 41.2854C37.2879 41.3826 37.2004 41.4701 37.0934 41.5479L37.0837 41.5576C36.3934 42.1507 35.4893 42.559 34.4879 42.6563C34.3518 42.666 34.1962 42.666 34.0407 42.666C33.8268 42.666 33.6129 42.6563 33.399 42.6271C33.2921 42.6175 33.1948 42.5979 33.1073 42.5688C32.9907 42.559 32.874 42.5299 32.7671 42.5007L32.7768 42.4911C32.7476 42.4814 32.7087 42.4619 32.6796 42.4619C32.4948 42.4133 32.3198 42.3452 32.1448 42.2675C31.0948 41.83 30.2393 40.9939 29.7921 39.9633C29.5004 39.2827 29.9671 38.5244 30.7059 38.5244H37.3657C38.0754 38.5244 38.5809 39.2438 38.3087 39.8951Z" fill="#663430"/>
<path d="M50.3504 23.7992C50.3504 26.9201 49.6407 29.8367 48.4254 32.3451H46.1504V26.4826C46.1504 23.6826 43.8754 21.4076 41.0754 21.4076H27.192C24.4115 21.4076 22.1462 23.6534 22.117 26.4339L22.0684 32.3451H19.5309C19.0351 30.8284 18.7045 28.9812 18.6268 26.9589C18.617 26.9006 18.617 26.8423 18.617 26.7839L18.5976 25.8798L18.4809 20.1048C18.4032 16.2159 21.4754 13.0076 25.3448 12.9103C27.9309 9.18672 31.8295 6.82422 36.2045 6.82422C44.0212 6.82422 50.3504 14.427 50.3504 23.7992Z" fill="#5F566A"/>
<path d="M46.4507 35.5276C48.0782 35.5276 49.3975 33.8243 49.3975 31.7233C49.3975 29.6222 48.0782 27.9189 46.4507 27.9189C44.8232 27.9189 43.5039 29.6222 43.5039 31.7233C43.5039 33.8243 44.8232 35.5276 46.4507 35.5276Z" fill="#FAB687"/>
<path d="M20.9722 35.5276C22.5997 35.5276 23.919 33.8243 23.919 31.7233C23.919 29.6222 22.5997 27.9189 20.9722 27.9189C19.3447 27.9189 18.0254 29.6222 18.0254 31.7233C18.0254 33.8243 19.3447 35.5276 20.9722 35.5276Z" fill="#FAB687"/>
<path d="M18.6269 26.9592H18.6172V26.7842C18.6172 26.8425 18.6172 26.9008 18.6269 26.9592Z" fill="#5F566A"/>
<path d="M37.0844 41.5581C36.3941 42.1512 35.49 42.5595 34.4886 42.6567C34.3525 42.6664 34.1969 42.6664 34.0413 42.6664C33.8275 42.6664 33.6136 42.6567 33.3997 42.6275C33.2927 42.6179 33.1955 42.5984 33.108 42.5692C32.9913 42.5595 32.8747 42.5303 32.7677 42.5012L32.7775 42.4915C32.7483 42.4818 32.7094 42.4624 32.6802 42.4624C32.4955 42.4138 32.3205 42.3457 32.1455 42.2679C32.6412 41.2763 33.6718 40.5957 34.8677 40.5957C35.7427 40.5956 36.5302 40.965 37.0844 41.5581Z" fill="#EF4F63"/>
<path d="M33.9477 38.5244V39.3411C33.9477 39.448 33.8602 39.5355 33.7533 39.5355H32.0773C31.9703 39.5355 31.8828 39.448 31.8828 39.3411V38.5244H33.9477ZM36.2048 38.5244V39.3411C36.2048 39.448 36.1173 39.5355 36.0104 39.5355H34.3344C34.2274 39.5355 34.1399 39.448 34.1399 39.3411V38.5244H36.2048Z" fill="white"/>
</svg>
