<svg width="70" height="70" viewBox="0 0 70 70" fill="none" xmlns="http://www.w3.org/2000/svg">
<path d="M35 64.5312C51.3097 64.5312 64.5312 51.3097 64.5312 35C64.5312 18.6903 51.3097 5.46875 35 5.46875C18.6903 5.46875 5.46875 18.6903 5.46875 35C5.46875 51.3097 18.6903 64.5312 35 64.5312Z" fill="#E6E7E8"/>
<path d="M44.1875 63.0658C38.5227 64.9181 32.43 65.013 26.7103 63.3381C20.9906 61.6632 15.9115 58.2968 12.1406 53.6815C13.8885 52.1019 16.1613 51.2287 18.5172 51.2315H33.5562C35.5951 51.2299 37.5804 51.8841 39.219 53.0973C40.8576 54.3105 42.0627 56.0184 42.6562 57.969L44.1875 63.0658Z" fill="#F26522"/>
<path d="M30.2098 47.0313V52.7407C30.2105 52.9247 30.1597 53.1053 30.063 53.2619C29.9664 53.4185 29.8278 53.5448 29.6629 53.6266L26.4692 55.1798C26.3318 55.249 26.18 55.2851 26.0262 55.2851C25.8723 55.2851 25.7206 55.249 25.5832 55.1798L22.4004 53.5938C22.2355 53.512 22.0969 53.3857 22.0003 53.2291C21.9036 53.0725 21.8528 52.8919 21.8535 52.7079V47.0313C21.8535 46.7702 21.9572 46.5199 22.1418 46.3353C22.3264 46.1506 22.5768 46.0469 22.8379 46.0469H29.2145C29.3446 46.0455 29.4738 46.0699 29.5945 46.1187C29.7152 46.1675 29.825 46.2398 29.9176 46.3314C30.0102 46.4229 30.0837 46.5319 30.1338 46.6521C30.184 46.7722 30.2098 46.9011 30.2098 47.0313Z" fill="#FFD2B4"/>
<path opacity="0.1" d="M30.2098 51.2314V52.708C30.2086 52.8902 30.1568 53.0684 30.0602 53.2229C29.9637 53.3774 29.8261 53.502 29.6629 53.583L26.4692 55.1908C26.3335 55.2591 26.1836 55.2947 26.0317 55.2947C25.8798 55.2947 25.7299 55.2591 25.5942 55.1908L22.4004 53.5939C22.2373 53.513 22.0997 53.3883 22.0032 53.2338C21.9066 53.0794 21.8548 52.9011 21.8536 52.7189V51.2314H19.7754V52.708C19.772 53.2786 19.9291 53.8386 20.2289 54.3241C20.5287 54.8096 20.9591 55.2009 21.4708 55.4533L24.6536 57.0502C25.0818 57.2631 25.5535 57.3739 26.0317 57.3739C26.5099 57.3739 26.9816 57.2631 27.4098 57.0502L30.6254 55.4533C31.1371 55.2009 31.5675 54.8096 31.8673 54.3241C32.1671 53.8386 32.3242 53.2786 32.3208 52.708V51.2314H30.2098Z" fill="white"/>
<path d="M26.0312 21.1973C37.975 21.1973 36.9687 32.452 36.9687 32.452C38.7187 32.266 40.0969 32.966 40.0969 35.4379C40.0969 37.9098 39.0031 38.4129 37.6469 38.5551C37.5723 38.5578 37.5016 38.5886 37.4488 38.6414C37.396 38.6941 37.3652 38.7649 37.3625 38.8395C36.9578 42.6895 34.2344 45.5113 31.5437 47.3926C29.932 48.5285 28.0085 49.1382 26.0367 49.1382C24.0649 49.1382 22.1414 48.5285 20.5297 47.3926C17.85 45.5004 15.1156 42.6785 14.7109 38.8395C14.7082 38.7649 14.6774 38.6941 14.6246 38.6414C14.5719 38.5886 14.5011 38.5578 14.4266 38.5551C13.0594 38.4129 11.9766 37.8988 11.9766 35.4379C11.9766 32.977 13.3 32.266 15.05 32.452C15.05 32.452 14.0766 21.1973 26.0312 21.1973Z" fill="#FFD2B4"/>
<path opacity="0.1" d="M30.2096 48.1904V49.7545C28.9093 50.3862 27.4825 50.7145 26.0369 50.7145C24.5913 50.7145 23.1645 50.3862 21.8643 49.7545V48.1904C23.1645 48.8222 24.5913 49.1504 26.0369 49.1504C27.4825 49.1504 28.9093 48.8222 30.2096 48.1904Z" fill="#262234"/>
<path d="M21.9076 36.4656C22.8862 36.4656 23.6795 35.6723 23.6795 34.6937C23.6795 33.7152 22.8862 32.9219 21.9076 32.9219C20.929 32.9219 20.1357 33.7152 20.1357 34.6937C20.1357 35.6723 20.929 36.4656 21.9076 36.4656Z" fill="#262234"/>
<path d="M30.1654 36.4656C31.144 36.4656 31.9373 35.6723 31.9373 34.6937C31.9373 33.7152 31.144 32.9219 30.1654 32.9219C29.1869 32.9219 28.3936 33.7152 28.3936 34.6937C28.3936 35.6723 29.1869 36.4656 30.1654 36.4656Z" fill="#262234"/>
<path d="M38.0301 26.4033C37.9784 25.5387 37.8242 24.6832 37.5707 23.8549C37.9031 22.4503 37.9662 20.9955 37.7566 19.5674C37.7337 19.4583 37.6875 19.3555 37.6212 19.2658C37.555 19.1762 37.4702 19.1019 37.3726 19.0479C37.2751 18.994 37.1671 18.9616 37.0559 18.9531C36.9448 18.9446 36.8331 18.9602 36.7285 18.9987C36.477 19.0971 36.2144 19.1737 35.941 19.2612C35.9888 18.8689 35.9888 18.4722 35.941 18.0799C35.9235 17.9598 35.8789 17.8453 35.8105 17.745C35.7421 17.6447 35.6517 17.5614 35.5463 17.5013C35.4408 17.4412 35.3231 17.4059 35.2019 17.3981C35.0808 17.3904 34.9595 17.4103 34.8473 17.4565C32.1392 18.3154 29.3294 18.8119 26.491 18.933H26.0316C19.6769 18.933 14.5144 19.2502 14.0004 26.4033C13.8972 28.3274 13.9704 30.2568 14.2191 32.1674C14.2675 33.125 14.3771 34.0785 14.5473 35.0221C14.7332 35.7768 16.7348 35.744 16.8223 35.0221C16.9098 34.3002 16.4723 30.6471 18.2551 27.3658C20.7567 28.2706 23.4051 28.7009 26.0644 28.6346C28.7105 28.6879 31.3435 28.2503 33.8301 27.344C35.6129 30.7018 35.1645 34.4643 35.2629 35.0002C35.3613 35.5362 37.3629 35.7002 37.5379 35.0002C37.6908 34.1579 37.7894 33.3067 37.8332 32.4518C38.0892 30.4463 38.1551 28.4212 38.0301 26.4033Z" fill="#2A292A"/>
<path d="M30.0673 39.2656C30.2237 39.2737 30.3765 39.3153 30.5155 39.3875C30.6545 39.4598 30.7763 39.561 30.8727 39.6844C30.9692 39.8078 31.038 39.9505 31.0745 40.1028C31.111 40.2551 31.1144 40.4135 31.0845 40.5672C30.7964 41.6885 30.1436 42.6822 29.2287 43.3917C28.3139 44.1012 27.1891 44.4863 26.0313 44.4863C24.8736 44.4863 23.7488 44.1012 22.8339 43.3917C21.9191 42.6822 21.2663 41.6885 20.9782 40.5672C20.9482 40.4135 20.9516 40.2551 20.9882 40.1028C21.0247 39.9505 21.0935 39.8078 21.19 39.6844C21.2864 39.561 21.4082 39.4598 21.5472 39.3875C21.6861 39.3153 21.839 39.2737 21.9954 39.2656H30.0673Z" fill="#691C24"/>
<path d="M28.558 43.8262C27.7837 44.2513 26.9147 44.4741 26.0314 44.4741C25.1482 44.4741 24.2792 44.2513 23.5049 43.8262C23.7127 42.5465 24.7627 42.1855 26.0314 42.1855C27.3002 42.1855 28.3502 42.5465 28.558 43.8262Z" fill="#BE1E2D"/>
<path d="M29.0277 39.2656V40.2609C29.0278 40.3606 28.9889 40.4563 28.9195 40.5278C28.8501 40.5993 28.7555 40.6409 28.6559 40.6437H23.4168C23.3172 40.6409 23.2226 40.5993 23.1532 40.5278C23.0837 40.4563 23.0449 40.3606 23.0449 40.2609V39.2656H29.0277Z" fill="white"/>
<path d="M63.0871 25.3643H46.6043C45.6798 25.3671 44.794 25.7357 44.1403 26.3894C43.4866 27.0431 43.1181 27.9288 43.1152 28.8533V36.8377C43.12 37.7362 43.4701 38.5985 44.0932 39.246C44.7162 39.8935 45.5644 40.2765 46.4621 40.3158L45.5324 44.4721C45.488 44.6895 45.5108 44.9153 45.5977 45.1195C45.6846 45.3236 45.8316 45.4965 46.0191 45.6152C46.2066 45.7339 46.4258 45.7927 46.6475 45.7839C46.8693 45.7751 47.0831 45.699 47.2605 45.5658L54.0637 40.3268H63.098C64.0225 40.3239 64.9083 39.9554 65.562 39.3016C66.2157 38.6479 66.5842 37.7622 66.5871 36.8377V28.8533C66.5842 27.927 66.2142 27.0395 65.5581 26.3855C64.9021 25.7315 64.0135 25.3643 63.0871 25.3643V25.3643Z" fill="#007ED4"/>
<path d="M48.6719 34.7598C49.729 34.7598 50.5859 33.9028 50.5859 32.8457C50.5859 31.7886 49.729 30.9316 48.6719 30.9316C47.6148 30.9316 46.7578 31.7886 46.7578 32.8457C46.7578 33.9028 47.6148 34.7598 48.6719 34.7598Z" fill="#0060C4"/>
<path d="M54.8516 34.7598C55.9087 34.7598 56.7656 33.9028 56.7656 32.8457C56.7656 31.7886 55.9087 30.9316 54.8516 30.9316C53.7945 30.9316 52.9375 31.7886 52.9375 32.8457C52.9375 33.9028 53.7945 34.7598 54.8516 34.7598Z" fill="#0060C4"/>
<path d="M61.0205 34.7598C62.0776 34.7598 62.9346 33.9028 62.9346 32.8457C62.9346 31.7886 62.0776 30.9316 61.0205 30.9316C59.9634 30.9316 59.1064 31.7886 59.1064 32.8457C59.1064 33.9028 59.9634 34.7598 61.0205 34.7598Z" fill="#0060C4"/>
</svg>
