<svg width="40" height="40" viewBox="0 0 40 40" fill="none" xmlns="http://www.w3.org/2000/svg">
<path d="M20 40C31.0457 40 40 31.0457 40 20C40 8.9543 31.0457 0 20 0C8.9543 0 0 8.9543 0 20C0 31.0457 8.9543 40 20 40Z" fill="#F47B1E"/>
<path d="M17.6262 12.3074C17.444 12.3121 17.2693 12.3813 17.1334 12.5027L9.48315 19.4078C9.14494 19.7133 9.14494 20.2441 9.48315 20.5496L17.1755 27.4937C17.6713 27.9433 18.465 27.5891 18.4615 26.9198L18.4495 23.4613L18.4525 23.0736H30C30.4236 23.0736 30.7675 22.7311 30.7692 22.3074V17.698C30.7692 17.2732 30.4248 16.9289 30 16.9288H18.4405L18.4675 16.3369L18.4555 12.8873C18.454 12.4541 18.0592 12.2939 17.6262 12.3074ZM16.887 14.8044L16.893 16.5382V16.5592L16.9261 17.7191C16.9375 18.1357 17.2786 18.4674 17.6953 18.4673H29.2307V21.5352H17.6923C17.2698 21.5352 16.9264 21.8759 16.9231 22.2984L16.911 23.4523V23.4673L16.9171 25.1921L11.1478 19.9848L16.887 14.8044Z" fill="white"/>
</svg>
