<svg width="40" height="40" viewBox="0 0 40 40" fill="none" xmlns="http://www.w3.org/2000/svg">
<path d="M20 -1.74846e-06C8.95431 -2.7141e-06 2.7141e-06 8.9543 1.74846e-06 20C7.8281e-07 31.0457 8.9543 40 20 40C31.0457 40 40 31.0457 40 20C40 8.9543 31.0457 -7.8281e-07 20 -1.74846e-06Z" fill="#F47B1E"/>
<path d="M22.3738 27.6926C22.556 27.6879 22.7307 27.6187 22.8666 27.4973L30.5168 20.5922C30.8551 20.2867 30.8551 19.7559 30.5168 19.4504L22.8245 12.5063C22.3287 12.0567 21.535 12.4109 21.5385 13.0802L21.5505 16.5387L21.5475 16.9264L10 16.9264C9.57638 16.9264 9.23249 17.2689 9.23079 17.6926L9.23079 22.302C9.23084 22.7268 9.57521 23.0711 10 23.0712L21.5595 23.0712L21.5325 23.6631L21.5445 27.1127C21.546 27.5459 21.9408 27.7061 22.3738 27.6926ZM23.113 25.1956L23.107 23.4618L23.107 23.4408L23.0739 22.2809C23.0625 21.8643 22.7214 21.5326 22.3047 21.5327L10.7693 21.5327L10.7693 18.4648L22.3077 18.4648C22.7302 18.4648 23.0736 18.1241 23.0769 17.7016L23.089 16.5477L23.089 16.5327L23.0829 14.8079L28.8522 20.0152L23.113 25.1956Z" fill="white"/>
</svg>
