<svg width="615" height="512" viewBox="0 0 615 512" fill="none" xmlns="http://www.w3.org/2000/svg">
<path d="M565.351 13.1268H69.1707V409.504H565.351V13.1268Z" fill="#E6F5FF"/>
<path d="M286.363 311.792C282.713 306.969 281.931 302.797 281.931 302.797L282.908 302.341C282.908 302.341 284.994 306.512 285.841 307.425C286.689 308.337 289.296 302.08 289.296 302.08H290.534C290.534 302.08 287.549 307.041 287.732 308.858C287.914 310.676 288.383 311.531 288.383 311.531L286.363 311.792Z" fill="#76BDD6"/>
<path d="M295.967 360.234C297.352 351.694 295.506 344.538 295.275 339.114C295.044 333.69 293.313 320.417 293.313 320.417L294.236 319.263C294.236 319.263 295.967 332.882 297.122 337.267C298.276 341.653 302.546 328.496 304.97 323.995C307.394 319.494 310.856 310.492 310.856 310.492H312.356C312.356 310.492 306.47 323.764 306.008 327.111C305.547 330.458 316.742 310.03 316.742 310.03H318.473C318.473 310.03 309.933 324.918 307.74 329.073C305.547 333.228 302.777 341.537 302.777 346.846C302.777 352.155 309.702 337.959 309.702 337.959L310.971 338.998C310.971 338.998 304.976 348.513 304.624 353.54C304.271 358.567 305.2 361.965 305.2 361.965C305.2 361.965 304.342 363.807 299.803 363.692C295.263 363.577 295.967 360.234 295.967 360.234Z" fill="#76BDD6"/>
<path d="M304.727 332.799C306.42 333.107 307.19 330.49 310.575 329.413C313.961 328.336 316.962 328.105 318.809 330.798C320.656 333.491 323.887 333.876 325.272 335.03C326.657 336.184 331.736 341.128 328.273 343.033C324.811 344.937 323.679 342.494 318.473 343.033C313.269 343.571 310.087 341.499 307.522 342.15C304.958 342.802 296.109 341.186 297.186 338.801C298.263 336.415 299.726 335.569 301.88 335.415C304.035 335.261 304.727 332.799 304.727 332.799Z" fill="#A3D1E5"/>
<path d="M296.417 310.869C294.262 312.408 296.802 311.716 298.648 313.255C300.495 314.794 304.366 316.025 305.893 314.178C307.42 312.331 306.882 309.254 308.421 311.639C309.96 314.025 307.907 316.785 307.805 319.256C307.703 321.728 311.211 320.345 312.817 319.955C314.423 319.564 316.423 317.872 318.885 318.795C321.348 319.718 325.041 318.025 328.965 318.333C332.89 318.641 333.593 312.108 335.901 308.76C338.209 305.414 337.098 306.819 344.903 307.03C352.708 307.24 354.482 305.068 355.521 302.298C356.56 299.528 356.897 293.172 346.432 293.634C335.968 294.096 330.889 290.248 327.657 286.093C324.426 281.938 318.751 280.482 313.278 282.749C307.805 285.016 298.263 284.247 296.417 287.171C294.57 290.094 287.183 292.865 288.722 297.789C290.261 302.713 299.776 298.809 301.969 301.189C304.162 303.568 291.236 302.99 290.543 305.529C289.851 308.068 291.236 308.184 293.89 308.415C296.545 308.645 296.417 310.869 296.417 310.869Z" fill="#A3D1E5"/>
<path d="M263.372 297.96C261.217 299.499 263.757 298.806 265.604 300.345C267.451 301.884 271.321 303.115 272.849 301.268C274.376 299.421 273.837 296.344 275.376 298.729C276.915 301.115 274.863 303.875 274.76 306.347C274.658 308.818 278.166 307.435 279.772 307.045C281.378 306.655 283.378 304.962 285.841 305.885C288.303 306.809 291.997 305.116 295.921 305.423C299.845 305.731 300.548 299.198 302.856 295.851C305.164 292.504 304.053 293.909 311.858 294.12C319.663 294.331 321.438 292.158 322.476 289.388C323.515 286.618 323.853 280.262 313.388 280.724C302.923 281.186 297.844 277.339 294.613 273.184C291.381 269.029 285.706 267.573 280.233 269.84C274.76 272.106 265.219 271.337 263.372 274.261C261.525 277.185 254.139 279.955 255.678 284.879C257.216 289.804 266.731 285.9 268.925 288.279C271.117 290.658 258.191 290.081 257.499 292.619C256.806 295.159 258.191 295.274 260.846 295.505C263.5 295.736 263.372 297.96 263.372 297.96Z" fill="#A3D1E5"/>
<path d="M278.873 318.564C278.616 321.847 281.746 320.718 283.541 323.745C285.336 326.772 281.848 328.721 284.567 330.465C287.286 332.209 289.851 329.644 292.929 329.695C296.006 329.747 295.596 327.182 299.392 327.131C303.188 327.079 303.5 329.543 305.445 326.053C307.391 322.564 305.086 322.412 301.906 320.693C298.726 318.975 297.802 316.769 299.597 316.051C301.393 315.332 299.495 311.895 298.212 311.331C296.93 310.767 288.876 309.792 280.796 311.716C272.717 313.64 267.408 311.331 265.407 313.255C263.407 315.179 258.79 317.564 264.33 318.949C269.87 320.334 273.64 317.718 273.794 321.18C273.948 324.643 260.636 325.951 266.869 327.413C273.102 328.875 278.334 327.259 277.257 323.95C276.18 320.642 278.873 318.564 278.873 318.564Z" fill="#A3D1E5"/>
<path d="M183.484 288.997C181.474 286.34 181.042 284.042 181.042 284.042L181.581 283.79C181.581 283.79 182.73 286.089 183.197 286.592C183.664 287.094 185.1 283.647 185.1 283.647H185.783C185.783 283.647 184.138 286.38 184.239 287.381C184.34 288.382 184.598 288.854 184.598 288.854L183.484 288.997Z" fill="#76BDD6"/>
<path d="M188.776 315.686C189.539 310.981 188.522 307.039 188.395 304.051C188.268 301.062 187.314 293.75 187.314 293.75L187.822 293.114C187.822 293.114 188.776 300.617 189.412 303.033C190.048 305.45 192.401 298.201 193.736 295.721C195.072 293.241 196.979 288.282 196.979 288.282H197.806C197.806 288.282 194.563 295.594 194.308 297.438C194.054 299.282 200.222 288.027 200.222 288.027H201.176C201.176 288.027 196.47 296.23 195.262 298.519C194.054 300.808 192.528 305.386 192.528 308.311C192.528 311.236 196.343 303.415 196.343 303.415L197.042 303.987C197.042 303.987 193.739 309.23 193.545 311.999C193.351 314.769 193.863 316.641 193.863 316.641C193.863 316.641 193.39 317.656 190.889 317.592C188.388 317.528 188.776 315.686 188.776 315.686Z" fill="#76BDD6"/>
<path d="M193.602 300.571C194.535 300.741 194.959 299.3 196.824 298.706C198.689 298.113 200.343 297.985 201.36 299.469C202.378 300.953 204.158 301.165 204.921 301.801C205.684 302.437 208.482 305.161 206.575 306.21C204.667 307.259 204.043 305.913 201.175 306.21C198.308 306.506 196.555 305.365 195.142 305.723C193.729 306.082 188.854 305.192 189.448 303.878C190.041 302.564 190.846 302.097 192.034 302.013C193.221 301.928 193.602 300.571 193.602 300.571Z" fill="#A3D1E5"/>
<path d="M189.024 288.489C187.836 289.337 189.236 288.956 190.253 289.804C191.271 290.652 193.403 291.33 194.245 290.312C195.086 289.295 194.789 287.599 195.637 288.913C196.485 290.228 195.354 291.748 195.298 293.11C195.242 294.472 197.174 293.71 198.059 293.495C198.944 293.28 200.046 292.347 201.402 292.856C202.759 293.365 204.794 292.432 206.956 292.601C209.118 292.771 209.505 289.172 210.777 287.327C212.049 285.483 211.437 286.257 215.737 286.374C220.037 286.49 221.015 285.293 221.587 283.767C222.159 282.241 222.345 278.739 216.579 278.993C210.814 279.248 208.016 277.128 206.235 274.839C204.455 272.549 201.328 271.747 198.313 272.996C195.298 274.245 190.041 273.821 189.023 275.432C188.006 277.043 183.936 278.569 184.784 281.282C185.632 283.996 190.874 281.845 192.082 283.155C193.291 284.466 186.169 284.148 185.787 285.547C185.406 286.946 186.169 287.01 187.631 287.137C189.094 287.264 189.024 288.489 189.024 288.489Z" fill="#A3D1E5"/>
<path d="M170.818 281.377C169.631 282.224 171.03 281.843 172.047 282.691C173.065 283.539 175.197 284.217 176.039 283.199C176.88 282.182 176.583 280.486 177.431 281.8C178.279 283.115 177.148 284.636 177.092 285.997C177.036 287.359 178.968 286.597 179.853 286.382C180.738 286.167 181.84 285.234 183.197 285.743C184.553 286.252 186.588 285.319 188.75 285.489C190.912 285.658 191.3 282.059 192.571 280.215C193.843 278.371 193.231 279.145 197.531 279.261C201.831 279.377 202.809 278.18 203.381 276.654C203.953 275.128 204.139 271.626 198.374 271.881C192.608 272.135 189.81 270.016 188.03 267.726C186.249 265.437 183.122 264.635 180.107 265.884C177.092 267.133 171.835 266.709 170.818 268.32C169.8 269.931 165.73 271.457 166.578 274.17C167.426 276.883 172.668 274.732 173.876 276.043C175.085 277.353 167.963 277.036 167.582 278.435C167.2 279.834 167.963 279.897 169.426 280.024C170.888 280.151 170.818 281.377 170.818 281.377Z" fill="#A3D1E5"/>
<path d="M179.358 292.729C179.217 294.537 180.941 293.916 181.93 295.583C182.919 297.251 180.997 298.325 182.495 299.285C183.993 300.246 185.406 298.833 187.102 298.862C188.798 298.89 188.572 297.477 190.663 297.449C192.755 297.42 192.926 298.777 193.998 296.855C195.07 294.933 193.8 294.849 192.048 293.902C190.296 292.955 189.787 291.74 190.776 291.344C191.766 290.948 190.72 289.055 190.013 288.744C189.306 288.433 184.869 287.896 180.418 288.956C175.967 290.016 173.041 288.744 171.939 289.804C170.837 290.864 168.293 292.178 171.346 292.941C174.398 293.704 176.475 292.262 176.56 294.17C176.645 296.078 169.311 296.799 172.745 297.604C176.179 298.41 179.062 297.52 178.468 295.697C177.874 293.873 179.358 292.729 179.358 292.729Z" fill="#A3D1E5"/>
<path d="M120.579 231.277C121.915 224.423 122.344 224.747 127.815 218.746C133.287 212.745 138.935 215.317 144.584 215.531C150.232 215.745 158.087 210.244 158.087 210.244C158.087 210.244 147.849 213.715 145.554 213.627C143.26 213.539 149.173 203.714 149.173 203.714C149.173 203.714 144.584 210.803 143.172 212.392C141.759 213.98 136.553 212.303 134.434 212.48C132.316 212.657 138.759 200.213 138.759 200.213C138.759 200.213 135.273 205.155 133.773 208.42C132.546 211.091 130.287 211.818 130.287 211.818L133.949 197.433L145.731 186.946L133.493 196.242L131.728 180.121C131.728 180.121 132.938 196.109 131.655 200.345C130.371 204.581 128.257 211.906 128.257 211.906L119.373 193.359C119.373 193.359 125.345 210.538 126.227 214.156C127.11 217.775 122.609 219.716 120.226 225.188C117.843 230.659 117.843 230.659 117.843 230.659L120.579 231.277Z" fill="#76BDD6"/>
<path d="M113.117 301.865C111.064 289.212 113.8 278.61 114.143 270.574C114.484 262.537 118.02 242.397 118.02 242.397L112.636 241.161C112.636 241.161 112.11 261.934 110.4 268.432C108.691 274.93 103.37 254.843 99.7788 248.174C96.1884 241.505 91.0582 228.168 91.0582 228.168H88.8353C88.8353 228.168 97.5559 247.832 98.2401 252.791C98.924 257.75 82.3372 227.484 82.3372 227.484H79.7725C79.7725 227.484 92.4263 249.542 95.6752 255.698C98.924 261.853 103.028 274.165 103.028 282.03C103.028 289.896 92.7682 268.864 92.7682 268.864L90.8868 270.403C90.8868 270.403 99.769 284.501 100.292 291.948C100.815 299.395 99.437 304.43 99.437 304.43C99.437 304.43 100.708 307.159 107.434 306.989C114.161 306.818 113.117 301.865 113.117 301.865Z" fill="#76BDD6"/>
<path d="M100.138 261.218C97.6303 261.674 96.4902 257.798 91.4741 256.202C86.4582 254.606 82.0119 254.264 79.2755 258.254C76.5397 262.244 71.7514 262.814 69.6994 264.524C67.6473 266.234 60.123 273.559 65.2537 276.38C70.3837 279.201 72.0602 275.582 79.7721 276.38C87.4841 277.178 92.1977 274.108 95.997 275.073C99.7963 276.038 112.907 273.644 111.31 270.11C109.714 266.576 107.548 265.322 104.356 265.094C101.164 264.866 100.138 261.218 100.138 261.218Z" fill="#A3D1E5"/>
<path d="M112.451 228.728C115.643 231.008 111.881 229.982 109.145 232.262C106.409 234.541 100.674 236.366 98.4109 233.629C96.1483 230.893 96.9464 226.333 94.6663 229.867C92.3862 233.402 95.4269 237.492 95.5783 241.154C95.73 244.815 90.5323 242.766 88.1533 242.188C85.7741 241.61 82.8099 239.101 79.1619 240.47C75.5137 241.838 70.0418 239.329 64.2276 239.786C58.4134 240.242 57.3721 230.562 53.9521 225.603C50.5321 220.644 52.1783 222.726 40.6146 223.038C29.0505 223.351 26.4218 220.131 24.8829 216.028C23.3438 211.924 22.8445 202.508 38.3488 203.192C53.8532 203.876 61.3773 198.176 66.1658 192.02C70.9536 185.864 79.3614 183.707 87.4696 187.065C95.5783 190.423 109.715 189.284 112.451 193.616C115.187 197.948 126.131 202.052 123.851 209.348C121.571 216.644 107.474 210.859 104.225 214.384C100.976 217.909 120.127 217.054 121.153 220.816C122.179 224.577 120.127 224.748 116.195 225.091C112.262 225.432 112.451 228.728 112.451 228.728Z" fill="#A3D1E5"/>
<path d="M138.443 240.128C138.823 244.992 134.187 243.32 131.527 247.804C128.867 252.288 134.035 255.175 130.007 257.759C125.979 260.344 122.179 256.543 117.619 256.62C113.059 256.696 113.667 252.895 108.043 252.82C102.418 252.744 101.957 256.393 99.0743 251.224C96.1917 246.053 99.6064 245.828 104.318 243.282C109.03 240.736 110.398 237.468 107.738 236.404C105.079 235.34 107.89 230.248 109.791 229.412C111.69 228.576 123.623 227.132 135.593 229.982C147.563 232.832 155.429 229.412 158.394 232.262C161.358 235.112 168.198 238.645 159.99 240.698C151.781 242.75 146.195 238.874 145.967 244.004C145.739 249.133 165.462 251.072 156.227 253.237C146.993 255.404 139.241 253.009 140.837 248.107C142.433 243.206 138.443 240.128 138.443 240.128Z" fill="#A3D1E5"/>
<path d="M476.428 337.777C474.248 331.843 474.033 332.192 469.349 327.593C464.665 322.995 461.517 326.077 457.915 327.054C454.312 328.03 448.187 324.21 448.187 324.21C448.187 324.21 455.459 325.886 456.922 325.488C458.385 325.091 452.68 317.14 452.68 317.14C452.68 317.14 457.005 322.832 458.221 324.054C459.438 325.276 462.474 323.055 463.874 322.918C465.274 322.782 458.724 312.566 458.724 312.566C458.724 312.566 461.924 316.495 463.52 319.201C464.825 321.416 466.423 321.751 466.423 321.751L461.292 309.416L451.674 301.689L461.357 308.288L459.394 293.649C459.394 293.649 461.689 308.093 463.332 311.697C464.975 315.301 467.749 321.547 467.749 321.547L469.91 303.752C469.91 303.752 469.364 319.922 469.491 323.275C469.618 326.628 472.894 327.736 475.484 332.29C478.074 336.845 478.074 336.845 478.074 336.845L476.428 337.777Z" fill="#76BDD6"/>
<path d="M494.824 399.768C493.713 388.184 489.908 379.099 488.141 371.97C486.374 364.842 480.219 347.35 480.219 347.35L483.454 345.499C483.454 345.499 487.79 363.974 490.143 369.538C492.496 375.102 492.063 356.427 493.096 349.973C494.129 343.519 494.873 330.898 494.873 330.898L496.306 330.589C496.306 330.589 494.465 349.359 494.977 353.882C495.491 358.404 500.366 329.075 500.366 329.075L502.021 328.718C502.021 328.718 498.102 350.173 497.191 356.121C496.28 362.069 496.002 373.632 497.515 380.655C499.029 387.679 501.6 367.473 501.6 367.473L503.109 368.586C503.109 368.586 500.092 382.408 501.188 389.13C502.284 395.853 504.141 400.157 504.141 400.157C504.141 400.157 503.846 402.771 499.475 403.553C495.103 404.335 494.824 399.768 494.824 399.768Z" fill="#76BDD6"/>
<path d="M495.374 361.67C497.08 361.728 497.069 358.109 499.998 355.987C502.927 353.864 505.729 352.941 508.261 356.124C510.794 359.306 513.992 359.149 515.645 360.391C517.298 361.633 523.561 367.127 520.794 370.359C518.028 373.591 516.25 370.593 511.429 372.377C506.608 374.162 502.976 372.076 500.711 373.465C498.447 374.855 489.529 374.54 489.879 371.163C490.228 367.785 491.384 366.365 493.399 365.717C495.414 365.07 495.374 361.67 495.374 361.67Z" fill="#A3D1E5"/>
<path d="M481.181 334.371C479.56 336.85 481.79 335.411 483.993 337.067C486.197 338.722 490.247 339.554 491.18 336.796C492.113 334.039 490.721 330.078 492.872 332.917C495.023 335.755 493.849 339.831 494.455 343.121C495.062 346.411 498.02 343.859 499.444 343.012C500.867 342.165 502.297 339.514 504.913 340.228C507.529 340.943 510.576 337.943 514.414 337.542C518.253 337.141 517.062 328.353 518.314 323.45C519.566 318.547 518.905 320.634 526.424 319.306C533.943 317.978 535.02 314.738 535.223 310.86C535.426 306.982 533.936 298.504 524.067 301.27C514.197 304.036 508.247 299.992 503.974 295.161C499.701 290.33 493.863 289.572 489.279 293.698C484.694 297.824 475.356 298.771 474.425 303.019C473.493 307.268 467.224 312.453 470.099 318.651C472.972 324.849 480.953 317.724 483.727 320.42C486.501 323.115 473.983 325.014 474.045 328.516C474.107 332.017 475.463 331.885 478.066 331.644C480.669 331.402 481.181 334.371 481.181 334.371Z" fill="#A3D1E5"/>
<path d="M466.608 348.163C467.298 352.558 469.967 350.421 472.546 354.055C475.125 357.689 472.347 360.986 475.442 362.734C478.538 364.481 480.258 360.56 483.214 359.994C486.17 359.428 485.047 356.119 488.66 355.27C492.273 354.421 493.273 357.615 494.138 352.598C495.003 347.581 492.757 347.855 489.227 346.236C485.698 344.618 484.187 341.889 485.698 340.57C487.209 339.25 484.415 335.094 483.029 334.612C481.642 334.13 473.667 334.499 466.494 338.707C459.321 342.915 453.589 340.955 452.226 343.912C450.862 346.869 447.13 350.975 452.819 351.666C458.508 352.358 461.366 348.12 462.501 352.669C463.635 357.218 451.285 361.69 457.659 362.34C464.032 362.991 468.572 359.776 466.599 355.62C464.626 351.466 466.608 348.163 466.608 348.163Z" fill="#A3D1E5"/>
<path d="M388.971 365.326C388.352 362.043 388.196 362.205 386.041 359.389C383.887 356.574 381.814 357.888 379.701 358.067C377.587 358.246 374.548 355.704 374.548 355.704C374.548 355.704 378.445 357.237 379.304 357.164C380.162 357.091 377.776 352.44 377.776 352.44C377.776 352.44 379.619 355.791 380.175 356.537C380.732 357.283 382.655 356.406 383.452 356.462C384.249 356.518 381.619 350.614 381.619 350.614C381.619 350.614 383.011 352.947 383.63 354.498C384.136 355.768 384.996 356.088 384.996 356.088L383.374 349.211L378.776 344.321L383.525 348.631L383.908 340.846C383.908 340.846 383.73 348.56 384.285 350.583C384.839 352.605 385.758 356.103 385.758 356.103L388.768 347.053C388.768 347.053 386.826 355.405 386.558 357.158C386.29 358.913 388.01 359.787 388.998 362.389C389.986 364.991 389.986 364.991 389.986 364.991L388.971 365.326Z" fill="#76BDD6"/>
<path d="M392.988 399.21C393.538 393.091 392.329 388.023 392.062 384.159C391.795 380.294 390.122 370.645 390.122 370.645L392.119 369.978C392.119 369.978 392.675 379.972 393.428 383.077C394.182 386.183 395.829 376.44 397.06 373.181C398.291 369.922 399.983 363.432 399.983 363.432L400.816 363.402C400.816 363.402 397.887 372.987 397.716 375.383C397.546 377.78 403.24 362.985 403.24 362.985L404.202 362.951C404.202 362.951 399.839 373.741 398.728 376.748C397.616 379.756 396.291 385.738 396.427 389.525C396.563 393.312 400.045 383.048 400.045 383.048L400.777 383.764C400.777 383.764 397.691 390.671 397.623 394.263C397.556 397.856 398.16 400.262 398.16 400.262C398.16 400.262 397.73 401.593 395.206 401.601C392.682 401.609 392.988 399.21 392.988 399.21Z" fill="#76BDD6"/>
<path d="M397.15 379.466C398.099 379.651 398.459 377.77 400.311 376.934C402.164 376.098 403.825 375.874 404.92 377.758C406.014 379.642 407.819 379.852 408.618 380.648C409.416 381.443 412.364 384.869 410.489 386.296C408.615 387.723 407.924 386.003 405.047 386.491C402.17 386.979 400.35 385.565 398.942 386.08C397.535 386.596 392.579 385.62 393.116 383.897C393.653 382.174 394.444 381.541 395.636 381.388C396.829 381.236 397.15 379.466 397.15 379.466Z" fill="#A3D1E5"/>
<path d="M391.974 363.989C390.817 365.129 392.209 364.585 393.274 365.646C394.339 366.706 396.52 367.508 397.321 366.16C398.122 364.812 397.744 362.628 398.66 364.298C399.576 365.969 398.507 367.979 398.513 369.744C398.52 371.509 400.433 370.453 401.315 370.142C402.196 369.832 403.264 368.584 404.655 369.194C406.047 369.804 408.054 368.523 410.242 368.664C412.429 368.805 412.652 364.131 413.849 361.697C415.045 359.264 414.464 360.288 418.804 360.283C423.144 360.278 424.074 358.693 424.58 356.696C425.086 354.7 425.11 350.159 419.31 350.697C413.51 351.235 410.591 348.592 408.69 345.693C406.789 342.793 403.6 341.867 400.619 343.594C397.637 345.32 392.318 344.961 391.367 347.083C390.416 349.206 386.385 351.329 387.366 354.811C388.346 358.293 393.531 355.319 394.809 356.972C396.088 358.625 388.895 358.471 388.575 360.296C388.256 362.121 389.028 362.176 390.508 362.288C391.988 362.4 391.974 363.989 391.974 363.989Z" fill="#A3D1E5"/>
<path d="M382.427 369.827C382.369 372.174 384.078 371.307 385.152 373.43C386.227 375.553 384.34 377.013 385.894 378.203C387.449 379.393 388.808 377.512 390.519 377.487C392.229 377.463 391.935 375.641 394.042 375.529C396.149 375.417 396.385 377.168 397.377 374.64C398.368 372.112 397.084 372.049 395.274 370.887C393.463 369.724 392.894 368.169 393.872 367.621C394.851 367.073 393.709 364.659 392.982 364.282C392.255 363.905 387.758 363.371 383.32 364.904C378.882 366.437 375.874 364.896 374.812 366.308C373.75 367.72 371.248 369.513 374.36 370.391C377.472 371.269 379.499 369.328 379.673 371.795C379.847 374.261 372.488 375.46 375.987 376.378C379.486 377.297 382.35 376.04 381.667 373.701C380.985 371.363 382.427 369.827 382.427 369.827Z" fill="#A3D1E5"/>
<path d="M307.859 372.41C312.133 378.298 316.579 368.727 334.02 378.096C351.461 387.465 362.071 372.562 371.67 381.44C381.269 390.319 388.06 397.761 398.142 395.943C408.224 394.124 414.249 387.064 426.615 386.313C438.983 385.563 480.841 364.203 492.891 382.81C504.941 401.418 510.015 379.643 527.139 388.628C544.263 397.613 565.351 378.096 565.351 378.096V409.504H318.164L299.614 380.648L307.859 372.41Z" fill="#A3D1E5"/>
<path d="M303.693 386.993C312.862 381.422 322.539 381.144 331.576 388.628C340.613 396.111 350.364 387.618 359.163 392.697C367.963 397.776 376.048 398.727 385.086 403.008C394.123 407.289 413.387 399.77 420.521 396.157C427.656 392.544 444.065 394.109 452.151 395.943C460.237 397.776 465.945 381.62 475.933 388.628C485.921 395.636 469.274 403.668 474.506 404.289C479.738 404.91 500.666 393.496 506.136 397.777C511.606 402.057 509.703 393.02 517.789 398.966C525.875 404.911 539.219 411.569 542.285 400.631C545.351 389.692 541.333 378.673 551.084 372.41C560.835 366.147 561.073 370.665 553.225 384.934C545.377 399.204 549.657 396.826 556.078 396.587C562.5 396.35 565.351 389.691 565.351 389.691V409.504H276.94L303.693 386.993Z" fill="#76BDD6"/>
<path d="M316.501 409.504H66.6279V299.24C95.7199 307.115 191.249 305.522 219.419 328.82C257.334 360.18 270.556 317.622 293.119 341.887C298.749 347.942 303.027 355.185 306.274 362.647C307.881 366.34 309.236 370.088 310.379 373.77C310.379 373.77 310.38 373.778 310.386 373.792C310.856 375.308 311.289 376.813 311.688 378.298C316.23 395.126 316.501 409.504 316.501 409.504Z" fill="#AF7A2E"/>
<path d="M308.484 374.946C305.658 372.975 299.312 378.751 296.546 375.897C293.781 373.044 288.045 383.033 284.115 380.654C280.185 378.276 273.112 383.508 266.824 375.184C260.536 366.86 252.414 380.654 244.291 377.8C236.17 374.946 238.79 384.459 233.288 382.557C227.786 380.654 229.62 378.514 229.62 373.282C229.62 368.049 220.45 371.379 215.262 367.812C210.076 364.244 206.563 375.66 199.7 373.519C192.835 371.379 192.154 381.843 186.451 378.514C180.748 375.184 175.124 378.514 175.876 373.272C176.628 368.03 173.551 368.287 164.482 363.822C155.413 359.356 151.806 371.379 146.566 369.001C141.326 366.622 122.986 374.708 121.378 373.044C119.769 371.379 115.126 370.903 110.22 366.324C105.313 361.745 97.5735 374.708 91.694 370.665C85.8143 366.622 78.9707 371.854 76.3871 369.714C73.8057 367.573 75.5644 367.811 74.0222 364.006C72.4798 360.201 66.6279 360.914 66.6279 354.372V299.239C95.7199 307.115 191.249 305.521 219.419 328.82C257.334 360.18 270.556 317.622 293.119 341.887C298.749 347.942 303.027 355.184 306.274 362.647C307.881 366.34 309.236 370.088 310.379 373.77C310.379 373.77 310.38 373.778 310.386 373.792C310.461 374.07 311.168 376.817 308.484 374.946Z" fill="#934C11"/>
<path d="M306.274 362.647C304.802 366.949 300.132 366.987 293.18 359.243C285.495 350.681 285.146 369.391 278.508 362.097C271.87 354.804 266.281 366.22 259.992 364.138C253.704 362.056 247.067 370.342 238.682 363.683C230.297 357.023 223.66 366.22 221.913 363.683C220.167 361.146 223.31 359.243 224.009 352.584C224.708 345.925 218.769 351.95 215.276 349.413C211.782 346.876 203.398 356.073 198.856 354.373C194.315 352.672 175.45 359.878 171.956 354.373C168.463 348.866 178.594 346.242 176.847 344.974C175.101 343.705 156.934 349.73 150.646 347.511C144.358 345.291 140.515 357.975 137.72 358.292C134.925 358.609 126.541 364 120.253 360.195C113.964 356.39 126.192 351.95 124.095 348.145C122 344.34 110.122 353.536 104.532 349.415C98.9427 345.294 92.3051 348.779 90.5584 354.373C88.8116 359.965 87.0646 360.195 83.5714 350.999C80.0783 341.803 71.344 352.584 66.6279 340.534V299.24C95.7199 307.115 191.249 305.522 219.419 328.82C257.334 360.18 270.556 317.622 293.119 341.887C294.322 343.18 295.463 344.528 296.546 345.922C300.531 351.048 303.72 356.78 306.274 362.647Z" fill="#8ECC36"/>
<path d="M296.546 345.922C295.877 351.62 290.927 349.738 291.085 345.695C291.241 341.652 283.329 347.122 277.566 342.128C271.802 337.133 276.518 349.738 272.064 346.171C267.61 342.603 261.845 351.165 259.226 349.025C256.605 346.884 251.103 353.543 247.697 350.689C244.291 347.835 241.41 354.732 240.362 354.373C239.314 354.011 230.143 354.257 229.358 350.214C228.572 346.171 230.144 347.598 229.358 345.695C228.572 343.792 217.567 342.603 214.161 339.987C210.755 337.371 208.135 344.03 205.516 342.603C202.896 341.176 201.062 350.214 197.918 348.787C194.774 347.36 194.379 354.279 188.486 351.641C182.592 349.001 186.652 350.689 187.961 345.219C189.272 339.749 190.843 339.987 187.961 337.133C185.079 334.279 171.456 336.896 171.456 336.896C171.456 336.896 164.12 337.847 163.596 336.658C163.072 335.469 159.666 338.798 158.356 337.371C157.046 335.944 154.426 339.274 152.592 337.133C150.758 334.993 138.445 346.884 138.445 343.317C138.445 339.749 144.469 332.614 141.849 328.809C139.229 325.004 127.702 339.987 123.772 335.944C119.842 331.901 117.746 341.176 113.292 339.511C108.837 337.847 100.979 339.987 100.979 335.944C100.979 331.901 103.075 330.236 102.027 327.002C100.979 323.767 92.3325 333.09 87.0923 328.572C81.8524 324.053 78.708 333.566 74.5157 328.572C71.8712 325.419 68.9122 326.625 66.6272 326.539V299.239C95.7191 307.115 191.249 305.521 219.418 328.82C257.333 360.18 270.556 317.622 293.118 341.887C294.323 343.18 295.463 344.528 296.546 345.922Z" fill="#ACEF4B"/>
<path d="M72.9273 299.578C73.051 300.654 76.6298 291.091 80.336 295.273C84.0427 299.455 86.69 294.152 88.5433 296.936C90.3966 299.719 93.3087 297.489 94.897 299.663C96.4856 301.837 97.5447 297.489 99.398 299.663C101.251 301.837 102.84 297.42 106.016 300.291C109.193 303.161 111.841 296.278 113.694 298.395C115.547 300.513 121.901 296.021 124.548 297.605C127.196 299.19 131.697 294.432 132.491 297.605C133.285 300.778 127.507 299.196 129.843 303.127C132.18 307.058 134.794 301.556 136.918 304.663C139.041 307.771 140.168 304.306 140.963 305.189C141.757 306.073 141.972 300.08 145.464 302.697C148.955 305.314 152.611 301.037 154.2 302.364C155.789 303.69 157.642 301.287 159.23 303.68C160.819 306.073 165.849 302.717 168.231 305.189C170.614 307.661 173.262 304.915 174.85 307.479C176.439 310.044 170.998 309.444 174.85 311.465C178.702 313.486 184.197 307.327 186.234 311.465C188.272 315.604 190.206 310.465 193.118 312.77C196.03 315.074 197.883 310.407 200.001 313.137C202.119 315.868 205.296 311.037 207.414 314.512C209.532 317.986 212.179 316.791 212.709 318.977C213.238 321.163 213.979 321.113 215.621 324.145C217.263 327.176 219.191 324.647 220.651 327.801C222.112 330.956 222.768 326.62 224.623 330.318C226.477 334.016 230.447 331.609 231.771 333.137C233.094 334.665 235.477 329.755 236.801 333.137C238.125 336.518 242.096 334.665 243.155 336.518C244.214 338.371 245.802 334.4 247.391 336.518C248.979 338.636 256.108 334.849 257.186 337.026C258.265 339.203 260.786 333.066 261.845 334.92C262.904 336.773 262.728 332.89 264.493 334.39C266.258 335.89 266.434 332.449 266.964 332.537C267.493 332.625 270.759 331.566 271.2 332.537C271.641 333.508 273.406 330.419 273.936 331.566C274.465 332.714 277.378 330.419 276.672 331.39C275.966 332.361 275.612 331.478 275.966 332.361C276.319 333.243 278.084 332.854 278.525 333.137C278.966 333.42 279.745 332.075 280.414 332.836C281.084 333.596 281.261 335.185 281.261 335.185C281.261 335.185 275.789 336.42 274.377 336.862C272.965 337.303 257.98 345.254 242.89 343.137C227.8 341.019 203.973 330.318 203.973 330.318L76.1612 303.385L72.5134 301.09L72.9273 299.578Z" fill="#ACEF4B"/>
<path d="M76.4099 368.281C76.235 376.208 74.8376 409.504 74.8376 409.504H76.4099C76.4099 409.504 78.1565 371.927 79.9033 369.232C81.6503 366.537 86.7159 367.063 88.1133 366.324C89.5105 365.585 93.8775 364.793 93.8775 364.793V400.308L97.3709 364.793L104.882 361.622L118.157 366.325L115.712 403.321C115.712 403.321 118.856 374.623 122.874 372.086C126.891 369.549 129.162 368.281 129.162 368.281L142.088 364.951L139.118 409.504H143.66L148.703 361.622C148.703 361.622 162.805 358.292 168.08 360.67C173.354 363.048 180.46 369.073 180.46 369.073V373.354L178.769 402.686L185.581 373.672L172.253 358.537H157.642L126.607 366.324C126.607 366.324 85.2589 359.013 84.211 359.488C83.163 359.964 76.3878 364.244 76.3878 364.244L76.4099 368.281Z" fill="#934C11"/>
<path d="M224.32 364.482L222.655 405.862C222.655 405.862 226.351 370.564 227.63 370.025C228.909 369.486 232.862 367.329 233.655 367.805C234.447 368.281 240.314 372.244 241.265 372.403C242.217 372.561 242.534 380.172 242.534 380.172L241.741 409.504H244.436L245.705 375.891L254.901 373.037L257.438 373.196L260.133 399.198L262.511 369.391L270.598 368.756L274.72 371.927L277.098 376.684L279.16 406.491L281.855 375.257L286.77 374.464L292.478 374.147L293.588 409.504L295.332 371.927L301.04 371.452L303.577 371.769L309.602 409.504L307.217 370.183L296.442 367.964L283.441 368.598L273.135 368.281L266.128 367.171L253.95 368.439L246.973 369.708L236.984 367.963L232.545 367.012L226.044 365.268L224.32 364.482Z" fill="#934C11"/>
<path d="M70.2964 370.659C70.1215 365.744 69.0737 364 66.6279 362.414V409.504H71.344C71.344 409.504 72.3924 379.221 72.3924 374.623C72.3924 370.025 70.4713 375.574 70.2964 370.659Z" fill="#C69738"/>
<path d="M84.2703 376.684C80.6023 381.757 80.0784 409.504 80.0784 409.504H90.3837C90.3837 409.504 91.4319 398.564 91.4319 386.673C91.4319 374.781 87.9386 371.61 84.2703 376.684Z" fill="#C69738"/>
<path d="M101.214 374.464C98.2442 378.745 94.9255 409.504 94.9255 409.504H114.839C114.839 409.504 114.14 377.477 112.743 373.354C111.345 369.232 104.183 370.183 101.214 374.464Z" fill="#C69738"/>
<path d="M122.524 377.635C120.428 381.123 114.838 409.504 114.838 409.504H136.498C136.498 409.504 139.642 382.55 136.498 375.732C133.354 368.915 124.62 374.147 122.524 377.635Z" fill="#C69738"/>
<path d="M172.656 382.81C170.21 382.277 172.83 374.306 169.686 370.025C166.542 365.744 160.079 366.854 154.489 370.183C148.9 373.513 148.725 409.504 148.725 409.504H176.498C176.498 409.504 174.926 402.369 174.926 395.868C174.926 389.368 175.101 383.343 172.656 382.81Z" fill="#C69738"/>
<path d="M209.861 372.561C208.988 373.83 201.651 376.366 198.857 376.366C196.062 376.366 197.459 379.379 194.315 380.964C191.171 382.55 187.503 382.55 185.581 386.993C183.66 391.435 176.498 409.504 176.498 409.504H212.132C212.132 409.504 210.734 371.293 209.861 372.561Z" fill="#C69738"/>
<path d="M226.804 384.02C224.883 381.05 224.871 369.969 222.088 373.196C219.306 376.422 212.132 409.504 212.132 409.504H232.045C232.045 409.504 231.346 400.308 230.648 395.868C229.949 391.429 228.726 386.99 226.804 384.02Z" fill="#C69738"/>
<path d="M266.63 381.44C264.36 375.732 259.818 375.891 259.818 375.891L254.752 407.919L249.338 381.123C249.338 381.123 246.543 382.391 243.049 381.282C239.556 380.172 240.08 409.504 240.08 409.504H275.364L270.822 385.959C270.822 385.959 268.901 387.148 266.63 381.44Z" fill="#C69738"/>
<path d="M286.193 384.02C283.573 384.697 280.429 382.81 280.429 382.81L275.364 409.504H289.687L288.814 383.343C288.814 383.343 288.814 383.343 286.193 384.02Z" fill="#C69738"/>
<path d="M297.897 380.648C295.626 380.172 295.451 379.062 295.451 379.062L293.646 409.504H306.98C306.98 409.504 304.185 403.955 302.263 395.234C300.342 386.514 300.167 381.123 297.897 380.648Z" fill="#C69738"/>
<path d="M311.689 378.298C309.789 377.356 308.901 380.013 308.901 380.013L312.045 409.504H316.501C316.501 409.504 316.23 395.126 311.689 378.298Z" fill="#C69738"/>
<path d="M328.735 409.504H315.68C315.68 409.504 307.276 409.504 307.118 409.504H268.784V404.589C268.784 404.589 279.794 403.427 280.639 403.427C281.486 403.427 294.592 401.735 295.015 401.629C295.438 401.524 304.739 398.141 304.739 398.141L310.236 396.978C310.236 396.978 315.895 395.076 316.501 394.759C317.106 394.441 318.375 391.798 318.375 391.798L324.189 388.628C327.677 390.637 327.467 392.686 327.519 395.943C327.571 399.198 327.149 400.256 327.519 402.58C327.888 404.906 328.735 409.504 328.735 409.504Z" fill="#934C11"/>
<path d="M276.518 400.255C283.6 402.792 283.494 400.255 285.661 400.889C287.828 401.524 287.722 398.247 291.21 398.775C294.699 399.304 291.846 393.011 295.756 396.157C299.667 399.304 301.675 399.093 302.943 396.767C304.212 394.442 303.148 392.711 307.095 393.8C311.042 394.889 313.302 392.954 314.253 393.8C315.205 394.646 314.967 393.949 314.967 393.949L313.723 386.945C313.723 386.945 318.904 385.464 319.116 386.993C319.327 388.523 324.189 388.205 324.189 388.628C324.189 389.051 324.824 391.376 324.189 393.385C323.555 395.393 320.807 394.279 321.441 396.158C322.075 398.036 324.718 398.141 322.287 400.044C319.855 401.947 316.896 401.841 315.099 402.581C313.302 403.321 313.413 401.906 311.076 403.004C308.739 404.102 308.545 401.841 304.951 403.004C301.357 404.166 297.447 402.052 292.69 404.061C287.933 406.069 288.11 404.441 279.882 405.308C271.655 406.174 266.687 404.695 269.647 403.955C272.606 403.215 276.2 404.166 275.037 402.475C273.875 400.784 276.518 400.255 276.518 400.255Z" fill="#8ECC36"/>
<path d="M281.01 409.504H269.992C269.935 408.148 269.907 407.151 269.907 407.151C273.094 408.737 274.086 407.971 276.94 407.39C279.794 406.808 280.956 407.291 281.01 407.842C281.063 408.394 281.01 409.504 281.01 409.504Z" fill="#AF7A2E"/>
<path d="M299.086 409.504H282.173C282.173 409.504 281.75 407.39 284.868 407.126C287.987 406.861 288.567 407.126 291.316 406.915C294.064 406.702 297.341 406.016 298.134 407.073C298.927 408.129 299.086 409.504 299.086 409.504Z" fill="#AF7A2E"/>
<path d="M307.118 409.504H300.617C300.617 409.504 300.406 406.756 301.569 406.227C302.732 405.699 304.793 404.335 306.008 405.572C307.224 406.808 306.959 409.504 307.118 409.504Z" fill="#AF7A2E"/>
<path d="M322.551 409.504H315.68C315.68 409.504 315.892 404.43 316.262 403.744C316.631 403.056 320.966 401.524 321.388 403.744C321.811 405.964 322.551 409.504 322.551 409.504Z" fill="#AF7A2E"/>
<path d="M328.418 409.504H325.088C325.088 409.504 323.661 399.832 324.031 399.515C324.4 399.198 323.872 397.93 323.079 397.031C322.287 396.133 324.4 394.6 325.088 399.066C325.775 403.531 328.418 409.504 328.418 409.504Z" fill="#AF7A2E"/>
<path d="M280.774 264.709H274.289V415.548H280.774V264.709Z" fill="#4C4C4C"/>
<path d="M341.701 336.886H221.616V343.371H341.701V336.886Z" fill="#5D5D5D"/>
<path d="M196.342 415.548H189.376L249.75 257.65H256.716L196.342 415.548Z" fill="#5D5D5D"/>
<path d="M365.778 415.548H372.744L312.37 257.65H305.404L365.778 415.548Z" fill="#5D5D5D"/>
<path d="M387.147 131.552H174.973V278.368H387.147V131.552Z" fill="#5D5D5D"/>
<path d="M382.171 136.528H179.948V273.392H382.171V136.528Z" fill="white"/>
<path d="M220.657 226.44H203.43V258.848H220.657V226.44Z" fill="#FF0000"/>
<path d="M248.888 200.886H231.66V258.848H248.888V200.886Z" fill="#FF0000"/>
<path d="M277.118 213.302H259.89V258.848H277.118V213.302Z" fill="#FF0000"/>
<path d="M305.348 203.479H288.12V258.848H305.348V203.479Z" fill="#FF0000"/>
<path d="M333.578 179.866H316.35V258.848H333.578V179.866Z" fill="#FF0000"/>
<path d="M275.48 148.766H187.839V152.249H275.48V148.766Z" fill="#A3D1E5"/>
<path d="M275.48 155.897H187.839V159.38H275.48V155.897Z" fill="#A3D1E5"/>
<path d="M226.08 163.029H187.839V166.512H226.08V163.029Z" fill="#A3D1E5"/>
<path d="M374.541 176.942H341.005V180.425H374.541V176.942Z" fill="#8ECC36"/>
<path d="M374.541 184.074H341.005V187.557H374.541V184.074Z" fill="#8ECC36"/>
<path d="M355.638 191.206H341.005V194.689H355.638V191.206Z" fill="#8ECC36"/>
<path d="M187.839 214.63L245.183 174.375L265.583 200.042L337.056 154.156" stroke="#8ECC36" stroke-width="26" stroke-miterlimit="10" stroke-linejoin="bevel"/>
<path d="M322.413 152.139L345.963 148.019L333.45 166.854L322.413 152.139Z" fill="#8ECC36"/>
<path d="M396.142 108.949C394.177 103.433 391.636 99.4351 388.27 99.3929C384.903 99.3505 383.819 91.2493 387.846 92.7947C391.872 94.3399 389.888 98.5993 388.238 95.711C386.589 92.8228 388.723 90.8047 391.222 91.2896C395.185 92.058 393.163 99.0161 391.841 94.956C390.519 90.8958 393.724 87.5203 396.034 90.1731C398.345 92.826 397.507 97.0967 395.936 94.4286C394.365 91.7605 396.611 88.3073 398.379 90.6568C400.147 93.0065 397.932 97.0693 397.399 99.0589C396.866 101.049 399.502 107.753 399.502 107.753" stroke="#FFCE00" stroke-width="6" stroke-miterlimit="10"/>
<path d="M403.451 108.557L392.636 112.409L393.384 114.508L404.199 110.656L403.451 108.557Z" stroke="#A4D1E4" stroke-width="6" stroke-miterlimit="10" stroke-linejoin="bevel"/>
<path d="M404.806 112.361L393.99 116.213L394.738 118.312L405.553 114.46L404.806 112.361Z" stroke="#A4D1E4" stroke-width="6" stroke-miterlimit="10" stroke-linejoin="bevel"/>
<path d="M406.175 116.204L395.359 120.056L396.106 122.155L406.922 118.303L406.175 116.204Z" stroke="#A4D1E4" stroke-width="6" stroke-miterlimit="10" stroke-linejoin="bevel"/>
<path d="M404.716 121.303L399.712 123.085L400.459 125.184L405.463 123.402L404.716 121.303Z" stroke="#A4D1E4" stroke-width="6" stroke-miterlimit="10" stroke-linejoin="bevel"/>
<path d="M404.58 93.0005H404.579C405.576 89.9324 405.605 86.5239 404.439 83.2504C401.632 75.3693 392.968 71.2561 385.087 74.0627C377.206 76.8692 373.092 85.5335 375.899 93.4142C377.065 96.6879 379.242 99.3108 381.954 101.058H381.953C381.957 101.061 381.96 101.062 381.963 101.064C382.196 101.214 382.433 101.358 382.674 101.495C388.421 104.942 389.997 104.914 391.963 110.437L402.752 106.595C400.785 101.072 402.023 100.098 404.298 93.7941C404.398 93.5359 404.49 93.2748 404.576 93.0112C404.577 93.0075 404.579 93.004 404.58 93.0005Z" stroke="#A4D1E4" stroke-width="6" stroke-miterlimit="10" stroke-linejoin="bevel"/>
<path d="M384.194 71.5559L374.711 44.9291" stroke="#A4D1E4" stroke-width="6" stroke-miterlimit="10" stroke-linejoin="bevel"/>
<path d="M373.531 94.4233L346.67 103.989" stroke="#A4D1E4" stroke-width="6" stroke-miterlimit="10" stroke-linejoin="bevel"/>
<path d="M433.773 72.9692L406.912 82.5352" stroke="#A4D1E4" stroke-width="6" stroke-miterlimit="10" stroke-linejoin="bevel"/>
<path d="M374.058 80.8055L348.459 68.6519" stroke="#A4D1E4" stroke-width="6" stroke-miterlimit="10" stroke-linejoin="bevel"/>
<path d="M431.984 108.307L406.147 96.0402" stroke="#A4D1E4" stroke-width="6" stroke-miterlimit="10" stroke-linejoin="bevel"/>
<path d="M382.66 104.405L370.394 130.241" stroke="#A4D1E4" stroke-width="6" stroke-miterlimit="10" stroke-linejoin="bevel"/>
<path d="M410.049 46.7173L397.895 72.3176" stroke="#A4D1E4" stroke-width="6" stroke-miterlimit="10" stroke-linejoin="bevel"/>
<path d="M377.801 75.5245L358.226 55.1093" stroke="#A4D1E4" stroke-width="6" stroke-miterlimit="10" stroke-linejoin="bevel"/>
<path d="M377.502 100.674L356.851 120.473" stroke="#A4D1E4" stroke-width="6" stroke-miterlimit="10" stroke-linejoin="bevel"/>
<path d="M423.592 56.4851L403.086 76.1451" stroke="#A4D1E4" stroke-width="6" stroke-miterlimit="10" stroke-linejoin="bevel"/>
<path d="M372.415 88.1044L344.001 87.5063" stroke="#A4D1E4" stroke-width="6" stroke-miterlimit="10" stroke-linejoin="bevel"/>
<path d="M436.442 89.4522L407.465 88.8421" stroke="#A4D1E4" stroke-width="6" stroke-miterlimit="10" stroke-linejoin="bevel"/>
<path d="M391.194 42.2599L390.599 70.5305" stroke="#A4D1E4" stroke-width="6" stroke-miterlimit="10" stroke-linejoin="bevel"/>
<g opacity="0.4">
<path opacity="0.01" d="M436.896 455.135C465.909 455.135 489.428 448.635 489.428 440.617C489.428 432.599 465.909 426.099 436.896 426.099C407.883 426.099 384.364 432.599 384.364 440.617C384.364 448.635 407.883 455.135 436.896 455.135Z" fill="#252525"/>
<path opacity="0.0277" d="M436.896 454.925C465.489 454.925 488.668 448.519 488.668 440.617C488.668 432.715 465.489 426.309 436.896 426.309C408.303 426.309 385.124 432.715 385.124 440.617C385.124 448.519 408.303 454.925 436.896 454.925Z" fill="#252525"/>
<path opacity="0.0454" d="M436.896 454.715C465.069 454.715 487.908 448.403 487.908 440.617C487.908 432.831 465.069 426.519 436.896 426.519C408.722 426.519 385.883 432.831 385.883 440.617C385.883 448.403 408.722 454.715 436.896 454.715Z" fill="#252525"/>
<path opacity="0.063" d="M436.896 454.505C464.649 454.505 487.148 448.287 487.148 440.617C487.148 432.947 464.649 426.729 436.896 426.729C409.142 426.729 386.643 432.947 386.643 440.617C386.643 448.287 409.142 454.505 436.896 454.505Z" fill="#252525"/>
<path opacity="0.0807" d="M436.896 454.295C464.23 454.295 486.388 448.171 486.388 440.617C486.388 433.063 464.23 426.939 436.896 426.939C409.562 426.939 387.404 433.063 387.404 440.617C387.404 448.171 409.562 454.295 436.896 454.295Z" fill="#252525"/>
<path opacity="0.0984" d="M436.896 454.085C463.81 454.085 485.628 448.055 485.628 440.617C485.628 433.179 463.81 427.149 436.896 427.149C409.982 427.149 388.164 433.179 388.164 440.617C388.164 448.055 409.982 454.085 436.896 454.085Z" fill="#252525"/>
<path opacity="0.1161" d="M436.896 453.875C463.39 453.875 484.868 447.939 484.868 440.617C484.868 433.295 463.39 427.359 436.896 427.359C410.401 427.359 388.923 433.295 388.923 440.617C388.923 447.939 410.401 453.875 436.896 453.875Z" fill="#252525"/>
<path opacity="0.1337" d="M436.896 453.665C462.971 453.665 484.108 447.823 484.108 440.617C484.108 433.411 462.971 427.569 436.896 427.569C410.821 427.569 389.683 433.411 389.683 440.617C389.683 447.823 410.821 453.665 436.896 453.665Z" fill="#252525"/>
<path opacity="0.1514" d="M436.896 453.455C462.551 453.455 483.348 447.707 483.348 440.617C483.348 433.527 462.551 427.779 436.896 427.779C411.241 427.779 390.443 433.527 390.443 440.617C390.443 447.707 411.241 453.455 436.896 453.455Z" fill="#252525"/>
<path opacity="0.1691" d="M436.895 453.245C462.131 453.245 482.588 447.591 482.588 440.617C482.588 433.643 462.131 427.989 436.895 427.989C411.66 427.989 391.203 433.643 391.203 440.617C391.203 447.591 411.66 453.245 436.895 453.245Z" fill="#252525"/>
<path opacity="0.1868" d="M436.896 453.035C461.712 453.035 481.829 447.475 481.829 440.617C481.829 433.759 461.712 428.199 436.896 428.199C412.08 428.199 391.963 433.759 391.963 440.617C391.963 447.475 412.08 453.035 436.896 453.035Z" fill="#252525"/>
<path opacity="0.2045" d="M436.896 452.825C461.292 452.825 481.069 447.359 481.069 440.617C481.069 433.875 461.292 428.409 436.896 428.409C412.5 428.409 392.723 433.875 392.723 440.617C392.723 447.359 412.5 452.825 436.896 452.825Z" fill="#252525"/>
<path opacity="0.2221" d="M436.896 452.615C460.872 452.615 480.308 447.243 480.308 440.617C480.308 433.991 460.872 428.619 436.896 428.619C412.919 428.619 393.483 433.991 393.483 440.617C393.483 447.243 412.919 452.615 436.896 452.615Z" fill="#252525"/>
<path opacity="0.2398" d="M436.896 452.405C460.452 452.405 479.549 447.127 479.549 440.617C479.549 434.107 460.452 428.829 436.896 428.829C413.339 428.829 394.243 434.107 394.243 440.617C394.243 447.127 413.339 452.405 436.896 452.405Z" fill="#252525"/>
<path opacity="0.2575" d="M436.896 452.195C460.033 452.195 478.789 447.011 478.789 440.617C478.789 434.223 460.033 429.039 436.896 429.039C413.759 429.039 395.003 434.223 395.003 440.617C395.003 447.011 413.759 452.195 436.896 452.195Z" fill="#252525"/>
<path opacity="0.2752" d="M436.896 451.985C459.613 451.985 478.029 446.895 478.029 440.617C478.029 434.339 459.613 429.249 436.896 429.249C414.179 429.249 395.763 434.339 395.763 440.617C395.763 446.895 414.179 451.985 436.896 451.985Z" fill="#252525"/>
<path opacity="0.2929" d="M436.896 451.774C459.193 451.774 477.268 446.779 477.268 440.617C477.268 434.455 459.193 429.459 436.896 429.459C414.598 429.459 396.523 434.455 396.523 440.617C396.523 446.779 414.598 451.774 436.896 451.774Z" fill="#252525"/>
<path opacity="0.3105" d="M436.896 451.565C458.774 451.565 476.509 446.663 476.509 440.617C476.509 434.571 458.774 429.669 436.896 429.669C415.018 429.669 397.283 434.571 397.283 440.617C397.283 446.663 415.018 451.565 436.896 451.565Z" fill="#252525"/>
<path opacity="0.3282" d="M436.896 451.355C458.354 451.355 475.749 446.547 475.749 440.617C475.749 434.687 458.354 429.879 436.896 429.879C415.438 429.879 398.043 434.687 398.043 440.617C398.043 446.547 415.438 451.355 436.896 451.355Z" fill="#252525"/>
<path opacity="0.3459" d="M436.896 451.145C457.934 451.145 474.989 446.431 474.989 440.617C474.989 434.803 457.934 430.089 436.896 430.089C415.858 430.089 398.803 434.803 398.803 440.617C398.803 446.431 415.858 451.145 436.896 451.145Z" fill="#252525"/>
<path opacity="0.3636" d="M436.896 450.934C457.514 450.934 474.229 446.315 474.229 440.617C474.229 434.919 457.514 430.3 436.896 430.3C416.277 430.3 399.563 434.919 399.563 440.617C399.563 446.315 416.277 450.934 436.896 450.934Z" fill="#252525"/>
<path opacity="0.3812" d="M436.896 450.724C457.095 450.724 473.469 446.199 473.469 440.617C473.469 435.035 457.095 430.509 436.896 430.509C416.697 430.509 400.323 435.035 400.323 440.617C400.323 446.199 416.697 450.724 436.896 450.724Z" fill="#252525"/>
<path opacity="0.3989" d="M436.896 450.514C456.675 450.514 472.709 446.083 472.709 440.617C472.709 435.151 456.675 430.72 436.896 430.72C417.117 430.72 401.083 435.151 401.083 440.617C401.083 446.083 417.117 450.514 436.896 450.514Z" fill="#252525"/>
<path opacity="0.4166" d="M436.896 450.304C456.255 450.304 471.949 445.967 471.949 440.617C471.949 435.267 456.255 430.93 436.896 430.93C417.537 430.93 401.843 435.267 401.843 440.617C401.843 445.967 417.537 450.304 436.896 450.304Z" fill="#252525"/>
<path opacity="0.4343" d="M436.896 450.094C455.835 450.094 471.189 445.851 471.189 440.617C471.189 435.383 455.835 431.14 436.896 431.14C417.956 431.14 402.603 435.383 402.603 440.617C402.603 445.851 417.956 450.094 436.896 450.094Z" fill="#252525"/>
<path opacity="0.452" d="M436.896 449.884C455.416 449.884 470.429 445.735 470.429 440.617C470.429 435.499 455.416 431.35 436.896 431.35C418.376 431.35 403.363 435.499 403.363 440.617C403.363 445.735 418.376 449.884 436.896 449.884Z" fill="#252525"/>
<path opacity="0.4696" d="M436.896 449.674C454.996 449.674 469.669 445.619 469.669 440.617C469.669 435.615 454.996 431.56 436.896 431.56C418.795 431.56 404.122 435.615 404.122 440.617C404.122 445.619 418.795 449.674 436.896 449.674Z" fill="#252525"/>
<path opacity="0.4873" d="M436.896 449.464C454.576 449.464 468.909 445.503 468.909 440.617C468.909 435.731 454.576 431.77 436.896 431.77C419.215 431.77 404.882 435.731 404.882 440.617C404.882 445.503 419.215 449.464 436.896 449.464Z" fill="#252525"/>
<path opacity="0.505" d="M436.896 449.254C454.157 449.254 468.149 445.387 468.149 440.617C468.149 435.847 454.157 431.98 436.896 431.98C419.635 431.98 405.642 435.847 405.642 440.617C405.642 445.387 419.635 449.254 436.896 449.254Z" fill="#252525"/>
<path opacity="0.5227" d="M436.896 449.044C453.737 449.044 467.389 445.271 467.389 440.617C467.389 435.963 453.737 432.19 436.896 432.19C420.055 432.19 406.402 435.963 406.402 440.617C406.402 445.271 420.055 449.044 436.896 449.044Z" fill="#252525"/>
<path opacity="0.5404" d="M436.896 448.834C453.317 448.834 466.629 445.155 466.629 440.617C466.629 436.079 453.317 432.4 436.896 432.4C420.474 432.4 407.162 436.079 407.162 440.617C407.162 445.155 420.474 448.834 436.896 448.834Z" fill="#252525"/>
<path opacity="0.558" d="M436.896 448.624C452.898 448.624 465.869 445.039 465.869 440.617C465.869 436.195 452.898 432.61 436.896 432.61C420.894 432.61 407.922 436.195 407.922 440.617C407.922 445.039 420.894 448.624 436.896 448.624Z" fill="#252525"/>
<path opacity="0.5757" d="M436.896 448.414C452.478 448.414 465.109 444.923 465.109 440.617C465.109 436.311 452.478 432.82 436.896 432.82C421.314 432.82 408.682 436.311 408.682 440.617C408.682 444.923 421.314 448.414 436.896 448.414Z" fill="#252525"/>
<path opacity="0.5934" d="M436.896 448.204C452.058 448.204 464.35 444.807 464.35 440.617C464.35 436.427 452.058 433.03 436.896 433.03C421.734 433.03 409.442 436.427 409.442 440.617C409.442 444.807 421.734 448.204 436.896 448.204Z" fill="#252525"/>
<path opacity="0.6111" d="M436.896 447.994C451.638 447.994 463.589 444.691 463.589 440.617C463.589 436.543 451.638 433.24 436.896 433.24C422.153 433.24 410.202 436.543 410.202 440.617C410.202 444.691 422.153 447.994 436.896 447.994Z" fill="#252525"/>
<path opacity="0.6287" d="M436.896 447.784C451.219 447.784 462.829 444.575 462.829 440.617C462.829 436.659 451.219 433.45 436.896 433.45C422.573 433.45 410.962 436.659 410.962 440.617C410.962 444.575 422.573 447.784 436.896 447.784Z" fill="#252525"/>
<path opacity="0.6464" d="M436.896 447.574C450.799 447.574 462.069 444.459 462.069 440.617C462.069 436.775 450.799 433.66 436.896 433.66C422.993 433.66 411.722 436.775 411.722 440.617C411.722 444.459 422.993 447.574 436.896 447.574Z" fill="#252525"/>
<path opacity="0.6641" d="M436.896 447.364C450.379 447.364 461.309 444.343 461.309 440.617C461.309 436.891 450.379 433.87 436.896 433.87C423.412 433.87 412.482 436.891 412.482 440.617C412.482 444.343 423.412 447.364 436.896 447.364Z" fill="#252525"/>
<path opacity="0.6818" d="M436.896 447.154C449.959 447.154 460.549 444.227 460.549 440.617C460.549 437.007 449.959 434.08 436.896 434.08C423.832 434.08 413.242 437.007 413.242 440.617C413.242 444.227 423.832 447.154 436.896 447.154Z" fill="#252525"/>
<path opacity="0.6995" d="M436.896 446.944C449.54 446.944 459.79 444.111 459.79 440.617C459.79 437.123 449.54 434.29 436.896 434.29C424.252 434.29 414.002 437.123 414.002 440.617C414.002 444.111 424.252 446.944 436.896 446.944Z" fill="#252525"/>
<path opacity="0.7171" d="M436.896 446.734C449.12 446.734 459.03 443.995 459.03 440.617C459.03 437.239 449.12 434.5 436.896 434.5C424.672 434.5 414.762 437.239 414.762 440.617C414.762 443.995 424.672 446.734 436.896 446.734Z" fill="#252525"/>
<path opacity="0.7348" d="M436.896 446.524C448.7 446.524 458.27 443.879 458.27 440.617C458.27 437.355 448.7 434.71 436.896 434.71C425.091 434.71 415.522 437.355 415.522 440.617C415.522 443.879 425.091 446.524 436.896 446.524Z" fill="#252525"/>
<path opacity="0.7525" d="M436.896 446.314C448.281 446.314 457.51 443.763 457.51 440.617C457.51 437.471 448.281 434.92 436.896 434.92C425.511 434.92 416.282 437.471 416.282 440.617C416.282 443.763 425.511 446.314 436.896 446.314Z" fill="#252525"/>
<path opacity="0.7702" d="M436.896 446.104C447.861 446.104 456.75 443.647 456.75 440.617C456.75 437.587 447.861 435.13 436.896 435.13C425.931 435.13 417.042 437.587 417.042 440.617C417.042 443.647 425.931 446.104 436.896 446.104Z" fill="#252525"/>
<path opacity="0.7879" d="M436.896 445.894C447.441 445.894 455.99 443.531 455.99 440.617C455.99 437.703 447.441 435.34 436.896 435.34C426.35 435.34 417.802 437.703 417.802 440.617C417.802 443.531 426.35 445.894 436.896 445.894Z" fill="#252525"/>
<path opacity="0.8055" d="M436.896 445.684C447.022 445.684 455.23 443.415 455.23 440.617C455.23 437.819 447.022 435.55 436.896 435.55C426.77 435.55 418.562 437.819 418.562 440.617C418.562 443.415 426.77 445.684 436.896 445.684Z" fill="#252525"/>
<path opacity="0.8232" d="M436.896 445.474C446.602 445.474 454.47 443.299 454.47 440.617C454.47 437.935 446.602 435.76 436.896 435.76C427.19 435.76 419.322 437.935 419.322 440.617C419.322 443.299 427.19 445.474 436.896 445.474Z" fill="#252525"/>
<path opacity="0.8409" d="M436.896 445.264C446.182 445.264 453.71 443.183 453.71 440.617C453.71 438.051 446.182 435.97 436.896 435.97C427.609 435.97 420.082 438.051 420.082 440.617C420.082 443.183 427.609 445.264 436.896 445.264Z" fill="#252525"/>
<path opacity="0.8586" d="M436.896 445.054C445.762 445.054 452.95 443.067 452.95 440.617C452.95 438.167 445.762 436.18 436.896 436.18C428.029 436.18 420.842 438.167 420.842 440.617C420.842 443.067 428.029 445.054 436.896 445.054Z" fill="#252525"/>
<path opacity="0.8762" d="M436.896 444.844C445.343 444.844 452.19 442.951 452.19 440.617C452.19 438.283 445.343 436.39 436.896 436.39C428.449 436.39 421.602 438.283 421.602 440.617C421.602 442.951 428.449 444.844 436.896 444.844Z" fill="#252525"/>
<path opacity="0.8939" d="M436.896 444.634C444.923 444.634 451.43 442.835 451.43 440.617C451.43 438.399 444.923 436.6 436.896 436.6C428.869 436.6 422.362 438.399 422.362 440.617C422.362 442.835 428.869 444.634 436.896 444.634Z" fill="#252525"/>
<path opacity="0.9116" d="M436.896 444.424C444.503 444.424 450.67 442.719 450.67 440.617C450.67 438.515 444.503 436.81 436.896 436.81C429.288 436.81 423.122 438.515 423.122 440.617C423.122 442.719 429.288 444.424 436.896 444.424Z" fill="#252525"/>
<path opacity="0.9293" d="M436.896 444.214C444.084 444.214 449.91 442.603 449.91 440.617C449.91 438.631 444.084 437.02 436.896 437.02C429.708 437.02 423.882 438.631 423.882 440.617C423.882 442.603 429.708 444.214 436.896 444.214Z" fill="#252525"/>
<path opacity="0.947" d="M436.896 444.004C443.664 444.004 449.15 442.487 449.15 440.617C449.15 438.747 443.664 437.23 436.896 437.23C430.128 437.23 424.642 438.747 424.642 440.617C424.642 442.487 430.128 444.004 436.896 444.004Z" fill="#252525"/>
<path opacity="0.9646" d="M436.896 443.794C443.244 443.794 448.39 442.371 448.39 440.617C448.39 438.863 443.244 437.44 436.896 437.44C430.547 437.44 425.401 438.863 425.401 440.617C425.401 442.371 430.547 443.794 436.896 443.794Z" fill="#252525"/>
<path opacity="0.9823" d="M436.896 443.584C442.824 443.584 447.63 442.255 447.63 440.617C447.63 438.979 442.824 437.65 436.896 437.65C430.967 437.65 426.161 438.979 426.161 440.617C426.161 442.255 430.967 443.584 436.896 443.584Z" fill="#252525"/>
<path d="M436.896 443.374C442.404 443.374 446.87 442.139 446.87 440.617C446.87 439.095 442.404 437.86 436.896 437.86C431.387 437.86 426.921 439.095 426.921 440.617C426.921 442.139 431.387 443.374 436.896 443.374Z" fill="#252525"/>
</g>
<path d="M421.498 389.587C418.203 393.406 411.237 399.472 412.661 401.869C414.084 404.265 431.042 421.228 435.369 425.384C439.697 429.54 446.437 429.562 442.617 421.07C438.798 412.578 434.473 399.884 434.473 399.884L421.498 389.587Z" fill="#252525"/>
<path d="M434.473 419.88C435.764 423.474 438.854 427.645 443.179 430.699C447.504 433.753 454.581 437.909 457.108 440.044C459.636 442.178 460.703 443.75 458.063 445.548C455.423 447.345 446.998 450.265 438.798 445.997C430.597 441.728 420.262 440.268 418.577 435.213C416.892 430.158 420.655 425.777 420.655 425.777C420.655 425.777 427.54 420.33 430.822 418.812C434.104 417.294 434.473 419.88 434.473 419.88Z" fill="#333333"/>
<path d="M434.36 413.589C433.799 416.453 434.248 418.868 434.36 419.374C434.473 419.88 434.473 419.88 434.473 419.88C434.473 419.88 433.405 419.318 432.001 419.88C430.597 420.441 430.429 423.25 432.001 426.844C433.574 430.439 428.912 431.506 425.317 430.102C421.723 428.698 420.655 425.777 420.655 425.777C420.655 425.777 422.279 418.42 421.891 413.589C421.503 408.758 434.36 413.589 434.36 413.589Z" fill="#FFCA7D"/>
<path d="M464.56 279.724C464.56 279.724 478.64 315.222 479.539 330.799C480.437 346.376 474.596 348.922 464.56 358.059C454.525 367.195 435.369 388.614 435.369 388.614L430.41 363.75C430.41 363.75 442.833 350.794 450.589 343.942C458.344 337.09 459.468 336.865 459.917 334.73C460.366 332.596 450.589 316.307 450.589 316.307C450.589 316.307 439.247 284.667 447.335 278.376C455.423 272.085 464.56 279.724 464.56 279.724Z" fill="#252525"/>
<path d="M420.15 412.466C420.15 412.466 422.509 414.937 426.328 415.723C429.006 416.274 432.015 415.39 433.574 414.811C434.239 414.566 434.641 414.375 434.641 414.375C434.641 414.375 434.753 412.353 435.203 409.32C435.652 406.287 437.6 393.407 440.745 377.979C443.891 362.551 451.604 346.75 453.176 331.024C454.749 315.297 451.829 284.293 451.829 284.293C451.829 284.293 425.018 260.552 422.021 273.434C421.403 276.09 421.226 279.204 421.361 282.634C421.886 295.838 427.076 313.715 429.811 328.103C433.255 346.227 423.221 354.912 422.322 364.499C421.424 374.086 420.15 412.466 420.15 412.466Z" fill="#333333"/>
<path d="M420.15 412.466C420.15 412.466 422.509 414.937 426.328 415.723C429.006 416.274 432.015 415.39 433.574 414.811C433.039 414.854 432.471 414.881 431.889 414.881C429.08 414.881 422.902 413.701 421.947 412.185C420.992 410.668 421.835 406.062 421.947 396.514C422.059 386.966 423.52 362.403 426.665 356.26C429.811 350.12 431.608 341.077 431.945 337.819C432.282 334.562 432.9 335.348 436.157 340.179C439.415 345.009 443.01 345.121 446.043 344.447C448.982 343.794 450.496 341.506 450.588 341.365C450.454 341.509 447.537 344.587 441.943 343.38C436.214 342.144 433.405 332.596 430.821 324.508C428.238 316.42 423.52 290.246 423.07 283.731C423.07 283.731 422.403 283.302 421.36 282.635C421.886 295.838 427.076 313.715 429.81 328.103C433.255 346.227 423.221 354.912 422.322 364.499C421.424 374.086 420.15 412.466 420.15 412.466Z" fill="#252525"/>
<path d="M484.181 217.654C484.181 217.654 476.955 212.83 475.644 214.533L475.026 217.042C475.026 217.042 478.508 219.925 478.602 219.925C478.696 219.925 483.151 219.195 483.151 219.195L484.118 218.254L484.223 218.002L484.181 217.654Z" fill="#CECECE"/>
<path d="M486.232 213.101C485.147 214.557 483.62 218.044 483.058 219.336C482.496 220.628 482.356 220.628 482.272 220.656C482.187 220.684 475.503 217.566 475.503 217.566C475.503 217.566 476.43 213.663 476.374 210.939C476.318 208.215 484.743 212.174 484.743 212.174L486.232 213.101Z" fill="#F2BA70"/>
<path d="M448.775 191.056L449.276 193.925L455.198 227.811C455.198 227.811 458.193 239.209 463.662 245.499C469.128 251.79 471.525 249.694 474.145 245.499C476.767 241.307 481.973 223.37 482.384 221.797C482.795 220.224 483.507 219.213 484.031 218.764C484.556 218.315 484.181 217.654 484.181 217.654C484.181 217.654 484.015 218.643 482.856 219.067C482.238 219.294 481.335 219.359 480.025 219.027C476.262 218.072 475.644 214.533 475.644 214.533L470.027 227.811C470.027 227.811 465.983 220.15 462.388 212.736C458.793 205.322 456.21 195.212 448.775 191.056Z" fill="#EFEFEF"/>
<path d="M448.298 190.849L449.276 193.925C449.847 194.3 450.431 194.605 451.004 194.801C454.3 195.924 458.643 205.809 459.542 208.58C460.441 211.35 469.054 227.811 469.054 227.811C469.054 227.811 468.079 230.822 467.106 235.966C466.134 241.111 467.78 246.436 467.78 246.436C467.78 246.436 467.181 238.162 468.304 234.342C469.427 230.523 474.334 219.813 474.932 217.791C475.532 215.769 475.419 216.594 476.693 217.791C477.963 218.986 480.948 219.995 482.856 219.067C482.238 219.294 481.335 219.359 480.025 219.027C476.262 218.072 475.644 214.533 475.644 214.533L470.027 227.811C470.027 227.811 465.983 220.15 462.388 212.736C458.794 205.322 455.732 194.398 448.298 190.849Z" fill="white"/>
<path d="M406.371 202.363C402.85 200.978 398.804 207.083 398.804 207.083C398.804 207.083 397.724 207.931 401.148 210.951C404.573 213.972 406.82 207.494 406.82 207.494L406.371 202.363Z" fill="#CECECE"/>
<path d="M403.152 195.232C406.22 199.069 407.1 208.467 407.1 208.467L399.892 210.115C399.892 210.115 399.48 205.209 397.009 203.712C394.537 202.214 383.995 198.602 381.59 194.754C379.185 190.906 398.511 193.677 398.511 193.677L403.152 195.232Z" fill="#F2BA70"/>
<path d="M448.758 191.58C454.188 195.661 456.996 202.289 458.793 213.41C460.591 224.531 456.921 248.55 458.718 259.12C460.516 269.689 465.458 279.724 465.458 279.724C465.458 279.724 465.009 284.667 453.326 286.315C441.643 287.962 432.507 287.063 425.916 286.315C419.326 285.566 418.427 283.469 418.427 283.469C418.427 283.469 416.031 277.328 418.427 265.795C420.824 254.262 423.643 247.821 421.26 234.641C418.877 221.461 418.689 192.74 418.689 192.74L417.362 190.558L423.745 184.69L448.758 191.58Z" fill="white"/>
<path d="M423.745 184.691C423.745 184.691 431.159 187.387 438.422 188.883C445.688 190.381 449.058 192.702 448.757 191.579C448.703 191.379 448.616 191.208 448.492 191.056C447.929 190.343 446.641 190.006 444.81 188.96C442.583 187.686 442.842 179.223 446.212 172.784C446.212 172.784 439.247 164.471 439.022 164.395C438.798 164.32 427.715 161.236 427.715 161.236C427.715 161.236 428.38 162.604 428.849 165.381C429.164 167.223 429.393 169.688 429.287 172.784C429.022 180.541 423.745 184.691 423.745 184.691Z" fill="#F2BA70"/>
<path d="M423.745 184.691C423.745 184.691 431.159 187.387 438.422 188.883C445.688 190.381 449.058 192.702 448.757 191.579C448.703 191.379 448.616 191.208 448.492 191.056C448.528 191.842 447.054 190.831 443.909 189.827C440.764 188.82 426.721 184.821 425.935 184.203C425.149 183.585 426.16 183.192 428.294 179.71C430.429 176.228 430.26 170.779 430.26 170.779C430.26 170.779 431.664 172.296 432.956 174.435C434.221 176.529 440.705 184.689 440.982 185.035C440.692 184.612 431.415 170.991 429.811 166.623L428.85 165.381C429.164 167.223 429.393 169.688 429.287 172.784C429.022 180.541 423.745 184.691 423.745 184.691Z" fill="#F4A769"/>
<path d="M445.559 135.076C459.168 137.735 463.343 149.492 453.682 156.544L443.066 144.61L445.559 135.076Z" fill="#252525"/>
<path d="M421.734 162.262C421.893 162.399 422.059 162.536 422.228 162.669C422.498 162.882 422.774 163.089 423.05 163.296C423.055 163.298 423.057 163.3 423.059 163.3C423.1 163.334 423.142 163.363 423.183 163.394C425.066 164.796 427.2 163.59 427.2 163.59C427.2 163.59 427.002 163.141 428.856 166.005C430.709 168.87 439.64 174.206 444.81 174.43C446.49 174.502 448.02 173.776 449.314 172.646C452.008 170.301 453.684 166.221 453.57 163.983C453.401 160.669 454.525 157.355 454.749 152.413C454.974 147.47 453.457 143.37 448.683 138.652L441.718 139.382C441.718 139.382 424.344 145.897 423.744 146.421C423.144 146.946 420.093 154.547 419.738 157.58C419.476 159.816 420.449 161.15 421.734 162.262Z" fill="#FFCA7D"/>
<path d="M454.246 157.284C454.337 148.706 451.829 144.699 451.829 144.699C451.829 144.699 453.776 155.708 448.196 157.842C442.617 159.976 437.412 156.719 437.412 156.719L438.376 157.917C438.376 157.917 435.203 159.049 432.731 158.567C430.26 158.086 429.08 157.131 428.575 157.889C428.069 158.647 428.995 160.949 428.055 160.921C427.114 160.894 425.991 154.687 425.991 154.687C425.991 154.687 425.317 143.875 426.516 142.977C427.714 142.078 449.282 139.008 449.282 139.008C449.282 139.008 457.262 145.08 454.246 157.284Z" fill="#F4A769"/>
<path d="M449.282 139.008C452.764 149.042 450.474 157.99 442.673 157.692C433.836 157.355 433.461 148.481 433.461 148.481C433.461 148.481 432.731 153.648 436.476 156.544C436.476 156.544 430.671 158.591 428.949 156.756C427.227 154.922 427.526 158.928 427.976 160.463C428.425 161.999 426.852 161.212 426.291 158.404C425.729 155.596 425.242 154.398 422.77 154.173C420.299 153.948 419.737 157.58 419.737 157.58C419.737 157.58 415.356 139.42 428.462 135.226C441.569 131.032 448.009 135.338 449.282 139.008Z" fill="#252525"/>
<path d="M423.06 163.3C423.1 163.334 423.143 163.363 423.183 163.394C425.066 164.796 427.2 163.59 427.2 163.59C427.2 163.59 427.002 163.141 428.856 166.005C430.709 168.87 439.64 174.206 444.81 174.43C446.491 174.502 448.021 173.776 449.315 172.646C443.628 175.385 440.258 172.689 436.438 170.555C432.619 168.42 427.396 162.86 427.396 162.86C427.396 162.86 424.969 164.275 423.06 163.3Z" fill="#F4A769"/>
<path d="M421.734 162.262C421.893 162.399 422.06 162.536 422.228 162.669C422.048 162.476 421.884 162.343 421.734 162.262Z" fill="#F4A769"/>
<path d="M398.862 208.411C398.945 208.503 399.04 208.77 399.143 209.188C399.983 212.556 401.549 225.632 404.647 234.529C408.13 244.526 414.308 247.896 418.577 245.874C422.846 243.852 424.531 230.485 427.115 218.69C427.321 217.748 427.521 216.845 427.715 215.978C427.717 215.962 427.722 215.944 427.726 215.928C427.733 215.901 427.74 215.874 427.744 215.847C427.751 215.823 427.755 215.8 427.76 215.782C427.769 215.742 427.776 215.715 427.778 215.699C427.78 215.686 427.782 215.681 427.782 215.681C429.986 205.881 431.383 200.941 431.383 200.941C432.581 192.403 424.942 188.209 420.076 188.959C415.207 189.707 414.832 197.87 413.785 205.209C412.736 212.549 412.437 217.64 412.437 217.64C412.437 217.64 412.435 217.636 412.432 217.627L406.371 202.363C406.371 202.363 406.22 207.98 402.026 208.355C397.934 208.721 398.763 207.16 398.804 207.083C398.752 207.121 398.136 207.602 398.862 208.411Z" fill="#EFEFEF"/>
<path d="M405.937 210.772C405.926 210.777 405.885 210.799 405.816 210.835C405.894 210.802 405.93 210.777 405.937 210.772Z" fill="#EFEFEF"/>
<path d="M405.802 210.842C405.308 211.087 403.585 211.864 402.345 211.388C400.884 210.826 400.21 210.658 400.21 210.658C400.21 210.658 403.841 235.091 408.354 240.37C412.868 245.65 419.121 250.514 423.183 234.304C426.517 220.995 427.477 216.987 427.714 215.978C427.522 216.845 427.321 217.748 427.115 218.69C424.531 230.485 422.846 243.853 418.577 245.875C414.308 247.897 408.13 244.527 404.647 234.529C401.549 225.632 399.983 212.557 399.143 209.189C399.143 209.189 401.389 211.051 403.412 211.107C404.874 211.148 405.544 210.952 405.802 210.842Z" fill="white"/>
<path d="M398.804 207.083C398.763 207.16 397.934 208.721 402.025 208.355C406.22 207.98 406.37 202.363 406.37 202.363L412.432 217.627C412.435 217.636 412.437 217.641 412.437 217.641L421.26 238.881C420.882 238.09 412.789 221.132 410.376 215.207C407.905 209.141 407.231 206.558 407.231 206.558C407.231 206.558 405.546 208.804 403.468 209.197C401.39 209.59 399.143 209.188 399.143 209.188C399.04 208.77 398.945 208.503 398.862 208.411C398.136 207.602 398.752 207.121 398.804 207.083Z" fill="white"/>
<path d="M403.299 195.474C404.647 199.293 400.079 202.214 395.211 200.716C390.343 199.219 384.727 196.972 380.533 194.051C376.339 191.131 375.384 188.921 375.384 188.584C375.384 188.247 375.693 188.135 375.693 188.135C375.693 188.135 372.332 185.289 372.22 184.316C372.108 183.342 373.642 183.267 373.642 183.267C373.642 183.267 371.246 181.095 371.359 180.272C371.471 179.448 374.467 180.272 374.467 180.272C374.467 180.272 374.205 178.774 375.365 178.549C376.526 178.325 379.147 180.946 379.934 181.62C380.72 182.294 385.738 187.012 388.696 187.985C391.654 188.959 393.789 189.97 394.35 189.296C394.912 188.622 391.093 184.652 390.493 182.893C389.894 181.133 390.418 179.523 391.579 179.859C392.74 180.197 397.233 185.383 399.143 188.584C401.053 191.786 403.299 195.474 403.299 195.474Z" fill="#FFCA7D"/>
<path d="M491.259 202.364C490.285 205.584 488.038 211.126 486.728 212.886C485.417 214.646 482.721 216.93 480.1 215.657C477.479 214.384 477.329 213.148 477.329 213.148C477.329 213.148 474.933 210.939 474.858 208.318C474.783 205.697 474.333 204.124 473.959 201.241C473.585 198.357 473.21 196.785 474.221 196.223C475.232 195.661 476.018 196.747 476.355 197.908C476.693 199.069 476.73 201.915 477.741 202.476C478.752 203.038 481.449 198.47 482.16 194.95C482.871 191.43 483.339 188.837 484.8 188.978C486.26 189.118 485.642 190.775 485.726 191.87C485.811 192.965 485.614 194.566 485.614 194.566C485.614 194.566 485.755 191.87 486.794 191.056C487.833 190.241 488.507 190.971 488.423 192.263C488.338 193.555 488.282 195.437 488.31 195.521C488.338 195.605 489.321 194.566 489.771 194.819C490.22 195.071 490.445 196.588 490.164 197.543C489.883 198.498 489.518 200.688 489.518 200.688C489.518 200.688 490.81 199.958 491.259 200.323C491.708 200.688 491.259 202.364 491.259 202.364Z" fill="#FFCA7D"/>
<g opacity="0.5">
<path d="M373.896 418.448H186.806L191.755 413.407H369.855L373.896 418.448Z" fill="#545454"/>
<path opacity="0.9821" d="M374.395 419.069H186.196L191.227 413.945H370.287L374.395 419.069Z" fill="#545454"/>
<path opacity="0.9643" d="M374.893 419.691H185.585L190.698 414.484H370.719L374.893 419.691Z" fill="#545454"/>
<path opacity="0.9464" d="M375.391 420.312H184.976L190.169 415.022H371.15L375.391 420.312Z" fill="#545454"/>
<path opacity="0.9286" d="M375.89 420.932H184.366L189.641 415.561H371.583L375.89 420.932Z" fill="#545454"/>
<path opacity="0.9107" d="M376.39 421.554H183.757L189.112 416.099H372.014L376.39 421.554Z" fill="#545454"/>
<path opacity="0.8929" d="M376.889 422.176H183.147L188.584 416.637H372.447L376.889 422.176Z" fill="#545454"/>
<path opacity="0.875" d="M377.387 422.798H182.536L188.055 417.176H372.878L377.387 422.798Z" fill="#545454"/>
<path opacity="0.8571" d="M377.886 423.421H181.926L187.527 417.715H373.311L377.886 423.421Z" fill="#545454"/>
<path opacity="0.8393" d="M378.384 424.041H181.316L186.998 418.252H373.742L378.384 424.041Z" fill="#545454"/>
<path opacity="0.8214" d="M378.884 424.663H180.707L186.47 418.791H374.175L378.884 424.663Z" fill="#545454"/>
<path opacity="0.8036" d="M379.383 425.284H180.097L185.941 419.33H374.607L379.383 425.284Z" fill="#545454"/>
<path opacity="0.7857" d="M379.88 425.905H179.487L185.413 419.868H375.037L379.88 425.905Z" fill="#545454"/>
<path opacity="0.7679" d="M380.38 426.526H178.876L184.885 420.407H375.47L380.38 426.526Z" fill="#545454"/>
<path opacity="0.75" d="M380.878 427.148H178.266L184.356 420.946H375.903L380.878 427.148Z" fill="#545454"/>
<path opacity="0.7321" d="M381.377 427.77H177.657L183.828 421.483H376.334L381.377 427.77Z" fill="#545454"/>
<path opacity="0.7143" d="M381.876 428.391H177.047L183.299 422.022H376.767L381.876 428.391Z" fill="#545454"/>
<path opacity="0.6964" d="M382.374 429.013H176.437L182.771 422.56H377.198L382.374 429.013Z" fill="#545454"/>
<path opacity="0.6786" d="M382.874 429.634H175.827L182.242 423.098H377.629L382.874 429.634Z" fill="#545454"/>
<path opacity="0.6607" d="M383.373 430.256H175.217L181.714 423.637H378.062L383.373 430.256Z" fill="#545454"/>
<path opacity="0.6429" d="M383.872 430.878H174.607L181.185 424.176H378.495L383.872 430.878Z" fill="#545454"/>
<path opacity="0.625" d="M384.37 431.5H173.998L180.656 424.715H378.926L384.37 431.5Z" fill="#545454"/>
<path opacity="0.6071" d="M384.868 432.121H173.388L180.128 425.253H379.359L384.868 432.121Z" fill="#545454"/>
<path opacity="0.5893" d="M385.367 432.742H172.777L179.599 425.79H379.79L385.367 432.742Z" fill="#545454"/>
<path opacity="0.5714" d="M385.866 433.363H172.168L179.072 426.33H380.223L385.866 433.363Z" fill="#545454"/>
<path opacity="0.5536" d="M386.366 433.985H171.557L178.542 426.867H380.654L386.366 433.985Z" fill="#545454"/>
<path opacity="0.5357" d="M386.864 434.607H170.948L178.014 427.407H381.087L386.864 434.607Z" fill="#545454"/>
<path opacity="0.5179" d="M387.363 435.227H170.338L177.486 427.944H381.518L387.363 435.227Z" fill="#545454"/>
<path opacity="0.5" d="M387.862 435.848H169.728L176.957 428.482H381.95L387.862 435.848Z" fill="#545454"/>
<path opacity="0.4821" d="M388.36 436.47H169.118L176.429 429.02H382.382L388.36 436.47Z" fill="#545454"/>
<path opacity="0.4643" d="M388.859 437.092H168.509L175.9 429.56H382.813L388.859 437.092Z" fill="#545454"/>
<path opacity="0.4464" d="M389.357 437.714H167.898L175.372 430.099H383.246L389.357 437.714Z" fill="#545454"/>
<path opacity="0.4286" d="M389.857 438.335H167.289L174.843 430.637H383.677L389.857 438.335Z" fill="#545454"/>
<path opacity="0.4107" d="M390.356 438.957H166.679L174.315 431.176H384.11L390.356 438.957Z" fill="#545454"/>
<path opacity="0.3929" d="M390.854 439.578H166.068L173.786 431.714H384.541L390.854 439.578Z" fill="#545454"/>
<path opacity="0.375" d="M391.353 440.2H165.458L173.258 432.253H384.974L391.353 440.2Z" fill="#545454"/>
<path opacity="0.3571" d="M391.851 440.82H164.848L172.729 432.791H385.406L391.851 440.82Z" fill="#545454"/>
<path opacity="0.3393" d="M392.352 441.442H164.239L172.202 433.329H385.838L392.352 441.442Z" fill="#545454"/>
<path opacity="0.3214" d="M392.849 442.064H163.629L171.673 433.868H386.269L392.849 442.064Z" fill="#545454"/>
<path opacity="0.3036" d="M393.347 442.685H163.019L171.145 434.406H386.702L393.347 442.685Z" fill="#545454"/>
<path opacity="0.2857" d="M393.847 443.307H162.41L170.616 434.945H387.133L393.847 443.307Z" fill="#545454"/>
<path opacity="0.2679" d="M394.346 443.928H161.8L170.087 435.483H387.566L394.346 443.928Z" fill="#545454"/>
<path opacity="0.25" d="M394.844 444.55H161.189L169.559 436.021H387.997L394.844 444.55Z" fill="#545454"/>
<path opacity="0.2321" d="M395.343 445.172H160.58L169.03 436.56H388.43L395.343 445.172Z" fill="#545454"/>
<path opacity="0.2143" d="M395.842 445.792H159.97L168.502 437.098H388.861L395.842 445.792Z" fill="#545454"/>
<path opacity="0.1964" d="M396.34 446.414H159.36L167.973 437.636H389.294L396.34 446.414Z" fill="#545454"/>
<path opacity="0.1786" d="M396.84 447.036H158.75L167.444 438.175H389.725L396.84 447.036Z" fill="#545454"/>
<path opacity="0.1607" d="M397.338 447.657H158.14L166.916 438.713H390.158L397.338 447.657Z" fill="#545454"/>
<path opacity="0.1429" d="M397.837 448.279H157.53L166.388 439.252H390.589L397.837 448.279Z" fill="#545454"/>
<path opacity="0.125" d="M398.336 448.9H156.92L165.859 439.79H391.022L398.336 448.9Z" fill="#545454"/>
<path opacity="0.1071" d="M398.834 449.522H156.31L165.33 440.329H391.453L398.834 449.522Z" fill="#545454"/>
<path opacity="0.0893" d="M399.333 450.144H155.701L164.803 440.867H391.885L399.333 450.144Z" fill="#545454"/>
<path opacity="0.0714" d="M399.832 450.764H155.091L164.273 441.405H392.317L399.832 450.764Z" fill="#545454"/>
<path opacity="0.0536" d="M400.332 451.386H154.48L163.746 441.943H392.75L400.332 451.386Z" fill="#545454"/>
<path opacity="0.0357" d="M400.83 452.008H153.87L163.217 442.482H393.181L400.83 452.008Z" fill="#545454"/>
<path opacity="0.0179" d="M401.328 452.629H153.261L162.688 443.021H393.614L401.328 452.629Z" fill="#545454"/>
</g>
</svg>
