<svg width="699" height="512" viewBox="0 0 699 512" fill="none" xmlns="http://www.w3.org/2000/svg">
<g clip-path="url(#clip0_6009_700)">
<path opacity="0.7" d="M572.472 487.031H112.694V490.061H572.472V487.031Z" fill="url(#paint0_linear_6009_700)"/>
<path opacity="0.2" d="M482.152 487.682C482.152 487.682 573.933 450.446 526.31 333.524C478.688 216.602 483.018 193.224 495.131 148.189C507.245 103.154 475.226 6.15797 368.721 34.7369C262.216 63.3158 191.219 179.368 231.905 247.785C272.592 316.202 145.751 380.29 243.811 487.247L482.152 487.682Z" fill="#F9D58C"/>
<path d="M301.388 468.48C299.778 475.274 296.407 481.523 291.615 486.6H270.209L270.09 486.635C269.995 486.654 269.899 486.664 269.802 486.665C269.682 486.666 269.562 486.644 269.45 486.6H233.546C231.029 483.935 228.893 480.935 227.198 477.684C226.812 476.958 226.46 476.221 226.128 475.471C222.54 467.464 221.705 458.494 223.754 449.962C224.111 448.478 224.551 447.015 225.071 445.58V445.58C225.413 444.607 225.797 443.667 226.216 442.736C228.663 437.346 232.275 432.567 236.793 428.744C241.31 424.92 246.62 422.148 252.339 420.627L255.075 438.384L255.308 437.313L255.773 435.037L257.847 425.107L259.024 419.461C264.713 418.953 270.444 419.674 275.831 421.574C281.217 423.474 286.133 426.509 290.245 430.473L279.835 442.093L280.37 441.861L283.085 440.727L294.875 435.81C298.253 440.463 300.584 445.792 301.708 451.432C302.832 457.071 302.723 462.887 301.388 468.48Z" fill="#7BD6CB"/>
<path opacity="0.5" d="M297.625 449.608C287.899 458.901 272.175 461.058 269.097 461.4C263.947 469.488 259.34 477.91 255.308 486.609H251.718C252.304 484.452 253.416 479.844 254.293 472.574C254.677 469.376 255.019 465.657 255.254 461.403C255.299 460.644 255.341 459.874 255.373 459.075C255.293 459.066 255.214 459.045 255.14 459.013C255.028 458.981 254.926 458.922 254.843 458.84C251.716 455.989 248.883 452.83 246.387 449.413C245.938 448.824 245.51 448.214 245.084 447.572C243.062 444.588 241.128 441.158 239.814 437.446C239.558 436.748 239.323 436.015 239.116 435.288C238.827 434.262 238.581 433.224 238.388 432.165C238.361 432.027 238.363 431.886 238.392 431.749C238.421 431.611 238.477 431.481 238.556 431.366C238.636 431.251 238.738 431.152 238.856 431.076C238.974 431.001 239.106 430.949 239.244 430.925C239.523 430.875 239.81 430.937 240.044 431.097C240.278 431.257 240.439 431.503 240.493 431.781C240.624 432.479 240.772 433.192 240.959 433.887C241.149 434.634 241.375 435.384 241.622 436.11C244.989 445.968 252.951 454.102 255.473 456.52C255.645 450.907 255.622 444.523 255.313 437.318C255.292 436.892 255.271 436.452 255.25 436.015C255.24 435.732 255.341 435.458 255.53 435.248C255.719 435.039 255.983 434.911 256.264 434.893C256.405 434.884 256.546 434.903 256.679 434.95C256.812 434.996 256.934 435.069 257.039 435.164C257.143 435.258 257.228 435.373 257.287 435.501C257.347 435.628 257.381 435.767 257.386 435.907C257.793 444.193 257.814 451.43 257.588 457.663C257.559 458.519 257.527 459.353 257.493 460.165C257.356 463.127 257.162 465.832 256.937 468.31V468.331V468.343C256.541 473.07 255.877 477.771 254.947 482.423C261.914 468.017 270.442 454.421 280.379 441.879V441.879C280.7 441.463 281.031 441.058 281.363 440.639C281.452 440.529 281.561 440.438 281.684 440.371C281.808 440.304 281.943 440.262 282.083 440.247C282.223 440.232 282.364 440.244 282.499 440.284C282.634 440.324 282.76 440.39 282.869 440.478C282.963 440.551 283.043 440.642 283.102 440.746C283.22 440.933 283.277 441.152 283.264 441.374C283.25 441.595 283.168 441.806 283.027 441.977C278.346 447.781 274.218 453.532 270.628 459.029C275.695 458.247 288.244 455.617 296.153 448.07C296.253 447.971 296.372 447.892 296.503 447.839C296.634 447.787 296.775 447.76 296.916 447.762C297.057 447.764 297.197 447.794 297.326 447.851C297.456 447.907 297.573 447.988 297.671 448.09C297.768 448.192 297.845 448.313 297.896 448.445C297.947 448.576 297.971 448.717 297.967 448.858C297.963 448.999 297.931 449.138 297.873 449.267C297.814 449.396 297.731 449.512 297.628 449.608H297.625Z" fill="#01C2AF"/>
<path opacity="0.2" d="M259.343 419.449L259.028 419.472L257.851 425.118L255.778 435.049L255.313 437.325L255.08 438.395L252.344 420.638C246.625 422.16 241.315 424.932 236.797 428.755C232.279 432.579 228.667 437.358 226.221 442.747C225.802 443.678 225.418 444.609 225.076 445.591C224.555 447.026 224.116 448.489 223.759 449.973C221.713 458.498 222.546 467.46 226.128 475.462V475.462C226.46 476.211 226.812 476.949 227.198 477.675C228.893 480.925 231.029 483.926 233.545 486.591H251.383C256.036 481.443 261.5 473.633 266.221 462.115C274.979 440.755 263.891 424.769 259.343 419.449Z" fill="#01948E"/>
<path opacity="0.5" d="M243.241 486.609H241.07L240.856 485.488L239.586 478.711C239.419 478.709 239.256 478.667 239.109 478.589C238.962 478.511 238.836 478.399 238.741 478.262L234.893 472.799L233.664 471.033L232.671 469.637L231.356 467.775L223.712 456.904C223.55 456.671 223.487 456.384 223.537 456.104C223.586 455.825 223.745 455.577 223.978 455.415C224.21 455.252 224.498 455.189 224.777 455.239C225.056 455.289 225.304 455.447 225.467 455.68L232.65 465.89L233.964 467.763L235.546 470.007L236.775 471.759L238.839 474.689L238.141 471L237.724 468.787L236.763 463.646L236.207 460.674L234.625 452.259C234.584 452.116 234.572 451.965 234.593 451.817C234.613 451.669 234.663 451.527 234.742 451.4C234.82 451.273 234.924 451.163 235.047 451.079C235.17 450.994 235.309 450.936 235.456 450.909C235.602 450.881 235.753 450.885 235.898 450.919C236.044 450.953 236.18 451.017 236.299 451.107C236.418 451.198 236.517 451.312 236.589 451.442C236.662 451.573 236.706 451.717 236.719 451.866L237.883 458.149L238.45 461.123L239.679 467.675L240.095 469.888L242.778 484.215L243.241 486.609Z" fill="#01C2AF"/>
<path d="M262.652 445.803C262.664 453.666 260.697 461.405 256.932 468.308V468.329V468.34C256.138 469.801 255.261 471.215 254.303 472.574C251.176 477.092 247.283 481.03 242.802 484.21C242.171 484.65 241.52 485.087 240.866 485.492C240.268 485.888 239.658 486.253 239.039 486.614H212.779C212.5 486.968 212.211 487.312 211.89 487.664C211.955 487.331 212.009 486.979 212.062 486.614H200.156L199.728 488.506L199.395 489.972C198.723 489.726 198.05 489.46 197.387 489.181L197.964 486.621H192.212C191.454 486.184 190.695 485.725 189.969 485.225C189.146 484.692 188.341 484.136 187.554 483.547C187.254 483.314 186.965 483.109 186.677 482.874C185.182 481.71 183.761 480.455 182.421 479.116C182.421 479.116 182.421 479.116 182.421 479.095C178.612 475.305 175.482 470.89 173.165 466.041C172.791 465.261 172.448 464.479 172.127 463.688C171.571 462.364 171.086 461.012 170.673 459.636V459.636C170.093 457.773 169.636 455.872 169.305 453.949C169.3 453.924 169.3 453.899 169.305 453.874V453.874C169.231 453.478 169.165 453.071 169.112 452.664C167.558 442.13 169.627 431.38 174.98 422.177C179.356 414.67 185.716 408.514 193.362 404.387L199.956 420.594L201.352 423.994L201.245 420.166L200.698 401.231C207.081 399.091 213.848 398.348 220.543 399.052C227.238 399.757 233.703 401.893 239.5 405.315L232.005 419.149L230.744 421.476L232.999 419.847L246.287 410.182C251.115 414.34 255.052 419.432 257.861 425.151C261.025 431.574 262.665 438.642 262.652 445.803V445.803Z" fill="#F9D58C"/>
<path opacity="0.2" d="M251.792 425.386C249.056 429.617 245.412 433.189 241.617 436.117C241.017 436.582 240.419 437.027 239.821 437.453C235.229 440.708 230.284 443.434 225.081 445.58V445.58C223.817 446.103 222.877 446.455 222.333 446.648C221.701 448.465 221.11 450.249 220.557 452.001C219.971 453.817 219.423 455.585 218.912 457.304C218.389 459.048 217.907 460.746 217.449 462.394C215.232 470.362 213.437 478.441 212.071 486.598H209.912C210.067 485.636 210.249 484.567 210.457 483.391C210.181 483.356 209.929 483.215 209.756 482.998C209.582 482.78 209.5 482.504 209.526 482.227C209.526 482.143 209.877 478.764 209.493 472.071C209.44 471.11 209.365 470.072 209.279 468.959C208.958 465.003 208.402 460.193 207.474 454.484C207.42 454.163 207.367 453.83 207.313 453.499C207.004 451.661 206.65 449.736 206.266 447.728C206.189 447.743 206.112 447.754 206.033 447.76C205.861 447.758 205.691 447.713 205.54 447.63C203.742 446.656 201.994 445.593 200.302 444.444C199.737 444.06 199.139 443.643 198.518 443.203C194.818 440.595 191.376 437.639 188.238 434.376C187.747 433.862 187.265 433.338 186.784 432.794C183.908 429.535 181.29 425.791 179.473 421.644C179.473 421.644 179.473 421.644 179.473 421.62C179.417 421.492 179.387 421.354 179.384 421.214C179.381 421.074 179.406 420.935 179.457 420.804C179.508 420.674 179.585 420.555 179.682 420.454C179.779 420.353 179.895 420.272 180.023 420.216C180.152 420.16 180.29 420.13 180.43 420.127C180.57 420.124 180.709 420.149 180.839 420.2C180.97 420.251 181.089 420.328 181.19 420.425C181.291 420.522 181.371 420.638 181.427 420.766C181.546 421.034 181.66 421.302 181.79 421.567C183.228 424.555 185.03 427.352 187.156 429.896C187.894 430.794 188.664 431.66 189.443 432.493C192.512 435.728 195.884 438.661 199.514 441.251C200.133 441.7 200.733 442.117 201.298 442.503C203.297 443.86 204.912 444.83 205.787 445.326C205.2 442.426 204.516 439.353 203.735 436.108C203.49 435.072 203.234 434.013 202.955 432.945C202.452 430.934 201.908 428.87 201.326 426.733C200.861 425.011 200.354 423.259 199.83 421.45C199.789 421.306 199.779 421.154 199.799 421.006C199.819 420.857 199.869 420.713 199.946 420.585C200.086 420.36 200.303 420.194 200.556 420.119C200.778 420.057 201.014 420.065 201.231 420.143V420.143C201.388 420.197 201.53 420.289 201.643 420.411C201.757 420.532 201.839 420.68 201.882 420.841C202.63 423.416 203.328 425.914 203.977 428.335C208.411 444.979 210.401 457.658 211.245 466.565C211.341 467.635 211.427 468.659 211.492 469.623C211.694 472.306 211.781 474.552 211.811 476.39C212.453 473.386 213.233 470.018 214.163 466.362V466.351C214.57 464.747 215.008 463.092 215.49 461.382C216.613 457.316 217.926 452.966 219.445 448.4C222.713 438.616 226.576 429.041 231.012 419.728C231.098 419.546 231.234 419.392 231.404 419.284C231.574 419.176 231.771 419.119 231.973 419.119C232.134 419.117 232.294 419.153 232.438 419.226C232.562 419.282 232.674 419.363 232.765 419.465C232.857 419.566 232.927 419.685 232.971 419.814C233.024 419.948 233.049 420.091 233.044 420.234C233.039 420.378 233.004 420.519 232.94 420.648C229.31 428.264 226.071 436.062 223.235 444.009C224.047 443.676 225.053 443.259 226.207 442.736C230.742 440.692 235.061 438.197 239.097 435.288C239.716 434.849 240.326 434.378 240.935 433.892C244.344 431.188 247.562 427.969 249.977 424.227C250.132 423.989 250.374 423.821 250.652 423.762C250.929 423.703 251.219 423.756 251.457 423.91C251.695 424.065 251.863 424.307 251.922 424.585C251.981 424.862 251.928 425.152 251.774 425.391L251.792 425.386Z" fill="#F2A408"/>
<path opacity="0.2" d="M258.973 459.338L257.486 460.172L255.252 461.412L240.109 469.876L238.131 470.977L236.763 471.736L234.902 472.785L230.423 475.285C230.268 475.377 230.091 475.426 229.911 475.425C229.742 475.421 229.576 475.379 229.426 475.301C229.275 475.223 229.145 475.112 229.045 474.975L227.207 477.68L221.157 486.596H218.561L226.128 475.467L231.356 467.782L232.638 465.89L236.198 460.663L237.896 458.149L244.972 447.737C245.006 447.686 245.046 447.639 245.091 447.597V447.597C245.276 447.401 245.529 447.282 245.798 447.264C246.067 447.247 246.333 447.332 246.542 447.503C246.751 447.674 246.887 447.918 246.923 448.186C246.959 448.453 246.892 448.725 246.736 448.945L246.394 449.448L238.464 461.133L236.754 463.644L233.962 467.773L232.68 469.644L230.541 472.797L233.673 471.042L235.535 470.007L237.715 468.776L239.693 467.675L255.147 459.038L257.584 457.679L257.928 457.486C258.174 457.353 258.463 457.321 258.733 457.399C259.002 457.477 259.23 457.657 259.367 457.902C259.504 458.146 259.54 458.435 259.467 458.705C259.394 458.976 259.217 459.206 258.975 459.348L258.973 459.338Z" fill="#F2A408"/>
<path opacity="0.2" d="M228.122 449.576C223.033 432.23 212.034 423.999 201.238 420.231L201.342 423.973L199.946 420.573L199.588 419.691C191.137 417.078 183.005 417.073 178.144 417.424C176.993 418.94 175.935 420.524 174.975 422.167V422.167C169.622 431.371 167.553 442.121 169.107 452.655C169.16 453.062 169.226 453.469 169.3 453.865C169.296 453.889 169.296 453.915 169.3 453.939C169.631 455.863 170.088 457.763 170.668 459.627C171.081 461.002 171.567 462.355 172.123 463.679C172.444 464.47 172.786 465.252 173.16 466.032C175.477 470.884 178.61 475.302 182.421 479.095C182.421 479.095 182.421 479.095 182.421 479.116C183.761 480.453 185.182 481.707 186.677 482.87C186.965 483.102 187.254 483.319 187.554 483.542C188.333 484.131 189.145 484.687 189.969 485.22C190.695 485.713 191.454 486.172 192.212 486.616H197.964L197.387 489.176C198.05 489.456 198.722 489.721 199.395 489.968L199.728 488.502L200.156 486.609H212.062C212.008 486.975 211.955 487.326 211.89 487.659C212.211 487.317 212.499 486.961 212.779 486.609H223.54C228.957 479.651 233.464 467.782 228.122 449.576Z" fill="#F2A408"/>
<path d="M212.779 486.609H150.751C149.671 485.284 148.685 483.884 147.801 482.42C147.512 481.98 147.256 481.534 147 481.073C146.087 479.453 145.29 477.77 144.615 476.037C141.983 469.32 141.22 462.015 142.408 454.899C143.597 447.783 146.691 441.123 151.363 435.626L161.48 446.264L163.746 448.647L162.408 445.505L156.189 430.857C159.496 428.101 163.223 425.892 167.229 424.315C169.727 423.329 172.321 422.605 174.968 422.156C176.452 421.889 177.951 421.718 179.457 421.644C180.227 421.588 180.997 421.567 181.765 421.567C183.885 421.566 186.002 421.738 188.094 422.081L187.131 429.896L186.768 432.794L186.479 435.156L186.179 437.562L187.54 435.433L188.224 434.376L189.42 432.493L194.958 423.834C197.163 424.605 199.295 425.571 201.329 426.722C202.236 427.224 203.113 427.757 203.979 428.335C210.751 432.857 215.971 439.35 218.933 446.936C219.124 447.427 219.308 447.909 219.466 448.4C219.887 449.579 220.247 450.778 220.546 451.994C222.004 457.972 222.062 464.207 220.715 470.211C219.368 476.216 216.652 481.828 212.779 486.609Z" fill="#7BD6CB"/>
<path opacity="0.5" d="M204.195 434.192C204.067 434.835 203.916 435.477 203.73 436.105C203.124 438.31 202.309 440.452 201.294 442.501C200.984 443.164 200.642 443.804 200.288 444.435C196.591 451.16 191.514 456.408 188.864 458.91C188.275 459.467 187.805 459.883 187.496 460.151C187.496 460.504 187.528 460.849 187.538 461.186C187.645 463.358 187.77 465.452 187.922 467.486C187.999 468.534 188.081 469.559 188.168 470.563C188.659 476.111 189.301 481.061 189.964 485.225C190.039 485.69 190.113 486.156 190.197 486.621H185.969C185.115 484.622 183.95 482.111 182.412 479.106C180.529 475.471 178.072 471.121 174.908 466.106C174.774 466.182 174.624 466.223 174.47 466.225C174.428 466.231 174.385 466.231 174.342 466.225C174.235 466.225 173.828 466.16 173.156 466.064C168.923 465.424 154.525 462.655 145.599 453.707C145.399 453.504 145.287 453.231 145.287 452.947C145.287 452.662 145.399 452.389 145.599 452.187C145.698 452.088 145.816 452.009 145.945 451.955C146.075 451.902 146.213 451.874 146.353 451.874C146.493 451.874 146.632 451.902 146.761 451.955C146.891 452.009 147.008 452.088 147.107 452.187C154.718 459.811 166.934 462.762 172.118 463.711C172.674 463.809 173.144 463.895 173.514 463.944C172.616 462.563 171.664 461.134 170.659 459.655C168.041 455.817 165.049 451.67 161.629 447.234C161.526 447.101 161.457 446.945 161.429 446.779C161.401 446.613 161.414 446.442 161.468 446.282C161.524 446.065 161.652 445.873 161.831 445.738C161.993 445.61 162.191 445.535 162.397 445.524C162.573 445.507 162.751 445.536 162.914 445.607C163.077 445.677 163.219 445.788 163.327 445.929C165.476 448.721 167.464 451.398 169.291 453.958C178.421 466.702 183.717 476.483 186.672 482.888C187.109 483.84 187.505 484.715 187.847 485.518C187.752 484.887 187.645 484.233 187.549 483.561C186.895 479.22 186.286 474.154 185.848 468.517C185.762 467.524 185.688 466.509 185.616 465.492C185.423 462.466 185.274 459.313 185.208 456.02C185.176 454.267 185.155 452.471 185.155 450.653C185.176 445.999 185.348 441.139 185.711 436.124C185.726 435.909 185.807 435.705 185.943 435.538C186.079 435.372 186.263 435.251 186.47 435.193C186.594 435.151 186.725 435.136 186.856 435.149C187.136 435.176 187.394 435.31 187.577 435.524C187.76 435.737 187.854 436.013 187.838 436.294C187.356 443.062 187.228 449.529 187.347 455.58C187.347 456.178 187.368 456.778 187.389 457.365C187.561 457.204 187.731 457.035 187.924 456.853C190.595 454.244 195.17 449.315 198.495 443.231C198.848 442.591 199.179 441.949 199.5 441.286C200.669 438.909 201.538 436.395 202.087 433.804C202.13 433.596 202.235 433.405 202.387 433.257C202.539 433.108 202.732 433.009 202.941 432.971C203.075 432.936 203.215 432.936 203.348 432.971C203.62 433.024 203.861 433.182 204.019 433.41C204.177 433.638 204.24 433.919 204.195 434.192V434.192Z" fill="#01C2AF"/>
<path opacity="0.5" d="M220.348 458.868L217.451 462.397L214.194 466.353V466.365L211.522 469.623L209.512 472.071L202.734 480.314C202.635 480.437 202.51 480.536 202.368 480.604C202.226 480.673 202.07 480.709 201.913 480.71C201.785 480.706 201.658 480.681 201.538 480.635L200.545 485.018L200.182 486.609H197.964L198.274 485.241L199.065 481.75L205.403 453.879C205.434 453.742 205.491 453.614 205.572 453.5C205.652 453.385 205.755 453.288 205.873 453.214C205.991 453.14 206.123 453.089 206.261 453.066C206.399 453.043 206.54 453.047 206.676 453.078C206.929 453.129 207.155 453.273 207.306 453.483C207.396 453.606 207.458 453.747 207.489 453.897C207.521 454.046 207.52 454.2 207.488 454.349L207.467 454.468L202.199 477.556L209.263 468.959L211.241 466.565L215.494 461.382L218.68 457.512C218.743 457.435 218.815 457.366 218.894 457.307C219.084 457.173 219.314 457.107 219.546 457.119C219.778 457.131 220 457.22 220.176 457.372C220.286 457.458 220.378 457.566 220.446 457.688C220.515 457.81 220.558 457.945 220.574 458.084C220.59 458.223 220.579 458.364 220.54 458.499C220.501 458.634 220.436 458.759 220.348 458.868V458.868Z" fill="#01C2AF"/>
<path opacity="0.5" d="M162.41 482.183L176.274 487.247H171.208L161.924 483.854L161.803 483.81C161.599 483.735 161.431 483.585 161.332 483.39C161.234 483.196 161.214 482.972 161.275 482.763C161.277 482.741 161.283 482.721 161.294 482.702C161.332 482.594 161.392 482.495 161.469 482.41C161.547 482.326 161.64 482.257 161.744 482.209C161.848 482.161 161.96 482.134 162.074 482.129C162.189 482.125 162.303 482.143 162.41 482.183V482.183Z" fill="#01C2AF"/>
<path opacity="0.5" d="M155.456 470.789L171.511 486.614H168.486L153.96 472.311C153.853 472.213 153.768 472.095 153.708 471.964C153.648 471.833 153.616 471.691 153.613 471.546C153.609 471.402 153.635 471.259 153.688 471.125C153.742 470.991 153.822 470.869 153.923 470.767C154.025 470.664 154.146 470.584 154.28 470.529C154.414 470.475 154.557 470.449 154.701 470.451C154.845 470.454 154.987 470.485 155.119 470.544C155.251 470.603 155.369 470.688 155.467 470.793L155.456 470.789Z" fill="#01C2AF"/>
<g opacity="0.3">
<path d="M470.358 486.761H205.633L205.51 486.586C203.702 484.032 202.553 481.07 202.165 477.964C201.778 474.858 202.164 471.705 203.289 468.785C204.414 465.864 206.244 463.267 208.614 461.224C210.985 459.182 213.824 457.757 216.879 457.076V457.037C216.879 436.324 233.734 419.456 254.452 419.456C260.727 419.443 266.904 421.009 272.416 424.009C277.928 427.009 282.597 431.347 285.994 436.624C290.58 434.765 295.54 434.017 300.469 434.44C305.399 434.862 310.16 436.445 314.362 439.057C318.564 441.67 322.09 445.239 324.651 449.473C327.212 453.707 328.737 458.487 329.1 463.423C335.52 462.102 342.197 462.992 348.047 465.948C349.645 459.977 352.905 454.584 357.449 450.395C361.992 446.206 367.632 443.394 373.711 442.287C379.791 441.18 386.059 441.823 391.787 444.141C397.515 446.46 402.467 450.358 406.066 455.382C412.568 453.371 419.583 453.826 425.771 456.663C431.958 459.499 436.883 464.516 439.605 470.756C442.782 468.805 446.438 467.774 450.166 467.777C460.609 467.777 469.462 475.923 470.321 486.326L470.358 486.761ZM206.061 485.935H469.455C468.42 476.174 460.031 468.592 450.166 468.592C446.43 468.588 442.773 469.667 439.637 471.699L439.223 471.966L439.032 471.501C436.446 465.281 431.617 460.261 425.504 457.435C419.39 454.61 412.438 454.185 406.026 456.246L405.736 456.341L405.561 456.092C402.06 451.106 397.201 447.23 391.561 444.928C385.921 442.625 379.739 441.991 373.749 443.103C367.76 444.214 362.216 447.024 357.777 451.197C353.338 455.37 350.192 460.731 348.713 466.641L348.585 467.153L348.119 466.904C342.193 463.778 335.347 462.861 328.807 464.319L328.342 464.426L328.314 463.94C328.031 459.06 326.583 454.32 324.091 450.115C321.599 445.911 318.136 442.366 313.991 439.777C309.846 437.189 305.141 435.631 300.271 435.237C295.4 434.842 290.506 435.621 285.999 437.509L285.677 437.644L285.491 437.35C282.187 432.109 277.606 427.793 272.179 424.805C266.751 421.818 260.654 420.258 254.459 420.271C234.197 420.271 217.712 436.759 217.712 457.025L217.723 457.723L217.388 457.791C214.442 458.388 211.689 459.708 209.378 461.631C207.067 463.555 205.27 466.022 204.147 468.812C203.024 471.601 202.611 474.626 202.946 477.615C203.28 480.603 204.35 483.462 206.061 485.935V485.935Z" fill="#FF8B6A"/>
</g>
<path d="M347.726 444.018C368.465 452.734 376.146 442.156 377.463 439.966C371.471 439.315 358.304 438.707 347.726 444.018Z" fill="#C97D81"/>
<path d="M377.453 439.98C376.106 442.196 368.477 452.634 347.987 444.127C352.71 442.012 363.265 438.37 377.453 439.98Z" fill="#1D0738"/>
<path d="M348.554 444.018V457.209L365.291 452.529V437.955C365.291 437.955 348.554 438.812 348.554 444.018Z" fill="#FEC3C7"/>
<path d="M365.289 437.955C365.289 437.955 348.552 438.812 348.552 444.018V445.533C352.945 446.929 358.823 449.389 362.574 453.285L365.289 452.529V437.955Z" fill="#F7A1AA"/>
<path d="M349.322 455.831C349.322 455.831 343.817 463.267 345.744 471.249C345.744 471.249 346.442 475.38 347.328 476.756C347.328 476.756 350.288 489.698 367.422 483.365C384.557 477.033 397.496 467.395 402.45 458.859C407.404 450.323 381.253 446.746 375.199 449.499C369.144 452.252 364.463 452.524 364.463 452.524C364.463 452.524 350.919 456.106 349.322 455.831Z" fill="#1D0738"/>
<path d="M364.463 465.743C364.463 465.743 386.835 454.765 401.459 453.702C400.379 452.727 398.825 451.887 396.987 451.181C385.15 452.922 375.478 458.308 362.597 462.99C354.558 465.913 349.36 470.03 346.181 473.388C346.467 474.615 346.879 476.051 347.331 476.756C347.331 476.756 347.347 476.823 347.377 476.933C349.667 473.381 354.458 469.078 364.463 465.743Z" fill="white"/>
<path d="M401.457 453.702C386.835 454.765 364.461 465.743 364.461 465.743C354.455 469.078 349.664 473.381 347.373 476.933C347.801 478.448 351.461 489.267 367.42 483.365C384.555 477.033 397.494 467.395 402.448 458.859C403.611 456.862 403.053 455.138 401.457 453.702Z" fill="#010002"/>
<path d="M375.68 457.793C382.826 454.863 389.469 452.287 396.984 451.181C389.951 448.493 378.875 447.828 375.199 449.499C369.149 452.252 364.463 452.524 364.463 452.524C364.463 452.524 350.919 456.101 349.322 455.827C348.698 456.713 348.145 457.646 347.668 458.619C353.276 457.991 364.27 457.041 375.68 457.793Z" fill="#480032"/>
<path d="M245.894 282.722C245.894 282.722 243.432 264.199 231.824 265.851C220.215 267.504 225.171 282.375 217.74 293.383C210.308 304.391 214.435 319.542 219.941 323.405C225.446 327.268 224.897 309.762 224.897 309.762C224.897 309.762 230.556 287.751 245.894 282.722Z" fill="#1D0738"/>
<path d="M245.894 282.722C245.894 282.722 243.432 264.199 231.824 265.851C230.571 266.005 229.361 266.401 228.259 267.015C227.24 270.659 226.2 275.71 226.823 279.612C227.924 286.497 221.511 294.845 221.511 294.845C221.511 294.845 213.938 306.714 224.664 316.488C224.868 314.252 224.946 312.005 224.897 309.76C224.897 309.76 230.556 287.751 245.894 282.722Z" fill="#480032"/>
<path d="M377.677 439.585C377.677 439.585 377.602 439.734 377.444 439.98C363.251 438.37 352.701 442.012 347.977 444.127C347.07 443.755 346.144 443.341 345.185 442.889C345.185 442.889 342.428 391.957 331.148 355.884C319.867 319.811 305.553 299.99 305.553 299.99C305.553 299.99 277.475 344.874 264.806 350.103C252.137 355.333 243.334 346.799 243.334 346.799C243.334 346.799 225.72 329.453 221.59 313.486C221.59 313.486 218.84 293.662 244.986 281.272L252.7 293.662C252.7 293.662 253.458 271.907 266.705 253.461C279.951 235.015 302.251 230.333 302.251 230.333C302.251 230.333 310.016 242.516 329.256 247.852C348.496 253.189 353.99 249.53 353.99 249.53C353.99 249.53 356.179 256.491 353.99 263.373C351.8 270.255 354.965 282.37 354.965 282.37C354.965 282.37 373.547 323.119 376.297 369.101C379.047 415.083 377.677 439.585 377.677 439.585Z" fill="#01948E"/>
<g opacity="0.4">
<path d="M248.844 312.932C244.165 326.149 244.442 328.902 244.442 328.902C245.542 314.033 262.333 319.542 263.71 305.499C265.087 291.456 269.76 290.355 279.677 280.443C289.593 270.532 282.155 267.778 287.385 250.061C292.616 232.343 301.423 236.979 301.423 236.979C301.423 236.979 301.7 245.476 321.245 251.534C335.355 255.907 348.315 253.198 354.432 251.352C354.199 250.21 355.791 248.641 355.791 248.641C355.791 248.641 343.954 251.946 329.265 247.85C310.023 242.502 302.251 230.333 302.251 230.333C302.251 230.333 279.953 235.013 266.709 253.461C256.455 267.746 253.679 284.002 252.953 290.616C253.223 296.96 251.813 304.554 248.844 312.932Z" fill="#02594F"/>
</g>
<g opacity="0.4">
<path d="M360.607 408.751C354.002 398.278 353.727 394.156 356.48 371.028C359.232 347.899 350.697 335.509 344.366 327.526C338.035 319.544 336.934 306.6 331.978 287.327C327.022 268.055 320.142 275.212 320.142 275.212C320.142 275.212 311.61 287.602 308.029 294.761C307.175 296.469 306.346 298.273 305.576 300.025C306.076 300.723 320.07 320.465 331.152 355.88C342.44 391.952 345.192 442.885 345.192 442.885C346.06 443.294 346.9 443.667 347.726 444.013C352.596 441.57 358.008 440.387 363.023 439.878C371.124 430.313 366.683 418.369 360.607 408.751Z" fill="#02594F"/>
</g>
<g opacity="0.4">
<path d="M246.994 318.392C247.504 316.807 248.114 314.999 248.856 312.932C250.247 309.084 251.336 305.134 252.113 301.117C252.503 298.624 252.707 296.106 252.725 293.583C252.725 293.627 252.725 293.66 252.725 293.66L245.017 281.27C244.021 281.735 243.078 282.228 242.164 282.722C240.745 286.555 239.544 290.967 239.786 294.486C240.338 302.469 242.264 307.151 237.308 313.484C232.352 319.816 232.906 330.829 235.658 334.408C237.848 337.257 241.419 340.631 241.962 345.346C242.839 346.277 243.358 346.787 243.358 346.787C243.358 346.787 245.901 349.247 250.215 350.715C247.655 347.871 245.245 343.966 244.456 338.863C242.515 326.423 246.994 318.392 246.994 318.392Z" fill="#02594F"/>
</g>
<path d="M252.497 301.191L251.683 301.054C252.07 298.581 252.273 296.083 252.29 293.581C252.29 293.369 252.351 292.303 252.541 290.569L253.365 290.597C253.474 294.15 253.183 297.704 252.497 301.191Z" fill="#01948E"/>
<path d="M407.362 216.329C407.362 216.329 399.504 211.714 395.747 218.55C395.747 218.55 394.039 220.088 396.089 223.162L407.362 216.329Z" fill="#FEC3C7"/>
<path d="M406.917 216.541C407.287 219.532 409.393 234.664 414.829 241.345C419.75 247.396 422.128 243.61 422.844 241.983C421.171 233.526 418.133 227.579 418.133 227.579C415.271 219.599 410.447 217.174 406.917 216.541Z" fill="#AE0831"/>
<path d="M406.855 216.015C406.855 216.015 387.861 224.826 390.334 228.957C392.808 233.088 399.409 225.932 394.188 232.811C388.966 239.69 396.391 236.665 398.592 236.665C400.793 236.665 398.867 238.869 401.345 240.519C403.823 242.169 411.815 243.272 421.441 231.159C421.446 231.159 418.142 215.738 406.855 216.015Z" fill="#FEC3C7"/>
<path d="M406.855 216.015C406.855 216.015 406.389 216.229 405.619 216.609C406.915 221.135 407.632 229.327 402.487 241.073C405.787 242.236 412.977 241.806 421.446 231.159C421.446 231.159 418.142 215.738 406.855 216.015Z" fill="#F7A1AA"/>
<path d="M390.614 129.836C390.614 129.836 400.126 122.952 394.681 101.751C389.236 80.5492 365.289 77.5215 354.002 80.8262C342.714 84.1309 336.108 105.33 317.389 98.7229C298.67 92.1158 252.974 65.6756 234.807 85.781C216.639 105.886 260.958 112.489 264.536 112.489C268.115 112.489 273.345 115.514 263.436 116.345C253.526 117.176 214.996 105.055 209.756 102.577C204.516 100.098 176.171 95.1436 174.796 107.534C173.421 119.924 193.79 128.465 213.335 129.836C232.88 131.207 213.335 135.343 202.599 135.887C191.863 136.432 168.74 136.439 163.509 135.887C158.278 135.336 147.817 136.439 152.222 146.076C156.626 155.713 179.201 171.676 213.335 169.479C247.469 167.282 259.857 167.275 277.199 161.22C294.54 155.164 318.492 146.076 348.771 152.683C348.771 152.683 355.305 153.903 358.92 156.872L390.614 129.836Z" fill="#410C5A"/>
<path d="M380.432 112.763C364.465 107.809 354.004 113.04 350.7 114.967C347.396 116.894 344.65 119.924 331.706 114.69C318.762 109.456 307.205 101.751 295.92 108.909C284.635 116.068 299.226 128.184 272.236 125.98C245.245 123.776 240.305 122.401 244.158 131.212C248.011 140.023 246.636 151.312 230.395 149.66C214.154 148.008 193.508 140.584 177.265 144.154C177.265 144.154 163.574 145.892 156.407 151.834C165.249 160.936 185.42 171.28 213.328 169.479C247.462 167.275 259.85 167.275 277.192 161.22C294.533 155.164 318.483 146.076 348.764 152.683C348.764 152.683 355.298 153.903 358.913 156.872L390.607 129.832C390.607 129.832 396.396 117.72 380.432 112.763Z" fill="#1D0738"/>
<path d="M390.339 121.3C390.339 121.3 400.112 148.971 390.339 158.471C390.339 158.471 383.457 156.404 383.045 158.471C382.633 160.538 383.045 191.923 364.463 189.859C345.881 187.795 354.139 163.014 354.139 163.014C354.139 163.014 359.507 162.188 359.507 151.45C359.507 151.45 359.507 147.456 355.654 145.529C351.8 143.602 352.35 135.892 356.754 136.995C361.159 138.098 360.607 134.242 360.607 132.038C360.607 129.834 359.132 119.647 373.495 118.821C387.859 117.995 390.339 121.3 390.339 121.3Z" fill="#FEC3C7"/>
<path d="M383.815 157.729C380.79 157.014 374.954 156.409 363.637 156.819L382.216 167.659C382.861 162.93 382.914 159.144 383.045 158.471C383.117 158.101 383.405 157.868 383.815 157.729Z" fill="#F7A1AA"/>
<path d="M355.854 162.171C355.854 162.171 350.148 184.353 363.637 187.38C377.125 190.408 381.837 170.971 382.216 167.659C382.596 164.347 401.624 170.31 403.002 173.063C404.379 175.816 424.473 213.814 431.079 217.116C437.685 220.418 438.513 227.589 434.383 230.614C430.253 233.64 423.096 241.352 423.096 241.352C423.096 241.352 420.895 248.785 414.838 241.352C408.781 233.919 406.855 216.02 406.855 216.02C406.855 216.02 399.025 211.889 394.681 219.876L387.035 206.934C387.035 206.934 364.737 243.279 356.754 249.058C356.754 249.058 330.878 255.109 308.855 237.494C308.855 237.494 301.974 231.443 302.249 230.335C302.523 229.227 311.058 222.35 312.985 207.483C314.911 192.617 311.333 189.959 311.333 189.959C311.333 189.959 301.148 187.383 297.57 191.237C293.991 195.091 278.299 213.264 278.299 213.264C278.299 213.264 275.547 218.771 264.804 208.859C254.061 198.947 254.894 195.093 254.894 195.093L285.731 159.846C285.731 159.846 286.557 159.297 294.54 159.846C302.523 160.396 341.742 157.889 355.854 162.171Z" fill="#FEC748"/>
<path d="M278.529 212.999L278.297 213.262C278.297 213.262 276.668 216.52 271.021 213.509C269.332 212.606 267.282 211.139 264.808 208.854C264.576 208.638 264.343 208.426 264.124 208.216C262.728 206.902 261.544 205.701 260.539 204.604C255.103 198.686 254.857 195.852 254.885 195.226C256.937 196.184 259.58 197.513 262.409 199.182C266.014 201.293 269.918 203.937 273.278 207.03C275.256 208.807 277.018 210.811 278.529 212.999V212.999Z" fill="#1D0738"/>
<path d="M273.29 207.023C273.29 207.023 272.035 210.223 271.026 213.506C270.341 215.727 269.767 217.984 269.767 219.324C269.767 220.362 269.848 221.589 269.848 222.86C269.848 225.641 269.471 228.638 267.014 230.337C263.436 232.816 262.333 238.047 262.333 238.047C262.333 238.047 259.031 236.947 259.308 235.294C259.585 233.642 254.354 239.7 250.775 231.163C250.775 231.163 244.993 219.876 248.572 217.123C251.346 214.991 257.256 211.202 260.546 204.611C261.111 203.483 261.578 202.308 261.942 201.1C262.128 200.479 262.288 199.839 262.423 199.18C266.025 201.286 269.93 203.93 273.29 207.023Z" fill="#FEC3C7"/>
<path d="M273.29 207.023C273.29 207.023 272.035 210.223 271.026 213.506C270.342 215.727 269.767 217.984 269.767 219.324C269.767 220.362 269.848 221.589 269.848 222.86C267.987 219.511 265.911 213.746 264.129 208.223C263.322 205.717 262.575 203.259 261.939 201.1C261.938 201.088 261.938 201.076 261.939 201.065C262.121 200.453 262.288 199.827 262.426 199.177C262.447 199.087 262.465 198.993 262.484 198.903C262.47 198.996 262.451 199.089 262.433 199.18C266.025 201.286 269.93 203.93 273.29 207.023Z" fill="#F7A1AA"/>
<path d="M417.042 211.335C417.042 209.957 410.992 209.131 408.507 209.131C406.022 209.131 404.654 210.234 401.075 201.146C397.496 192.058 391.633 196.466 391.633 196.466L387.114 207.06L394.681 219.86C399.025 211.875 406.855 216.006 406.855 216.006C406.855 216.006 406.876 216.197 406.918 216.532H406.971C412.048 214.342 417.042 212.015 417.042 211.335Z" fill="#F4AF25"/>
<path d="M327.025 218.764C326.748 212.157 331.155 211.056 338.312 200.318C345.469 189.58 342.163 186.275 334.733 184.623C327.304 182.97 324.547 185.723 309.681 181.597C294.815 177.471 289.31 187.648 286.834 189.957C285.017 191.642 277.294 201.747 273.29 207.025C275.261 208.804 277.016 210.809 278.518 212.999C280.435 210.781 294.231 194.821 297.56 191.234C301.139 187.38 311.323 189.957 311.323 189.957C311.323 189.957 314.902 192.612 312.975 207.479C311.049 222.345 302.505 229.232 302.24 230.333C302.007 231.24 306.633 235.501 308.273 236.979C309.059 236.388 310.134 235.899 311.6 235.564C324.821 232.536 327.299 225.375 327.025 218.764Z" fill="#F4AF25"/>
<path d="M258.894 235.315C258.614 231.126 262.358 223.842 262.519 223.535L263.252 223.914C263.212 223.988 259.454 231.294 259.717 235.262L258.894 235.315Z" fill="#F7A1AA"/>
<path d="M355.854 162.171C355.854 162.171 349.236 181.995 363.637 187.38C378.037 192.766 382.216 167.659 382.216 167.659" stroke="white" stroke-width="3" stroke-miterlimit="10" stroke-linecap="round"/>
<path d="M406.971 216.553C406.971 216.553 409.128 238.936 419.883 243.901" stroke="white" stroke-width="3" stroke-miterlimit="10" stroke-linecap="round"/>
<path d="M254.889 195.228C254.889 195.228 272.34 202.936 278.527 212.999" stroke="white" stroke-width="3" stroke-miterlimit="10" stroke-linecap="round"/>
<g opacity="0.4">
<path d="M296.669 247.336C299.879 247.336 302.482 244.733 302.482 241.522C302.482 238.311 299.879 235.708 296.669 235.708C293.459 235.708 290.857 238.311 290.857 241.522C290.857 244.733 293.459 247.336 296.669 247.336Z" fill="white"/>
<path d="M330.687 264.434C333.897 264.434 336.499 261.831 336.499 258.62C336.499 255.41 333.897 252.807 330.687 252.807C327.477 252.807 324.875 255.41 324.875 258.62C324.875 261.831 327.477 264.434 330.687 264.434Z" fill="white"/>
<path d="M302.482 281.27C305.692 281.27 308.294 278.667 308.294 275.456C308.294 272.245 305.692 269.642 302.482 269.642C299.271 269.642 296.669 272.245 296.669 275.456C296.669 278.667 299.271 281.27 302.482 281.27Z" fill="white"/>
<path d="M271.282 273.613C274.492 273.613 277.094 271.01 277.094 267.799C277.094 264.589 274.492 261.986 271.282 261.986C268.072 261.986 265.469 264.589 265.469 267.799C265.469 271.01 268.072 273.613 271.282 273.613Z" fill="white"/>
<path d="M277.094 310.244C280.304 310.244 282.906 307.641 282.906 304.431C282.906 301.22 280.304 298.617 277.094 298.617C273.884 298.617 271.281 301.22 271.281 304.431C271.281 307.641 273.884 310.244 277.094 310.244Z" fill="white"/>
<path d="M263.252 348.463C266.462 348.463 269.064 345.86 269.064 342.649C269.064 339.438 266.462 336.835 263.252 336.835C260.042 336.835 257.439 339.438 257.439 342.649C257.439 345.86 260.042 348.463 263.252 348.463Z" fill="white"/>
<path d="M253.398 322.928C256.608 322.928 259.21 320.325 259.21 317.114C259.21 313.903 256.608 311.301 253.398 311.301C250.188 311.301 247.585 313.903 247.585 317.114C247.585 320.325 250.188 322.928 253.398 322.928Z" fill="white"/>
<path d="M229.804 312.818C233.014 312.818 235.616 310.215 235.616 307.005C235.616 303.794 233.014 301.191 229.804 301.191C226.594 301.191 223.992 303.794 223.992 307.005C223.992 310.215 226.594 312.818 229.804 312.818Z" fill="white"/>
<path d="M349.981 291.242C353.191 291.242 355.793 288.639 355.793 285.428C355.793 282.218 353.191 279.615 349.981 279.615C346.771 279.615 344.168 282.218 344.168 285.428C344.168 288.639 346.771 291.242 349.981 291.242Z" fill="white"/>
<path d="M328.921 314.466C332.131 314.466 334.733 311.863 334.733 308.652C334.733 305.441 332.131 302.839 328.921 302.839C325.711 302.839 323.109 305.441 323.109 308.652C323.109 311.863 325.711 314.466 328.921 314.466Z" fill="white"/>
<path d="M358.122 328.741C361.332 328.741 363.935 326.138 363.935 322.928C363.935 319.717 361.332 317.114 358.122 317.114C354.912 317.114 352.31 319.717 352.31 322.928C352.31 326.138 354.912 328.741 358.122 328.741Z" fill="white"/>
<path d="M340.543 357.862C343.753 357.862 346.356 355.26 346.356 352.049C346.356 348.838 343.753 346.235 340.543 346.235C337.333 346.235 334.731 348.838 334.731 352.049C334.731 355.26 337.333 357.862 340.543 357.862Z" fill="white"/>
<path d="M370.696 376.136C373.906 376.136 376.509 373.533 376.509 370.323C376.509 367.112 373.906 364.509 370.696 364.509C367.486 364.509 364.884 367.112 364.884 370.323C364.884 373.533 367.486 376.136 370.696 376.136Z" fill="white"/>
<path d="M347.987 403.721C351.197 403.721 353.799 401.118 353.799 397.908C353.799 394.697 351.197 392.094 347.987 392.094C344.777 392.094 342.175 394.697 342.175 397.908C342.175 401.118 344.777 403.721 347.987 403.721Z" fill="white"/>
<path d="M372.325 420.731C375.535 420.731 378.137 418.128 378.137 414.918C378.137 411.707 375.535 409.104 372.325 409.104C369.115 409.104 366.513 411.707 366.513 414.918C366.513 418.128 369.115 420.731 372.325 420.731Z" fill="white"/>
<path d="M351.147 442.54C354.357 442.54 356.959 439.937 356.959 436.727C356.959 433.516 354.357 430.913 351.147 430.913C347.936 430.913 345.334 433.516 345.334 436.727C345.334 439.937 347.936 442.54 351.147 442.54Z" fill="white"/>
</g>
</g>
<defs>
<linearGradient id="paint0_linear_6009_700" x1="112.694" y1="488.548" x2="572.474" y2="488.548" gradientUnits="userSpaceOnUse">
<stop stop-color="#FFFBF1"/>
<stop offset="0.5" stop-color="#FEC748"/>
<stop offset="1" stop-color="#FFEEC7"/>
</linearGradient>
<clipPath id="clip0_6009_700">
<rect width="698.04" height="512" fill="white"/>
</clipPath>
</defs>
</svg>
