<svg width="615" height="512" viewBox="0 0 615 512" fill="none" xmlns="http://www.w3.org/2000/svg">
<g clip-path="url(#clip0_6009_2)">
<path d="M191.722 439.095C191.722 439.095 28.7013 373.983 121.105 286.156C213.509 198.329 344.611 176.411 420.547 210.261C496.482 244.111 503.939 383.895 413.365 439.095H191.722V439.095Z" fill="#E6F5FF"/>
<path d="M-22.5876 294.38C-61.6482 379.265 12.2824 451.584 88.5921 447.974C164.902 444.364 152.757 592.79 57.2726 604.508" stroke="white" stroke-miterlimit="10"/>
<path d="M-9.19882 289.407C-48.2592 374.292 25.6715 446.611 101.981 443.001C178.291 439.391 166.146 587.817 70.6612 599.535" stroke="white" stroke-width="1.2222" stroke-miterlimit="10"/>
<path d="M4.19034 284.434C-34.87 369.319 39.0606 441.638 115.37 438.028C191.68 434.419 179.535 582.844 84.0503 594.562" stroke="white" stroke-width="1.4444" stroke-miterlimit="10"/>
<path d="M17.5794 279.461C-21.4808 364.346 52.4499 436.664 128.759 433.055C205.069 429.445 192.924 577.871 97.4396 589.589" stroke="white" stroke-width="1.6667" stroke-miterlimit="10"/>
<path d="M30.9684 274.488C-8.09199 359.373 65.8389 431.691 142.148 428.082C218.458 424.472 206.313 572.898 110.829 584.616" stroke="white" stroke-width="1.8889" stroke-miterlimit="10"/>
<path d="M44.3575 269.515C5.29732 354.4 79.2278 426.718 155.537 423.109C231.847 419.499 219.702 567.925 124.218 579.643" stroke="white" stroke-width="2.1111" stroke-miterlimit="10"/>
<path d="M57.7467 264.542C18.6863 349.427 92.617 421.745 168.927 418.136C245.236 414.526 233.091 562.951 137.607 574.669" stroke="white" stroke-width="2.3333" stroke-miterlimit="10"/>
<path d="M71.1359 259.568C32.0755 344.454 106.006 416.772 182.316 413.162C258.626 409.553 246.48 557.978 150.996 569.696" stroke="white" stroke-width="2.5555" stroke-miterlimit="10"/>
<path d="M84.5248 254.595C45.4644 339.481 119.395 411.799 195.705 408.19C272.014 404.58 259.869 553.005 164.385 564.723" stroke="white" stroke-width="2.7778" stroke-miterlimit="10"/>
<path d="M97.914 249.622C58.8536 334.508 132.784 406.826 209.094 403.216C285.404 399.607 273.259 548.032 177.774 559.75" stroke="white" stroke-width="3" stroke-miterlimit="10"/>
<path d="M111.303 244.649C72.2426 329.534 146.174 401.853 222.483 398.243C298.793 394.634 286.648 543.059 191.163 554.777" stroke="white" stroke-width="3.2222" stroke-miterlimit="10"/>
<path d="M124.692 239.676C85.6319 324.561 159.563 396.88 235.872 393.27C312.182 389.66 300.037 538.086 204.552 549.804" stroke="white" stroke-width="3.4444" stroke-miterlimit="10"/>
<path d="M138.081 234.703C99.0211 319.588 172.952 391.907 249.261 388.297C325.571 384.688 313.426 533.113 217.941 544.831" stroke="white" stroke-width="3.6667" stroke-miterlimit="10"/>
<path d="M151.47 229.73C112.41 314.615 186.341 386.934 262.65 383.324C338.96 379.714 326.815 528.14 231.33 539.858" stroke="white" stroke-width="3.8889" stroke-miterlimit="10"/>
<path d="M164.86 224.757C125.799 309.642 199.73 381.961 276.039 378.351C352.349 374.741 340.204 523.167 244.72 534.885" stroke="white" stroke-width="4.1111" stroke-miterlimit="10"/>
<path d="M178.249 219.784C139.188 304.669 213.119 376.987 289.429 373.378C365.738 369.768 353.593 518.194 258.109 529.912" stroke="white" stroke-width="4.3333" stroke-miterlimit="10"/>
<path d="M191.638 214.811C152.577 299.696 226.508 372.014 302.818 368.405C379.127 364.795 366.982 513.221 271.498 524.938" stroke="white" stroke-width="4.5556" stroke-miterlimit="10"/>
<path d="M205.027 209.838C165.967 294.723 239.897 367.041 316.207 363.432C392.517 359.822 380.371 508.248 284.887 519.966" stroke="white" stroke-width="4.7778" stroke-miterlimit="10"/>
<path d="M218.416 204.865C179.355 289.75 253.286 362.068 329.596 358.458C405.906 354.849 393.76 503.275 298.276 514.992" stroke="white" stroke-width="5" stroke-miterlimit="10"/>
<path d="M231.805 199.891C192.745 284.777 266.676 357.095 342.985 353.486C419.295 349.876 407.15 498.302 311.665 510.019" stroke="white" stroke-width="5.2222" stroke-miterlimit="10"/>
<path d="M245.195 194.918C206.134 279.804 280.065 352.122 356.375 348.513C432.684 344.903 420.539 493.328 325.055 505.046" stroke="white" stroke-width="5.4444" stroke-miterlimit="10"/>
<path d="M258.583 189.945C219.523 274.831 293.453 347.149 369.763 343.54C446.073 339.93 433.928 488.355 338.443 500.073" stroke="white" stroke-width="5.6667" stroke-miterlimit="10"/>
<path d="M271.972 184.972C232.912 269.857 306.843 342.176 383.152 338.566C459.462 334.957 447.317 483.382 351.832 495.1" stroke="white" stroke-width="5.8889" stroke-miterlimit="10"/>
<path d="M285.362 179.999C246.301 264.884 320.232 337.203 396.542 333.593C472.851 329.984 460.706 478.409 365.222 490.127" stroke="white" stroke-width="6.1111" stroke-miterlimit="10"/>
<path d="M298.751 175.026C259.69 259.911 333.621 332.23 409.931 328.62C486.24 325.01 474.095 473.436 378.611 485.154" stroke="white" stroke-width="6.3333" stroke-miterlimit="10"/>
<path d="M312.14 170.053C273.08 254.938 347.01 327.257 423.32 323.647C499.629 320.037 487.484 468.463 392 480.181" stroke="white" stroke-width="6.5555" stroke-miterlimit="10"/>
<path d="M325.529 165.08C286.469 249.965 360.399 322.284 436.709 318.674C513.019 315.064 500.873 463.49 405.389 475.208" stroke="white" stroke-width="6.7778" stroke-miterlimit="10"/>
<path d="M338.918 160.107C299.858 244.992 373.789 317.31 450.098 313.701C526.408 310.091 514.263 458.517 418.778 470.235" stroke="white" stroke-width="7" stroke-miterlimit="10"/>
<path d="M352.307 155.134C313.247 240.019 387.177 312.337 463.487 308.728C539.797 305.118 527.652 453.544 432.167 465.262" stroke="white" stroke-width="7.2222" stroke-miterlimit="10"/>
<path d="M365.696 150.161C326.636 235.046 400.566 307.365 476.876 303.755C553.186 300.145 541.041 448.571 445.557 460.288" stroke="white" stroke-width="7.4444" stroke-miterlimit="10"/>
<path d="M379.086 145.188C340.025 230.073 413.955 302.391 490.265 298.782C566.575 295.172 554.43 443.598 458.946 455.316" stroke="white" stroke-width="7.6667" stroke-miterlimit="10"/>
<path d="M392.474 140.214C353.414 225.1 427.344 297.418 503.654 293.808C579.964 290.199 567.819 438.625 472.335 450.342" stroke="white" stroke-width="7.8889" stroke-miterlimit="10"/>
<path d="M405.864 135.241C366.803 220.127 440.734 292.445 517.044 288.835C593.353 285.226 581.208 433.652 485.723 445.369" stroke="white" stroke-width="8.1111" stroke-miterlimit="10"/>
<path d="M419.253 130.268C380.192 215.154 454.123 287.472 530.433 283.862C606.742 280.253 594.597 428.678 499.112 440.396" stroke="white" stroke-width="8.3333" stroke-miterlimit="10"/>
<path d="M432.642 125.295C393.581 210.18 467.512 282.499 543.822 278.889C620.131 275.279 607.986 423.705 512.502 435.423" stroke="white" stroke-width="8.5556" stroke-miterlimit="10"/>
<path d="M446.031 120.322C406.97 205.208 480.901 277.526 557.211 273.916C633.521 270.307 621.375 418.732 525.891 430.45" stroke="white" stroke-width="8.7778" stroke-miterlimit="10"/>
<path d="M459.42 115.349C420.36 200.234 494.29 272.553 570.6 268.943C646.91 265.334 634.764 413.759 539.28 425.477" stroke="white" stroke-width="9" stroke-miterlimit="10"/>
<path d="M292.64 80.2644H173.617V148.386H292.64V80.2644Z" fill="#BBE2EF"/>
<path d="M190.906 86.425H180.843V96.4885H190.906V86.425Z" fill="white"/>
<path d="M247.289 86.425H194.454V90.3603H247.289V86.425Z" fill="white"/>
<path d="M221.226 92.5532H194.454V96.4882H221.226V92.5532Z" fill="white"/>
<path d="M190.906 101.965H180.843V112.028H190.906V101.965Z" fill="white"/>
<path d="M247.289 101.965H194.454V105.9H247.289V101.965Z" fill="white"/>
<path d="M221.226 108.094H194.454V112.028H221.226V108.094Z" fill="white"/>
<path d="M190.906 117.505H180.843V127.568H190.906V117.505Z" fill="white"/>
<path d="M247.289 117.505H194.454V121.44H247.289V117.505Z" fill="white"/>
<path d="M221.226 123.634H194.454V127.568H221.226V123.634Z" fill="white"/>
<path d="M190.906 133.045H180.843V143.109H190.906V133.045Z" fill="white"/>
<path d="M247.289 133.045H194.454V136.98H247.289V133.045Z" fill="white"/>
<path d="M221.226 139.173H194.454V143.109H221.226V139.173Z" fill="white"/>
<path d="M289.349 85.8445H251.61V115.293H289.349V85.8445Z" fill="white"/>
<path d="M289.349 118.892H251.61V144.031H289.349V118.892Z" fill="white"/>
<path d="M255.094 108.093C257.513 101.714 261.577 94.295 264.771 98.5524C267.964 102.81 272.512 107.248 273.576 105.9C274.641 104.552 276.963 100.197 279.769 99.8105C282.575 99.4234 287.414 108.093 287.414 108.093H255.094Z" fill="#8ECC36"/>
<path d="M255.094 138.443C257.513 132.064 261.577 124.645 264.771 128.902C267.964 133.16 272.512 137.598 273.576 136.25C274.641 134.902 276.963 130.547 279.769 130.161C282.575 129.773 287.414 138.443 287.414 138.443H255.094Z" fill="#8ECC36"/>
<path d="M181.488 91.1018L183.939 95.0366L190.197 89.876L189.874 89.5535L183.996 93.4481L181.673 90.8597L181.488 91.1018Z" fill="#FF8500"/>
<path d="M181.488 106.126L183.939 110.061L190.197 104.9L189.874 104.578L183.996 108.473L181.673 105.884L181.488 106.126Z" fill="#FF8500"/>
<path d="M181.488 121.15L183.939 125.085L190.197 119.925L189.874 119.602L183.996 123.497L181.673 120.909L181.488 121.15Z" fill="#FF8500"/>
<path d="M181.488 136.175L183.939 140.109L190.197 134.949L189.874 134.626L183.996 138.521L181.673 135.932L181.488 136.175Z" fill="#FF8500"/>
<path d="M263.622 175.044H144.6V243.166H263.622V175.044Z" fill="#BBE2EF"/>
<path d="M201.583 182.679H153.974V185.517H201.583V182.679Z" fill="white"/>
<path d="M181.972 187.969H153.974V190.807H181.972V187.969Z" fill="white"/>
<path d="M201.583 198.032H153.974V200.871H201.583V198.032Z" fill="white"/>
<path d="M181.972 203.322H153.974V206.161H181.972V203.322Z" fill="white"/>
<path d="M201.583 213.385H153.974V216.224H201.583V213.385Z" fill="white"/>
<path d="M181.972 218.675H153.974V221.514H181.972V218.675Z" fill="white"/>
<path d="M201.583 228.738H153.974V231.577H201.583V228.738Z" fill="white"/>
<path d="M181.972 234.028H153.974V236.867H181.972V234.028Z" fill="white"/>
<path d="M254.223 210.483C254.223 222.134 244.778 231.578 233.128 231.578C221.477 231.578 212.033 222.134 212.033 210.483C212.033 198.833 221.477 189.389 233.128 189.389C233.875 189.389 234.614 189.427 235.342 189.505L233.128 210.483L253.977 207.255C254.14 208.308 254.223 209.386 254.223 210.483Z" fill="#FF8500"/>
<path d="M255.848 205.393L234.999 208.621L237.213 187.643C246.754 188.637 254.405 195.991 255.848 205.393Z" fill="#8ECC36"/>
<path d="M538.971 271.342H472.829V356.825H538.971V271.342Z" fill="#BBE2EF"/>
<path d="M530.024 278.342H481.777V282.097H530.024V278.342Z" fill="white"/>
<path d="M530.024 285.749H481.777V289.504H530.024V285.749Z" fill="white"/>
<path d="M530.024 293.156H481.777V296.911H530.024V293.156Z" fill="white"/>
<path d="M514.443 300.563H481.777V304.318H514.443V300.563Z" fill="white"/>
<path d="M530.024 307.969H481.777V311.724H530.024V307.969Z" fill="white"/>
<path d="M530.024 315.376H481.777V319.131H530.024V315.376Z" fill="white"/>
<path d="M530.023 330.432H505.9V351.106H530.023V330.432Z" fill="white"/>
<path d="M503.92 330.432H481.777V351.106H503.92V330.432Z" fill="white"/>
<path d="M505.9 322.783H481.777V326.538H505.9V322.783Z" fill="white"/>
<path d="M486.18 122.795H420.038V208.277H486.18V122.795Z" fill="#BBE2EF"/>
<path d="M477.232 153.893H428.985V157.648H477.232V153.893Z" fill="white"/>
<path d="M477.232 161.3H428.985V165.055H477.232V161.3Z" fill="white"/>
<path d="M477.232 133.683H452.581V137.438H477.232V133.683Z" fill="white"/>
<path d="M468.655 141.09H452.581V144.845H468.655V141.09Z" fill="white"/>
<path d="M477.232 182.066H452.581V185.821H477.232V182.066Z" fill="white"/>
<path d="M468.655 189.472H452.581V193.227H468.655V189.472Z" fill="white"/>
<path d="M450.351 178.894H429.763V198.115H450.351V178.894Z" fill="white"/>
<path d="M453.109 168.707H428.985V172.462H453.109V168.707Z" fill="white"/>
<path d="M435.788 142.788C438.953 142.788 441.519 140.223 441.519 137.058C441.519 133.894 438.953 131.328 435.788 131.328C432.624 131.328 430.058 133.894 430.058 137.058C430.058 140.223 432.624 142.788 435.788 142.788Z" stroke="#FF8500" stroke-width="8" stroke-miterlimit="10"/>
<path d="M439.598 141.337L448.8 149.989" stroke="#FF8500" stroke-width="8" stroke-miterlimit="10"/>
<path d="M194.49 266.267H75.4685V334.388H194.49V266.267Z" fill="#BBE2EF"/>
<path d="M102.419 310.203H95.0066V323.239H102.419V310.203Z" fill="#FF8500"/>
<path d="M115.48 302.5H108.068V323.239H115.48V302.5Z" fill="#8ECC36"/>
<path d="M128.541 297.168H121.129V323.239H128.541V297.168Z" fill="#FF8500"/>
<path d="M141.602 308.001H134.19V323.239H141.602V308.001Z" fill="#8ECC36"/>
<path d="M154.663 294.939H147.251V323.239H154.663V294.939Z" fill="#FF8500"/>
<path d="M167.723 284.366H160.312V323.239H167.723V284.366Z" fill="#8ECC36"/>
<path d="M86.9516 303.802C86.5643 304.271 126.045 282.08 126.045 282.08L134.952 294.939L167.074 274.339" stroke="#8ECC36" stroke-width="6" stroke-miterlimit="10"/>
<path d="M106.434 274.339H84.2419V277.177H106.434V274.339Z" fill="#E6F5FF"/>
<path d="M98.1763 280.467H84.2419V283.305H98.1763V280.467Z" fill="#E6F5FF"/>
<path d="M224.914 268.542H183.45V271.927H224.914V268.542Z" fill="#8ECC36"/>
<path d="M211.957 274.637H183.45V278.021H211.957V274.637Z" fill="#8ECC36"/>
<path d="M217.556 280.731H183.45V284.115H217.556V280.731Z" fill="#8ECC36"/>
<path d="M203.286 286.825H183.45V290.21H203.286V286.825Z" fill="#8ECC36"/>
<path d="M505.9 222.594H465.774V227.478H505.9V222.594Z" fill="#FF8500"/>
<path d="M505.9 231.388H446.068V236.272H505.9V231.388Z" fill="#FF8500"/>
<path d="M487.224 240.182H448.042V245.066H487.224V240.182Z" fill="#FF8500"/>
<path d="M474.69 248.977H446.068V253.861H474.69V248.977Z" fill="#FF8500"/>
<path d="M260.971 313.766H210.485V317.888H260.971V313.766Z" fill="#BBE2EF"/>
<path d="M240.886 321.187H210.485V325.308H240.886V321.187Z" fill="#BBE2EF"/>
<path d="M260.971 328.608H210.485V332.729H260.971V328.608Z" fill="#BBE2EF"/>
<path d="M234.636 336.028H210.485V340.149H234.636V336.028Z" fill="#BBE2EF"/>
<path d="M305.471 274.135C290.446 281.413 288.098 289.161 284.107 315.689C280.116 342.218 271.586 398.484 271.586 398.484L301.058 409.753L322.61 336.192L305.471 274.135Z" fill="#B6D2FC"/>
<path d="M327.305 263.884L305.472 274.136C305.472 274.136 299.316 302.073 301.689 320.855C304.063 339.636 311.75 395.98 307.32 423.526C306.413 429.159 305.516 434.569 304.662 439.612L407.542 438.43C405.73 421.037 404.204 402.487 404.624 392.341C405.563 369.686 417.459 338.384 417.459 338.384L423.91 272.585L401.338 258.719L342.644 260.128L327.305 263.884Z" fill="#9CBDEF"/>
<path d="M383.768 379.546C378.486 383.303 376.843 398.406 384.59 405.136C384.59 405.136 393.668 398.093 393.668 397.78C393.668 397.467 394.52 385.729 394.52 385.729L388.503 381.268L383.768 379.546Z" fill="#557FE5"/>
<path d="M383.858 382.135C377.424 381.416 375.179 376.927 363.209 372.887C351.237 368.847 345.776 368.249 338.07 367.8C330.363 367.351 329.166 367.65 329.391 369.97C329.616 372.289 332.159 373.112 337.172 373.86C342.185 374.608 345.926 374.879 345.926 374.879C345.926 374.879 329.54 375.731 326.099 375.731C322.657 375.731 310.462 375.282 310.612 378.424C310.761 381.566 317.494 382.314 324.378 382.613C331.261 382.913 340.09 382.613 340.09 382.613C340.09 382.613 332.683 384.783 325.724 385.083C318.767 385.382 307.394 384.858 307.32 389.272C307.245 393.686 319.29 391.891 325.5 391.218C331.71 390.544 340.763 390.769 340.763 390.769C340.763 390.769 312.632 395.632 312.557 398.026C312.482 400.42 317.27 401.243 329.092 399.672C340.912 398.1 342.933 397.726 342.933 397.726C342.933 397.726 322.358 404.011 323.031 406.929C323.705 409.847 330.887 407.976 336.947 406.63C343.007 405.283 347.945 404.46 352.883 405.657C357.821 406.854 362.422 404.722 370.952 402.141C379.481 399.559 387.225 402.028 387.225 402.028L394.519 392.938L392.724 383.063L383.858 382.135Z" fill="#FFCC7B"/>
<path d="M342.8 243.851C343.74 253.085 342.8 255.589 336.227 259.502C329.653 263.415 327.305 263.884 327.305 263.884C327.305 263.884 323.705 269.519 356.104 268.11C388.502 266.701 401.337 258.719 401.337 258.719C401.337 258.719 383.651 249.798 378.955 233.99C374.26 218.183 374.26 209.105 374.26 209.105L347.965 224.756L342.8 243.851Z" fill="#EFB96A"/>
<path d="M306.176 196.897C309.932 206.131 312.749 213.957 313.845 220.53C314.941 227.104 326.523 243.537 334.505 247.294C342.487 251.05 362.208 235.869 368.156 225.226C374.104 214.583 375.199 210.67 375.199 210.67C375.199 210.67 380.99 213.957 386.155 206.131C391.32 198.306 392.572 193.767 387.564 186.724C382.555 179.681 346.088 149.317 326.054 154.013C306.019 158.708 303.046 163.56 302.107 170.916C301.168 178.272 302.107 187.976 302.107 187.976L306.176 196.897Z" fill="#FFCC7B"/>
<path d="M315.824 165.792C301.95 189.932 321.436 210.748 339.044 206.522C356.652 202.297 361.739 199.871 361.739 199.871L355.008 182.185C355.008 182.185 361.973 194.862 365.338 198.619C368.704 202.375 371.521 197.21 372.068 199.245C372.616 201.279 373.008 207.25 374.651 206.925C376.294 206.601 376.138 200.419 376.764 194.549C377.39 188.68 381.459 184.376 384.511 185.08C387.563 185.785 387.563 186.724 387.563 186.724C387.563 186.724 390.693 152.291 371.599 141.022C352.504 129.753 333.253 131.319 318.697 142.118C304.141 152.917 284.733 178.272 306.175 196.897C306.175 196.897 300.766 182.561 306.29 170.824C306.403 170.582 306.522 170.341 306.645 170.102C306.645 170.102 302.106 185.628 311.027 198.932C311.028 198.932 302.028 178.585 315.824 165.792Z" fill="#1F1F1F"/>
<path d="M443.518 414.058C423.093 412.882 384.589 405.137 384.589 405.137C384.589 405.137 389.99 398.798 388.464 389.642C388.407 389.302 388.347 388.972 388.286 388.655C388.286 388.655 388.286 388.646 388.284 388.632C386.701 380.416 383.768 379.547 383.768 379.547C383.768 379.547 420.158 378.491 426.38 377.669C432.602 376.846 434.011 376.494 434.011 376.494C434.011 376.494 406.346 340.418 397.738 318.038C389.13 295.657 388.124 290.961 390.74 284.545C393.5 277.768 398.449 272.47 404.251 269.926L404.253 269.924C413.027 266.08 423.758 268.539 431.859 281.726C445.318 303.638 472.553 374.693 474.745 395.98C476.934 417.265 463.943 415.231 443.518 414.058Z" fill="#B6D2FC"/>
<path d="M466.413 398.724L434.14 379.547C434.14 379.547 396.298 381.972 392.065 381.837C387.973 381.703 388.261 388.202 388.284 388.632C386.701 380.415 383.768 379.547 383.768 379.547C383.768 379.547 420.158 378.49 426.38 377.669C432.602 376.846 434.011 376.493 434.011 376.493C434.011 376.493 406.346 340.418 397.738 318.037C389.13 295.657 388.124 290.961 390.74 284.544C393.5 277.767 398.449 272.469 404.251 269.926C385.868 288.227 396.218 303.98 404.253 324.613C412.285 345.247 433.436 371.187 438.351 377.603C443.114 383.821 465.057 397.858 466.413 398.724Z" fill="#9CBDEF"/>
<path d="M402.584 431.864H179.589V439.096H402.584V431.864Z" fill="#565656"/>
<path d="M319.708 431.864H175.731L124.199 349.552H268.175L319.708 431.864Z" fill="#565656"/>
<path d="M314.866 431.864H170.89L119.357 349.552H263.333L314.866 431.864Z" fill="#AAAAAA"/>
<path d="M434.262 439.114H397.084C397.084 439.114 398.763 439.114 403.541 434.786C408.321 430.457 417.878 417.718 432.214 410.167C432.214 410.167 436.337 424.581 436.595 433.066C436.703 436.644 436.124 439.167 434.262 439.114Z" fill="#424242"/>
<path d="M509.507 454.72C498.448 465.007 479.393 512.542 459.869 494.178C451.544 486.348 485.136 455.744 493.737 451.853C502.339 447.961 502.339 439.36 502.339 439.36C502.339 439.36 499.652 439.577 495.495 439.853C482.244 440.73 454.06 442.2 450.319 439.114C448.027 437.222 444.353 434.074 441.084 431.254C437.346 428.028 434.139 425.229 434.139 425.229L434.743 406.02C443.548 389.184 481.449 388.543 499.267 399.192C517.085 409.842 520.567 444.432 509.507 454.72Z" fill="#EAEAEA"/>
<path d="M463.499 479.938C462.873 484.347 462.873 484.757 466.15 487.488C469.427 490.218 469.208 482.436 472.526 484.757C475.844 487.078 479.394 484.757 483.217 479.159C487.04 473.561 487.552 474.244 491.733 470.694C495.915 467.144 502.876 463.183 502.876 463.183C502.876 463.183 491.437 484.757 483.026 492.403C474.615 500.049 467.379 501.575 461.508 498.354C455.636 495.134 456.455 488.375 458.23 485.508C460.006 482.641 463.499 479.938 463.499 479.938Z" fill="#424242"/>
<path d="M495.495 439.853C490.043 440.214 482.059 440.675 474.293 440.879C463.187 441.168 452.52 440.931 450.319 439.114C448.344 437.484 445.346 434.924 442.464 432.444C441.999 432.042 441.538 431.645 441.084 431.254C441.456 423.67 441.846 415.839 441.846 415.839L440.412 399.629C452.291 396.557 460.678 400.448 462.525 403.52C464.374 406.592 466.627 405.568 473.386 408.025C480.144 410.483 485.674 405.363 488.951 412.121C492.228 418.88 483.585 425.298 484.527 430.179C485.469 435.059 490.18 435.843 492.842 435.45C494.538 435.2 495.652 437.432 495.495 439.853Z" fill="#424242"/>
<path d="M434.262 439.114H397.301C399.443 438.268 402.045 436.424 406.671 435.827C409.327 435.484 424.67 434.182 425.423 433.011C426.827 430.826 430.362 428.728 434.944 432.372C435.388 432.724 435.946 432.947 436.595 433.066C436.703 436.644 436.124 439.167 434.262 439.114Z" fill="#EAEAEA"/>
<path d="M478.845 440.879C467.739 441.168 452.52 440.93 450.319 439.114C448.345 437.484 445.346 434.923 442.464 432.444C449.049 430.731 457.302 426.728 459.322 428.54C462.327 431.235 467.316 428.515 467.961 431.788C468.608 435.059 469.437 435.775 473.523 437.864C474.657 438.444 478.253 440.085 478.845 440.879Z" fill="#EAEAEA"/>
<path d="M466.896 423.318C465.368 429.316 463.582 433.25 461.255 435.81C457.968 439.427 453.606 440.304 447.37 440.384C436.72 440.521 434.262 439.114 434.262 439.114C417.059 423.862 427.846 400.515 442.182 399.286C449.983 398.619 457.702 401.506 462.525 406.61C466.568 410.886 468.577 416.719 466.896 423.318Z" fill="#F4F4F4"/>
<path d="M463.891 419.085C482.665 411.78 484.522 419.085 484.522 419.085C484.522 419.085 485.396 425.365 464.437 426.321C455.963 426.707 463.891 419.792 463.891 419.792V419.085Z" fill="#EAA03D"/>
<path d="M466.896 423.318C465.368 429.316 463.582 433.25 461.255 435.81C453.839 436.109 450.436 431.86 450.243 429.017C450.04 426.017 442.358 427.072 443.693 423.488C445.027 419.904 447.376 419.084 449.526 415.838C451.677 412.592 455.875 415.091 462.525 406.61C466.568 410.886 468.577 416.719 466.896 423.318Z" fill="#EAA03D"/>
<path d="M437.768 409.185C423.419 395.047 429.323 390.363 429.323 390.363C429.323 390.363 434.696 386.995 444.147 405.725C447.969 413.298 438.414 408.896 438.414 408.896L437.768 409.185Z" fill="#F4F4F4"/>
<path d="M433.239 434.477C433.239 437.194 435.765 438.472 437.608 437.585C439.451 436.697 438.7 435.466 436.243 434.477C433.785 433.489 433.239 433.077 433.239 434.477Z" fill="#232323"/>
<path d="M445.055 431.631L469.216 433.011L445.044 431.835L445.055 431.631Z" fill="#A0A0A0"/>
<path d="M444.603 432.914L467.032 440.393L444.54 433.108L444.603 432.914Z" fill="#A0A0A0"/>
<path d="M443.745 433.87L462.526 445.265L443.64 434.046L443.745 433.87Z" fill="#A0A0A0"/>
<path d="M432.914 428.635L410.435 419.671L432.989 428.445L432.914 428.635Z" fill="#A0A0A0"/>
<path d="M433.748 427.562L414.846 413.361L433.871 427.397L433.748 427.562Z" fill="#A0A0A0"/>
<path d="M434.866 426.926L420.664 410.168L435.021 426.793L434.866 426.926Z" fill="#A0A0A0"/>
<path d="M462.526 392.388C462.839 397.683 467.959 401.588 469.904 400.148C471.85 398.707 473.304 396.158 474.983 398.508C476.663 400.857 476.868 402.134 480.247 399.192C483.626 396.249 489.442 394.989 489.442 394.989C489.442 394.989 476.583 390.54 462.526 392.388Z" fill="#EAA03D"/>
<path d="M491.101 422.157C487.798 424.475 487.005 424.406 488.746 427.48C490.487 430.553 494.797 431.577 495.509 427.993C496.221 424.409 493.291 420.62 491.101 422.157Z" fill="#EAA03D"/>
</g>
<defs>
<clipPath id="clip0_6009_2">
<rect width="614.415" height="512" fill="white"/>
</clipPath>
</defs>
</svg>
