<svg width="699" height="512" viewBox="0 0 699 512" fill="none" xmlns="http://www.w3.org/2000/svg">
<path opacity="0.2" d="M468.168 490.412C468.168 490.412 556.489 454.572 510.662 342.07C464.836 229.567 469.013 207.062 480.665 163.726C492.318 120.39 461.502 27.0523 359.025 54.5537C256.548 82.055 188.215 193.725 227.377 259.565C266.539 325.406 144.471 387.074 238.832 489.996L468.168 490.412Z" fill="#F9D58C"/>
<path d="M331.201 471.945C329.649 478.484 326.403 484.498 321.789 489.384H301.197L301.086 489.414C300.994 489.434 300.9 489.444 300.806 489.444C300.69 489.444 300.575 489.423 300.467 489.384H265.918C263.497 486.818 261.44 483.931 259.808 480.803C259.438 480.105 259.11 479.393 258.78 478.673C255.326 470.968 254.523 462.335 256.497 454.125C256.839 452.697 257.261 451.289 257.763 449.908V449.908C258.091 448.977 258.461 448.067 258.863 447.171C261.219 441.989 264.695 437.394 269.041 433.717C273.386 430.039 278.493 427.372 283.993 425.907L286.624 442.994L286.841 441.965L287.292 439.775L289.289 430.217L290.419 424.785C295.894 424.298 301.409 424.991 306.592 426.82C311.775 428.648 316.505 431.567 320.463 435.381L310.458 446.552L310.972 446.338L313.585 445.247L324.931 440.513C328.181 444.99 330.424 450.117 331.507 455.542C332.589 460.968 332.485 466.564 331.201 471.945Z" fill="#7BD6CB"/>
<path opacity="0.5" d="M326.787 482.141L301.193 489.384L301.081 489.414C300.989 489.434 300.896 489.444 300.802 489.444C300.686 489.444 300.571 489.423 300.462 489.384C300.255 489.319 300.077 489.184 299.959 489.002L299.536 489.384H296.492L317.71 470C317.811 469.909 317.928 469.839 318.055 469.794C318.182 469.748 318.317 469.729 318.452 469.735C318.587 469.742 318.719 469.776 318.841 469.834C318.963 469.892 319.072 469.974 319.162 470.074C319.255 470.173 319.327 470.289 319.374 470.416C319.421 470.542 319.442 470.677 319.436 470.812C319.43 470.948 319.397 471.08 319.34 471.202C319.282 471.324 319.2 471.434 319.1 471.524L302.2 486.954L326.217 480.165C326.348 480.128 326.484 480.117 326.619 480.132C326.753 480.148 326.884 480.19 327.002 480.256C327.12 480.322 327.225 480.41 327.309 480.517C327.393 480.623 327.455 480.745 327.492 480.875C327.53 481.005 327.541 481.14 327.526 481.274C327.511 481.408 327.47 481.538 327.404 481.655C327.338 481.773 327.25 481.877 327.144 481.96C327.038 482.043 326.917 482.105 326.787 482.141V482.141Z" fill="#01C2AF"/>
<path opacity="0.2" d="M290.743 424.755L290.438 424.776L289.307 430.208L287.311 439.766L286.859 441.956L286.643 442.985L284.011 425.891C278.511 427.356 273.404 430.023 269.059 433.7C264.714 437.377 261.238 441.973 258.882 447.155C258.479 448.051 258.109 448.956 257.781 449.892C257.28 451.272 256.857 452.68 256.516 454.109C254.542 462.319 255.345 470.952 258.798 478.657V478.657C259.117 479.376 259.457 480.088 259.827 480.787C261.459 483.914 263.515 486.802 265.937 489.367H283.102C287.583 484.412 292.837 476.895 297.379 465.813C305.788 445.256 295.12 429.875 290.743 424.755Z" fill="#01948E"/>
<path opacity="0.5" d="M275.246 489.384H273.152L272.945 488.304L271.721 481.787C271.561 481.786 271.404 481.745 271.262 481.67C271.121 481.595 271 481.486 270.909 481.355L267.207 476.1L266.025 474.401L265.069 473.053L263.803 471.263L256.448 460.791C256.293 460.568 256.232 460.293 256.279 460.026C256.326 459.759 256.477 459.521 256.699 459.365C256.921 459.209 257.195 459.146 257.463 459.192C257.73 459.238 257.968 459.387 258.126 459.609L265.036 469.432L266.302 471.233L267.824 473.393L269.006 475.08L270.993 477.899L270.323 474.349L269.923 472.22L268.992 467.272L268.457 464.412L266.935 456.315C266.884 456.047 266.943 455.769 267.097 455.543C267.251 455.317 267.489 455.162 267.757 455.111C268.026 455.06 268.304 455.119 268.53 455.273C268.756 455.427 268.911 455.665 268.962 455.934L270.092 461.985L270.637 464.845L271.821 471.152L272.221 473.279L274.804 487.066L275.246 489.384Z" fill="#01C2AF"/>
<path d="M322.743 349.675L318.697 350.276C318.697 350.276 314.199 348.325 319.146 333.633C324.093 318.941 327.839 314.445 330.082 315.194C332.325 315.944 333.986 334.534 322.743 349.675Z" fill="#016D62"/>
<path d="M428.866 398.699L431.414 404.696C431.414 404.696 434.262 408.294 414.326 406.198C394.39 404.101 393.641 397.801 393.641 397.801C393.641 397.801 403.683 391.652 428.866 398.699Z" fill="#016D62"/>
<path d="M352.947 187.387C352.947 187.387 360.591 201.118 354.52 206.052C348.45 210.986 347.1 213.248 347.1 213.248L383.75 225.168C383.75 225.168 387.57 222.469 388.245 207.628C388.92 192.787 389.371 193.459 392.068 190.311C394.765 187.162 372.055 198.633 352.947 187.387Z" fill="#FEC3C7"/>
<path d="M352.947 187.387C352.947 187.387 360.591 201.118 354.52 206.052C348.45 210.986 347.1 213.248 347.1 213.248L363.679 218.638C376.406 202.966 367.546 197.439 373.412 196.834C378.126 196.345 385.655 195.035 389.466 194.346C389.999 192.456 390.774 191.823 392.07 190.311C394.765 187.164 372.055 198.633 352.947 187.387Z" fill="#F7A1AA"/>
<path d="M384.424 130.043C384.424 130.043 371.383 139.038 376.779 148.033C382.174 157.028 389.82 134.542 384.424 130.043Z" fill="#ED9F15"/>
<path d="M398.888 119.389C398.888 119.389 407.881 122.538 411.178 116.841C414.475 111.144 387.196 102.6 387.796 104.848C388.396 107.097 394.693 116.552 398.888 119.389Z" fill="#ED9F15"/>
<path d="M361.715 126.22C361.715 126.22 370.259 113.852 363.739 102.384C357.219 90.9148 347.552 77.1956 325.966 92.2623C325.966 92.2623 314.276 86.4162 292.925 99.9097C271.575 113.403 257.616 130.269 236.482 128.465C215.348 126.662 181.4 104.408 161.612 132.068C161.612 132.068 190.167 132.743 207.704 157.479C225.241 182.216 270.881 179.067 286.62 165.35C302.358 151.633 331.138 141.063 346.202 140.388C346.202 140.388 360.817 132.517 361.715 126.22Z" fill="#410C5A"/>
<path d="M363.239 123.539C362.161 117.418 359.867 110.785 354.972 111.153C345.976 111.828 343.054 112.952 342.605 105.081C342.156 97.2102 331.888 92.2624 327.69 91.3641C327.592 91.3432 327.508 91.3176 327.415 91.2966C326.936 91.6085 326.457 91.9203 325.966 92.2624C325.966 92.2624 344.852 99.4607 339.906 110.255C339.906 110.255 336.983 114.977 338.782 115.877C340.08 116.524 352.705 125.352 359.656 130.23C360.758 128.882 361.517 127.518 361.715 126.22C362.281 125.36 362.79 124.465 363.239 123.539Z" fill="#1D0738"/>
<path d="M338.782 115.877C337.812 115.391 338.217 113.799 338.782 112.433C336.688 111.9 333.842 112.256 330.526 115.5C323.481 122.398 322.434 128.244 306.695 126.145C290.957 124.046 275.367 136.564 261.653 144.661C247.939 152.758 223.657 144.212 205.894 132.967C190.165 123.01 170.566 124.872 162.848 132.143C168.525 132.608 192.333 135.815 207.69 157.48C225.234 182.226 270.881 179.067 286.62 165.351C302.358 151.634 331.138 141.063 346.202 140.388C346.202 140.388 355.409 135.426 359.656 130.23C352.705 125.352 340.08 116.524 338.782 115.877Z" fill="#1D0738"/>
<path d="M326.415 123.296C326.415 123.296 332.037 137.914 349.125 143.311C349.125 143.311 351.824 150.956 368.46 147.584C385.097 144.212 381.49 143.311 381.49 143.311C381.49 143.311 376.993 140.614 379.24 139.038C381.488 137.463 385.318 133.641 385.318 133.641L373.177 118.574C373.177 118.574 361.261 120.823 359.013 124.421C359.013 124.421 356.763 125.845 357.215 119.55C357.666 113.254 351.819 112.503 352.119 118.5C352.419 124.497 344.324 118.2 341.777 115.051C339.229 111.902 333.081 114.302 329.335 118.5C325.589 122.698 326.415 123.296 326.415 123.296Z" fill="#FEC3C7"/>
<path d="M310.453 146.46C310.453 146.46 306.856 137.239 303.859 147.584C300.862 157.929 307.156 179.668 312.852 175.618C312.852 175.618 319.595 158.304 310.453 146.46Z" fill="#ED9F15"/>
<path d="M356.931 140.237C358.581 135.582 359.49 118.8 356.033 131.693C352.575 144.586 349.136 143.311 349.136 143.311C349.136 143.311 350.749 147.856 359.116 148.389C356.391 146.776 355.607 143.937 356.931 140.237Z" fill="#F7A1AA"/>
<path d="M381.502 143.311C381.502 143.311 377.004 140.614 379.252 139.038C381.5 137.463 385.318 133.641 385.318 133.641L383.273 131.104C381.295 133.767 377.849 138.117 375.801 139.038C372.802 140.388 376.55 141.286 380.148 143.227C380.592 143.468 381.017 143.745 381.416 144.056C382.293 143.509 381.502 143.311 381.502 143.311Z" fill="#F7A1AA"/>
<path d="M313.601 151.182L288.421 159.502C288.421 159.502 269.534 153.207 259.866 152.52C250.198 151.834 239.623 148.473 236.708 143.749C233.792 139.024 230.193 137.677 230.193 137.677C230.193 137.677 220.748 134.53 219.624 134.53C218.5 134.53 207.485 139.701 207.485 139.701C207.485 139.701 209.956 142.85 213.768 141.95C213.768 141.95 211.969 143.525 214 151.396C214 151.396 212.651 153.418 216.697 156.567C216.697 156.567 220.22 157.766 218.121 153.118C218.121 153.118 220.215 152.82 219.471 151.17C218.726 149.52 222.019 151.619 223.966 154.468C225.914 157.317 229.213 159.418 232.215 158.978C235.216 158.538 242.408 159.278 254.999 167.073C267.589 174.867 286.327 179.219 290.522 179.368C294.717 179.516 312.108 173.67 318.402 169.472L313.601 151.182Z" fill="#FEC3C7"/>
<path d="M313.601 151.182L309.085 152.669C309.55 155.366 309.73 159.884 307.005 163.77C302.817 169.768 286.92 169.167 286.92 169.167C286.92 169.167 264.136 166.77 252.146 158.673C240.156 150.577 237.157 154.775 235.135 155.899C233.113 157.023 229.739 156.8 226.591 151.626C223.443 146.453 219.171 145.11 219.171 145.11C219.171 145.11 222.093 149.383 220.294 150.733L220.357 150.917C221.346 151.51 222.87 152.876 223.966 154.48C225.916 157.324 229.213 159.418 232.215 158.978C235.216 158.538 242.408 159.279 254.999 167.073C267.589 174.867 286.327 179.219 290.522 179.368C294.717 179.516 312.108 173.67 318.402 169.472L313.601 151.182Z" fill="#F7A1AA"/>
<path d="M228.724 142.862C228.724 142.862 221.53 140.614 219.168 137.914C216.806 135.215 216.921 142.525 219.401 144.549" stroke="#F7A1AA" stroke-miterlimit="10" stroke-linecap="round"/>
<path d="M213.326 144.661C213.326 144.661 218.647 150.844 219.471 151.177" stroke="#F7A1AA" stroke-miterlimit="10" stroke-linecap="round"/>
<path d="M214 151.408C214 151.408 216.36 153.318 217.709 153.318" stroke="#F7A1AA" stroke-miterlimit="10" stroke-linecap="round"/>
<path d="M386.598 107.555L391.833 100.659C391.833 100.659 385.988 99.7608 380.292 94.813C374.596 89.8652 355.712 82.3691 351.963 84.1681C348.215 85.9671 347.775 88.2152 343.27 87.6148C338.766 87.0143 334.128 84.4799 332.5 85.8181C332.5 85.8181 330.55 85.5179 332.048 83.7236C332.048 83.7236 327.702 85.0711 326.953 80.1256C326.953 80.1256 326.652 76.2274 328.002 74.7263C329.351 73.2252 328.6 70.8305 330.699 70.6792C332.797 70.5279 336.397 66.6321 339.394 66.781C342.391 66.93 341.953 69.6296 341.953 69.6296C344.387 69.2473 346.878 69.7246 348.999 70.9794C352.447 73.074 356.642 74.7263 364.437 75.634C372.232 76.5416 405.656 77.4329 415.394 88.2268C415.394 88.2268 417.793 89.8769 415.994 93.7751C414.196 97.6732 408.048 113.713 399.356 120.611L386.598 107.555Z" fill="#FEC3C7"/>
<path d="M402.636 92.4138C405.196 82.8184 396.789 91.0639 385.397 88.5156C374.005 85.9672 367.111 83.861 363.525 82.3692C360.377 81.0567 351.607 80.4353 350.467 85.0177C350.955 84.7034 351.461 84.4197 351.984 84.1682C355.733 82.3692 374.617 89.8654 380.313 94.8132C386.009 99.761 391.854 100.659 391.854 100.659L391.621 100.976C395.556 100.336 401.054 98.3669 402.636 92.4138Z" fill="#F7A1AA"/>
<path d="M415.376 88.2152C415.296 88.1268 415.203 88.0453 415.122 87.9592C414.764 93.924 406.513 107.101 401.736 110.403C397.566 113.292 391.033 108.933 387.631 106.196L386.598 107.555L399.337 120.599C408.03 113.701 414.177 97.6593 415.976 93.7634C417.774 89.8676 415.376 88.2152 415.376 88.2152Z" fill="#F7A1AA"/>
<path d="M327.241 81.1684C327.99 79.9698 337.881 76.2229 337.881 76.2229C337.881 76.2229 342.828 76.5231 336.683 80.8774L332.03 83.726" stroke="#F7A1AA" stroke-miterlimit="10" stroke-linecap="round"/>
<path d="M327.541 76.0716C327.541 76.0716 336.534 72.4737 338.633 72.7739C340.732 73.0741 340.881 74.7242 338.633 76.3719" stroke="#F7A1AA" stroke-miterlimit="10" stroke-linecap="round"/>
<path d="M330.687 70.6746C330.687 70.6746 338.633 68.4265 339.231 69.1759C339.829 69.9253 341.032 71.2704 338.633 72.7739" stroke="#F7A1AA" stroke-miterlimit="10" stroke-linecap="round"/>
<path d="M333.686 82.3693C333.686 82.3693 339.382 79.8209 342.379 81.1707C342.379 81.1707 343.88 78.0219 347.326 78.7713" stroke="#F7A1AA" stroke-miterlimit="10" stroke-linecap="round"/>
<path d="M369.81 119.55C369.81 119.55 379.103 113.853 382.551 109.805C386 105.758 387.796 104.858 387.796 104.858C387.796 104.858 391.091 112.056 398.732 117.15C405.889 121.919 408.623 119.245 408.623 119.245C408.623 119.245 388.987 131.535 388.089 133.783C387.191 136.031 388.689 136.183 387.34 141.58C385.99 146.977 389.899 149.525 392.885 152.823C395.87 156.12 401.878 163.167 394.234 172.763L405.775 172.463C405.775 172.463 408.474 193.753 374.596 193.753C340.718 193.753 350.316 177.11 339.229 169.614C328.141 162.118 317.645 174.862 310.9 175.912C310.9 175.912 316.04 167.829 312.1 154.473C308.533 142.413 307.586 142.662 307.586 142.662C307.586 142.662 313.038 146.653 318.988 143.826C324.258 141.328 335.475 137.979 341.02 139.927C341.02 139.927 346.642 142.741 349.115 143.304C349.115 143.304 354.623 149.376 366.99 147.577C379.357 145.778 384.189 140.155 384.189 140.155C384.189 140.155 389.585 134.758 380.932 132.285C372.278 129.811 369.81 119.55 369.81 119.55Z" fill="#FEC748"/>
<path d="M331.813 315.113C331.813 315.113 291.118 308.364 280.1 298.696C269.083 289.029 263.238 279.806 257.842 290.6C252.446 301.394 257.167 300.944 252.22 309.49C247.274 318.036 241.429 324.783 245.026 336.021C245.026 336.021 245.926 336.922 248.849 332.423C251.771 327.924 263.687 314.659 274.255 315.783C284.824 316.907 329.563 342.314 329.563 342.314C329.563 342.314 335.636 319.842 331.813 315.113Z" fill="#FEC3C7"/>
<path d="M331.813 315.113C331.813 315.113 291.117 308.364 280.1 298.696C269.083 289.029 263.238 279.806 257.842 290.6C252.446 301.394 257.167 300.944 252.22 309.49C251.606 310.554 250.978 311.585 250.359 312.606C253.691 311.319 253.679 307.254 258.521 298.47C264.592 287.453 268.189 303.418 279.207 309.716C290.224 316.013 313.606 319.611 320.575 325.006C325.405 328.746 324.728 335.397 323.86 339.133C327.378 341.081 329.568 342.323 329.568 342.323C329.568 342.323 335.636 319.842 331.813 315.113Z" fill="#F7A1AA"/>
<path d="M392.968 393.828C392.968 393.828 395.891 412.493 396.114 415.19C396.338 417.887 397.913 441.502 389.366 451.847C380.82 462.192 385.993 466.239 390.265 470.961C394.537 475.683 403.83 477.71 406.229 486.402C408.628 495.095 420.916 490.591 430.509 490.591C440.102 490.591 440.402 481.897 429.611 482.795C418.819 483.693 415.52 466.304 415.52 466.304C415.52 466.304 412.223 457.609 409.826 454.61C407.429 451.61 407.427 445.016 411.024 432.733C414.622 420.45 421.516 397.359 421.516 397.359L392.968 393.828Z" fill="#FEC3C7"/>
<path d="M406.832 482.506C404.737 477.71 401.436 476.509 393.336 469.313C385.237 462.117 395.135 456.12 400.828 444.425C406.522 432.731 406.227 408.446 408.025 404.848C409.363 402.169 416.679 401.485 420.334 401.31L421.514 397.354L392.962 393.83C392.962 393.83 395.884 412.495 396.107 415.192C396.331 417.89 397.906 441.505 389.36 451.849C380.813 462.194 385.986 466.241 390.258 470.963C394.53 475.685 403.823 477.712 406.222 486.405C407.453 490.871 411.294 491.855 416.039 491.757C410.112 491.106 408.472 486.256 406.832 482.506Z" fill="#F7A1AA"/>
<path d="M443.402 322.388C443.402 322.388 443.104 326.577 441.308 334.683C440.786 337.031 439.735 342.412 438.515 349.319C438.364 350.192 438.211 351.083 438.05 352.007C436.621 360.257 435.025 370.241 433.797 379.778C433.68 380.686 433.564 381.584 433.455 382.485C432.359 391.454 431.63 399.837 431.719 405.758C431.719 405.758 431.719 400.659 410.443 399.758C389.166 398.857 393.355 395.569 393.355 395.569C393.355 395.569 387.356 365.885 394.551 356.287C401.745 346.689 411.341 334.096 406.845 328.699C402.35 323.302 399.048 321.799 399.048 321.799C399.048 321.799 400.845 337.99 391.556 356.582C391.556 356.582 382.858 361.684 362.471 358.984C356.598 358.212 350.853 357.376 345.518 356.529C344.587 356.385 343.684 356.233 342.784 356.089C330.896 354.118 321.48 352.077 318.106 350.287C318.106 350.287 323.018 345.374 326.452 336.677C326.821 335.746 327.172 334.766 327.504 333.736C329.445 327.661 330.125 321.254 329.5 314.908C331.841 314.531 334.202 314.298 336.571 314.21V314.21C339.155 314.084 341.743 314.105 344.324 314.273V314.273C349.89 314.631 356.284 315.755 362.148 318.508C361.934 318.276 358.488 314.454 353.741 308.354C353.192 307.642 352.617 306.905 352.033 306.134C347.507 300.176 342.112 292.496 337.281 284.058C336.816 283.248 336.364 282.429 335.915 281.621C332.993 276.306 330.331 270.736 328.279 265.142C318.387 238.145 338.172 222.871 350.018 210.127C350.018 210.127 374.75 211.7 386.891 224.293C386.891 224.293 383.966 237.112 384.192 238.236C384.264 238.632 389.578 243.356 397.133 251.315C397.736 251.953 398.355 252.602 398.995 253.284C406.464 261.266 413.426 269.708 419.841 278.561C420.371 279.291 420.895 280.02 421.416 280.767C429.976 292.927 438.113 307.095 443.402 322.388Z" fill="#01948E"/>
<path d="M349.125 174.12C347.1 165.35 345.527 160.854 337.209 154.105C331.099 149.15 318.204 151.594 311.782 153.242C311.887 153.639 311.994 154.051 312.103 154.477C315.551 167.976 310.902 175.916 310.902 175.916C317.65 174.867 328.139 162.123 339.231 169.619C349.281 176.41 342.354 190.706 366.15 193.336C355.468 188.828 350.839 181.555 349.125 174.12Z" fill="#F4AF25"/>
<path d="M394.262 113.52C389.795 109.193 387.796 104.858 387.796 104.858C387.796 104.858 385.997 105.756 382.551 109.805C379.105 113.855 369.81 119.55 369.81 119.55C369.81 119.55 370.941 124.232 374.34 128.035C377.318 126.783 381.586 124.439 385.997 120.148C389.239 116.997 392 114.87 394.262 113.52Z" fill="#F4AF25"/>
<path opacity="0.5" d="M419.838 278.535C417.34 279.967 414.509 280.718 411.629 280.713C408.447 280.716 405.331 279.806 402.651 278.09C399.971 276.374 397.839 273.926 396.509 271.035C395.178 268.143 394.705 264.931 395.145 261.779C395.586 258.627 396.921 255.667 398.993 253.252C398.362 252.57 397.743 251.92 397.131 251.283C394.074 254.726 392.347 259.149 392.262 263.754C392.177 268.359 393.74 272.842 396.669 276.396C399.598 279.95 403.7 282.34 408.236 283.135C412.771 283.931 417.441 283.079 421.404 280.734C420.892 279.994 420.369 279.273 419.838 278.535Z" fill="white"/>
<path opacity="0.5" d="M398.362 304.1C395.754 304.1 393.182 304.706 390.849 305.87C388.516 307.034 386.485 308.725 384.918 310.81C385.647 311.368 386.357 311.917 387.049 312.457C388.23 310.882 389.727 309.571 391.444 308.607C393.161 307.643 395.06 307.048 397.02 306.86C398.98 306.672 400.957 306.895 402.826 307.515C404.695 308.134 406.414 309.137 407.873 310.459C409.332 311.781 410.5 313.393 411.301 315.192C412.102 316.99 412.519 318.937 412.526 320.906C412.532 322.875 412.128 324.824 411.338 326.628C410.549 328.432 409.392 330.051 407.941 331.383C408.054 332.638 407.919 333.903 407.546 335.106C410.596 333.127 412.924 330.214 414.183 326.802C415.442 323.391 415.564 319.663 414.531 316.176C413.498 312.69 411.365 309.631 408.451 307.456C405.537 305.281 401.998 304.107 398.362 304.109V304.1Z" fill="white"/>
<path opacity="0.5" d="M349.124 257.999C345.804 258.002 342.557 258.984 339.792 260.822C337.026 262.66 334.863 265.273 333.574 268.334C334.191 269.199 334.852 270.031 335.555 270.827C336.229 268.554 337.463 266.486 339.143 264.814C340.824 263.142 342.897 261.918 345.174 261.256C347.45 260.593 349.856 260.513 352.171 261.022C354.487 261.531 356.637 262.613 358.426 264.169C360.214 265.726 361.583 267.706 362.408 269.93C363.232 272.153 363.485 274.547 363.144 276.894C362.803 279.24 361.878 281.463 360.455 283.359C359.032 285.256 357.155 286.764 354.997 287.746C355.76 288.368 356.545 288.98 357.324 289.608C360.588 287.793 363.158 284.945 364.629 281.511C366.1 278.078 366.389 274.253 365.452 270.637C364.514 267.021 362.403 263.818 359.449 261.532C356.495 259.246 352.866 258.006 349.131 258.006L349.124 257.999Z" fill="white"/>
<path opacity="0.5" d="M358.327 211.235C358.29 213.669 357.625 216.053 356.398 218.155C355.17 220.258 353.421 222.008 351.319 223.236C349.217 224.464 346.834 225.129 344.4 225.167C341.966 225.205 339.564 224.613 337.425 223.451C336.832 224.149 336.248 224.847 335.683 225.564C338.255 227.077 341.187 227.871 344.171 227.866C348.506 227.86 352.674 226.187 355.81 223.193C358.946 220.199 360.81 216.113 361.017 211.782C360.088 211.575 359.188 211.395 358.327 211.235Z" fill="white"/>
<path opacity="0.5" d="M437.708 349.303C433.609 349.304 429.651 350.799 426.574 353.507C423.497 356.216 421.511 359.953 420.989 364.019C420.466 368.085 421.443 372.203 423.735 375.602C426.028 379 429.48 381.447 433.445 382.485C433.555 381.584 433.678 380.686 433.788 379.778C430.508 378.833 427.68 376.735 425.824 373.87C423.967 371.005 423.208 367.566 423.685 364.186C424.162 360.806 425.844 357.711 428.42 355.472C430.997 353.233 434.295 352 437.708 352C437.818 352 437.941 352 438.041 352C438.204 351.069 438.357 350.185 438.506 349.312C438.248 349.31 437.978 349.303 437.708 349.303Z" fill="white"/>
<path opacity="0.5" d="M391.24 379.443C391.305 380.416 391.384 381.37 391.472 382.294C394.376 383.182 396.919 384.978 398.727 387.418C400.535 389.858 401.513 392.813 401.517 395.85C401.519 396.925 401.395 397.997 401.149 399.043C401.966 399.153 402.867 399.241 403.855 399.332C404.76 395.027 403.948 390.539 401.593 386.824C399.238 383.109 395.525 380.46 391.246 379.443H391.24Z" fill="white"/>
<path opacity="0.2" d="M329.789 333.561C329.021 333.559 328.254 333.613 327.495 333.722C327.161 334.747 326.811 335.728 326.443 336.663C327.537 336.391 328.661 336.255 329.789 336.258C332.139 336.258 334.453 336.842 336.521 337.959C338.59 339.076 340.347 340.691 341.636 342.657C342.924 344.623 343.703 346.879 343.902 349.222C344.101 351.564 343.713 353.92 342.775 356.075C343.675 356.219 344.583 356.371 345.509 356.515C346.266 354.575 346.653 352.51 346.651 350.427C346.646 345.955 344.868 341.668 341.707 338.506C338.546 335.345 334.259 333.566 329.789 333.561Z" fill="white"/>
<g opacity="0.2">
<path d="M378.054 353.35C374.719 353.35 371.459 352.361 368.686 350.507C365.913 348.654 363.752 346.02 362.475 342.939C361.199 339.857 360.865 336.466 361.515 333.194C362.166 329.923 363.771 326.918 366.129 324.559C368.487 322.2 371.492 320.594 374.763 319.943C378.033 319.291 381.424 319.625 384.505 320.901C387.586 322.178 390.22 324.339 392.073 327.112C393.926 329.885 394.916 333.146 394.916 336.482C394.911 340.953 393.133 345.241 389.972 348.403C386.811 351.565 382.525 353.344 378.054 353.35V353.35ZM378.054 322.315C375.252 322.315 372.513 323.146 370.183 324.702C367.853 326.259 366.037 328.472 364.965 331.061C363.892 333.65 363.611 336.499 364.158 339.247C364.704 341.996 366.054 344.521 368.035 346.503C370.016 348.484 372.54 349.834 375.288 350.38C378.036 350.927 380.885 350.646 383.473 349.573C386.062 348.501 388.274 346.684 389.831 344.354C391.387 342.024 392.217 339.284 392.217 336.482C392.209 332.728 390.714 329.131 388.059 326.478C385.404 323.825 381.807 322.332 378.054 322.327V322.315Z" fill="white"/>
</g>
<path opacity="0.3" d="M340.581 280.937C339.006 280.934 337.439 281.155 335.927 281.595C336.376 282.412 336.825 283.224 337.293 284.032C338.37 283.768 339.476 283.635 340.585 283.636C344.34 283.644 347.938 285.139 350.593 287.794C353.248 290.449 354.743 294.048 354.751 297.803C354.755 300.789 353.807 303.698 352.045 306.109C352.629 306.879 353.208 307.617 353.753 308.329C355.737 305.849 356.98 302.858 357.339 299.702C357.698 296.546 357.159 293.353 355.783 290.49C354.407 287.628 352.25 285.212 349.561 283.522C346.873 281.832 343.761 280.936 340.585 280.937H340.581ZM336.569 314.182C337.882 314.504 339.229 314.667 340.581 314.668C341.84 314.67 343.095 314.528 344.322 314.245C341.741 314.077 339.153 314.056 336.569 314.182V314.182Z" fill="white"/>
<path opacity="0.8" d="M339.929 314.107C336.434 314.084 332.943 314.347 329.491 314.894C331.585 336.77 318.09 350.269 318.09 350.269C320.1 351.334 324.263 352.491 329.807 353.669C331.794 350.687 334.542 346.038 337.651 338.502C342.288 327.28 341.313 318.853 339.929 314.107Z" fill="#FEC748"/>
<path opacity="0.8" d="M391.733 384.831C392.431 390.968 393.343 395.55 393.343 395.55C393.343 395.55 389.155 398.848 410.429 399.739C431.703 400.631 431.714 405.734 431.714 405.734C431.658 402.174 431.898 397.719 432.34 392.778C425.872 388.992 415.071 387.288 405.333 386.846C399.579 386.595 395.09 385.757 391.733 384.831Z" fill="#FEC748"/>
<path opacity="0.8" d="M386.898 224.268C374.757 211.675 350.025 210.102 350.025 210.102C347.812 212.48 345.325 214.949 342.812 217.567C349.776 217.688 365.254 219.788 384.927 233.47C385.723 229.411 386.898 224.268 386.898 224.268Z" fill="#FEC748"/>
<path opacity="0.4" d="M426.018 338.883C420.711 357.883 406.566 379.741 415.82 400.091C414.191 399.946 412.402 399.818 410.433 399.739C407.888 399.632 405.712 399.486 403.849 399.325C402.86 399.234 401.959 399.146 401.143 399.036C390.539 397.752 393.345 395.546 393.345 395.546C393.345 395.546 392.159 389.662 391.465 382.28C391.384 381.349 391.305 380.402 391.233 379.429C390.639 370.832 390.947 361.044 394.534 356.259C399.607 349.51 405.857 341.255 407.539 335.081C407.912 333.877 408.047 332.612 407.934 331.357C407.842 330.368 407.457 329.429 406.829 328.66C402.332 323.263 399.032 321.759 399.032 321.759C399.032 321.759 399.058 322.011 399.083 322.458C396.305 319.804 392.103 316.376 387.042 312.427C386.352 311.887 385.641 311.338 384.911 310.779C376.837 304.538 366.943 297.162 357.31 289.571C356.538 288.949 355.754 288.337 354.984 287.709C349.399 283.257 343.948 278.761 339.066 274.378C337.812 273.262 336.634 272.063 335.541 270.79C334.839 269.993 334.178 269.161 333.561 268.297C327.534 260.005 326.115 250.631 326.799 241.999C328.498 235.776 331.816 230.379 335.676 225.522C336.241 224.81 336.825 224.1 337.419 223.409C341.607 218.496 346.214 214.142 350.011 210.06C352.8 210.284 355.574 210.662 358.32 211.193C359.174 211.354 360.075 211.533 361.01 211.74C362.583 212.082 364.267 212.496 365.982 212.992C361.304 217.144 358.071 222.68 356.754 228.796C354.057 241.091 362.152 255.188 389.429 277.974C416.707 300.76 431.71 318.492 426.018 338.883Z" fill="#02594F"/>
<path opacity="0.4" d="M379.552 336.782C384.534 329.8 383.689 316.886 382.563 308.994C369.372 298.878 352.215 286.187 339.082 274.413C328.407 264.844 325.971 252.861 326.815 242.043C325.007 248.695 325.049 256.277 328.29 265.118C338.182 292.115 362.166 318.492 362.166 318.492C347.475 311.596 329.491 314.894 329.491 314.894C330.343 323.564 328.758 332.3 324.914 340.117C329.773 338.461 334.852 337.54 339.983 337.385C358.56 336.782 372.055 347.278 379.552 336.782Z" fill="#014238"/>
<path opacity="0.2" d="M283.476 430.466C280.842 434.539 277.336 437.976 273.683 440.795C273.108 441.246 272.519 441.67 271.956 442.079C267.534 445.212 262.773 447.835 257.763 449.899V449.899C256.548 450.404 255.643 450.741 255.12 450.928C254.511 452.678 253.942 454.392 253.412 456.071C252.847 457.818 252.319 459.518 251.827 461.172C251.322 462.85 250.859 464.484 250.417 466.06C248.284 473.738 246.558 481.523 245.245 489.384H243.167C243.322 488.453 243.497 487.424 243.693 486.298C243.425 486.263 243.181 486.125 243.014 485.914C242.846 485.702 242.768 485.433 242.797 485.164C242.797 485.083 243.136 481.832 242.764 475.39C242.713 474.459 242.645 473.461 242.559 472.397C242.25 468.599 241.717 463.96 240.821 458.466C240.77 458.156 240.719 457.837 240.668 457.519C240.37 455.75 240.03 453.897 239.66 451.963C239.584 451.98 239.506 451.991 239.428 451.996C239.265 451.993 239.105 451.95 238.962 451.87C237.232 450.934 235.55 449.911 233.922 448.805C233.378 448.435 232.801 448.033 232.205 447.611C228.643 445.105 225.329 442.263 222.309 439.124C221.844 438.63 221.379 438.128 220.913 437.602C218.147 434.465 215.627 430.853 213.877 426.873C213.877 426.873 213.877 426.873 213.877 426.852C213.815 426.727 213.78 426.591 213.772 426.453C213.765 426.314 213.785 426.175 213.833 426.044C213.881 425.913 213.954 425.794 214.05 425.692C214.145 425.591 214.26 425.51 214.387 425.454C214.514 425.399 214.652 425.369 214.791 425.368C214.93 425.367 215.068 425.394 215.196 425.448C215.324 425.501 215.44 425.58 215.537 425.68C215.634 425.78 215.71 425.898 215.759 426.028C215.873 426.287 215.992 426.543 216.108 426.801C217.491 429.675 219.225 432.367 221.272 434.814C221.981 435.677 222.723 436.51 223.473 437.313C226.432 440.427 229.684 443.249 233.182 445.74C233.778 446.171 234.346 446.573 234.902 446.943C236.824 448.249 238.376 449.175 239.22 449.659C238.654 446.867 237.996 443.91 237.245 440.79C237.012 439.792 236.763 438.784 236.496 437.746C236.012 435.81 235.486 433.827 234.932 431.77C234.467 430.113 234.001 428.425 233.492 426.687C233.453 426.548 233.442 426.402 233.461 426.259C233.481 426.115 233.529 425.977 233.604 425.854C233.738 425.639 233.947 425.48 234.19 425.409C234.403 425.349 234.63 425.356 234.839 425.43V425.43C234.99 425.482 235.127 425.57 235.236 425.686C235.346 425.802 235.425 425.944 235.467 426.098C236.187 428.58 236.859 430.985 237.482 433.313C241.75 449.329 243.665 461.542 244.477 470.1C244.57 471.128 244.651 472.118 244.709 473.044C244.905 475.625 244.986 477.784 245.017 479.56C245.633 476.67 246.385 473.428 247.281 469.909C247.671 468.366 248.093 466.772 248.556 465.126C249.635 461.214 250.901 457.027 252.372 452.636C255.516 443.221 259.232 434.007 263.501 425.046C263.584 424.869 263.715 424.72 263.88 424.616C264.045 424.512 264.236 424.457 264.431 424.457C264.585 424.457 264.736 424.492 264.873 424.56C264.993 424.614 265.1 424.692 265.189 424.79C265.277 424.887 265.345 425.001 265.388 425.125C265.439 425.254 265.462 425.392 265.457 425.53C265.452 425.668 265.418 425.804 265.357 425.928C261.865 433.258 258.748 440.761 256.018 448.407C256.799 448.088 257.767 447.688 258.877 447.183C263.242 445.219 267.398 442.82 271.281 440.022C271.877 439.601 272.463 439.149 273.05 438.677C276.331 436.073 279.428 432.977 281.752 429.368C281.823 429.249 281.917 429.146 282.028 429.064C282.139 428.983 282.266 428.925 282.4 428.893C282.535 428.861 282.674 428.857 282.81 428.881C282.946 428.904 283.076 428.955 283.192 429.029C283.308 429.104 283.408 429.201 283.486 429.315C283.563 429.429 283.617 429.558 283.644 429.693C283.671 429.829 283.671 429.968 283.643 430.103C283.614 430.239 283.559 430.367 283.481 430.48L283.476 430.466Z" fill="#F2A408"/>
<path opacity="0.2" d="M290.385 463.139L288.956 463.942L286.806 465.136L272.231 473.281L270.328 474.342L269.011 475.073L267.212 476.083L262.903 478.49C262.753 478.577 262.583 478.623 262.409 478.622C262.247 478.619 262.086 478.579 261.942 478.505C261.797 478.43 261.671 478.323 261.574 478.192L259.806 480.794L253.989 489.374H251.501L258.782 478.669L263.813 471.261L265.046 469.439L268.471 464.41L270.1 461.992L276.912 451.956C276.945 451.908 276.984 451.864 277.026 451.824V451.824C277.195 451.649 277.419 451.54 277.66 451.515C277.901 451.491 278.143 451.552 278.343 451.689C278.567 451.844 278.72 452.082 278.77 452.35C278.82 452.617 278.763 452.894 278.611 453.12L278.281 453.602L270.649 464.847L269.004 467.265L266.309 471.235L265.076 473.046L263.017 476.072L266.042 474.384L267.84 473.386L269.934 472.204L271.838 471.145L286.711 462.832L289.054 461.526L289.384 461.34C289.502 461.274 289.631 461.231 289.765 461.215C289.899 461.199 290.034 461.209 290.164 461.246C290.294 461.282 290.416 461.344 290.522 461.427C290.628 461.51 290.716 461.613 290.782 461.731C290.849 461.848 290.891 461.978 290.907 462.112C290.923 462.246 290.913 462.381 290.877 462.511C290.84 462.641 290.779 462.763 290.696 462.869C290.612 462.975 290.509 463.063 290.392 463.13L290.385 463.139Z" fill="#F2A408"/>
<path opacity="0.2" d="M260.697 453.744C255.811 437.053 245.217 429.133 234.827 425.507L234.928 429.107L233.59 425.849L233.245 424.997C225.113 422.486 217.288 422.479 212.611 422.819C211.5 424.273 210.479 425.793 209.554 427.371H209.542C204.394 436.224 202.404 446.563 203.897 456.695V456.706C203.949 457.097 204.009 457.488 204.081 457.87C204.076 457.894 204.076 457.919 204.081 457.942C204.398 459.793 204.837 461.621 205.396 463.414V463.414C205.792 464.737 206.258 466.038 206.792 467.312C207.099 468.073 207.429 468.825 207.788 469.576C210.017 474.244 213.031 478.495 216.697 482.144C216.697 482.155 216.697 482.155 216.697 482.165C217.992 483.456 219.367 484.664 220.813 485.783C221.092 486.016 221.369 486.214 221.658 486.43C222.409 486.996 223.189 487.531 223.985 488.046C224.683 488.511 225.413 488.96 226.144 489.384H231.677L231.121 491.853C231.761 492.121 232.408 492.377 233.057 492.614L233.376 491.204L233.785 489.384H245.245C245.193 489.733 245.14 490.082 245.079 490.391C245.389 490.063 245.666 489.723 245.933 489.384H256.29C261.493 482.695 265.839 471.273 260.697 453.744Z" fill="#F2A408"/>
<path d="M245.943 489.384H186.246C185.207 488.107 184.258 486.76 183.408 485.35C183.131 484.929 182.884 484.496 182.635 484.054C178.79 477.206 177.133 469.345 177.885 461.528C178.637 453.71 181.762 446.309 186.842 440.32L196.561 450.56L198.741 452.855L197.454 449.829L191.47 435.735C194.652 433.086 198.239 430.964 202.094 429.452C204.497 428.502 206.992 427.805 209.54 427.373H209.552C210.979 427.116 212.421 426.951 213.87 426.88C214.612 426.827 215.352 426.808 216.092 426.808C218.132 426.806 220.168 426.971 222.181 427.301L221.251 434.821L220.902 437.613L220.625 439.887L220.348 442.182L221.653 440.134L222.312 439.114L223.475 437.304L228.803 428.972C230.926 429.713 232.978 430.643 234.935 431.751C235.807 432.233 236.652 432.747 237.494 433.303C244.01 437.654 249.033 443.902 251.883 451.202C252.069 451.668 252.244 452.133 252.397 452.613C252.801 453.747 253.149 454.9 253.437 456.069C254.839 461.824 254.892 467.825 253.592 473.604C252.292 479.383 249.674 484.784 245.943 489.384Z" fill="#7BD6CB"/>
<path opacity="0.5" d="M237.673 438.942C237.55 439.561 237.406 440.178 237.231 440.783C236.648 442.904 235.864 444.965 234.888 446.936C234.588 447.574 234.26 448.191 233.92 448.798C230.36 455.27 225.476 460.321 222.926 462.727C222.358 463.262 221.907 463.658 221.609 463.921C221.609 464.261 221.639 464.591 221.649 464.919C221.751 467.014 221.881 469.022 222.018 470.97C222.091 471.978 222.174 472.965 222.251 473.933C222.717 479.272 223.342 484.033 223.98 488.036C224.052 488.488 224.124 488.941 224.196 489.374H220.136C219.315 487.45 218.193 485.032 216.713 482.141C214.903 478.65 212.525 474.461 209.5 469.632C209.372 469.705 209.227 469.743 209.079 469.744C209.038 469.748 208.997 469.748 208.956 469.744C208.853 469.744 208.463 469.681 207.813 469.59C203.741 468.971 189.885 466.309 181.288 457.698C181.094 457.505 180.985 457.244 180.984 456.971C180.982 456.698 181.09 456.436 181.282 456.242C181.474 456.048 181.736 455.939 182.009 455.938C182.281 455.937 182.544 456.044 182.737 456.236C190.06 463.572 201.817 466.411 206.806 467.326C207.339 467.419 207.792 467.503 208.153 467.558C207.288 466.229 206.372 464.853 205.405 463.432C202.885 459.739 200.007 455.752 196.715 451.477C196.616 451.349 196.55 451.198 196.523 451.039C196.497 450.879 196.509 450.716 196.561 450.562C196.614 450.353 196.737 450.168 196.91 450.039C197.066 449.915 197.256 449.843 197.454 449.832C197.625 449.816 197.796 449.843 197.953 449.911C198.109 449.98 198.246 450.087 198.35 450.223C200.416 452.908 202.33 455.484 204.09 457.949C212.874 470.211 217.965 479.625 220.813 485.788C221.234 486.703 221.616 487.547 221.944 488.318C221.853 487.71 221.749 487.082 221.658 486.435C221.03 482.26 220.443 477.382 220.029 471.959C219.945 471.003 219.876 470.025 219.813 469.039C219.627 466.139 219.485 463.092 219.422 459.925C219.392 458.235 219.371 456.508 219.371 454.758C219.392 450.283 219.557 445.603 219.906 440.778C219.918 440.57 219.995 440.371 220.126 440.209C220.257 440.047 220.436 439.929 220.636 439.873C220.755 439.833 220.881 439.818 221.006 439.831C221.275 439.857 221.524 439.986 221.7 440.192C221.876 440.397 221.966 440.662 221.951 440.932C221.486 447.448 221.367 453.669 221.486 459.492C221.486 460.067 221.507 460.656 221.528 461.21C221.693 461.056 221.856 460.891 222.042 460.716C224.601 458.205 229.022 453.462 232.215 447.609C232.554 446.992 232.873 446.376 233.18 445.747C234.306 443.46 235.142 441.041 235.67 438.547C235.711 438.346 235.812 438.162 235.959 438.019C236.106 437.876 236.292 437.78 236.494 437.744C236.621 437.711 236.755 437.711 236.882 437.744C237.144 437.8 237.374 437.957 237.522 438.182C237.67 438.406 237.724 438.679 237.673 438.942V438.942Z" fill="#01C2AF"/>
<path opacity="0.5" d="M253.205 462.685L250.412 466.081L247.276 469.888L244.716 473.028L242.781 475.383L236.265 483.314C236.17 483.432 236.05 483.528 235.913 483.594C235.776 483.66 235.626 483.694 235.474 483.696C235.351 483.692 235.229 483.668 235.114 483.624L234.157 487.841L233.806 489.374H231.698L231.996 488.057L232.757 484.703L238.858 457.884C238.918 457.619 239.08 457.389 239.31 457.244C239.539 457.099 239.817 457.052 240.081 457.111C240.326 457.161 240.543 457.3 240.689 457.502C240.775 457.621 240.835 457.757 240.865 457.9C240.895 458.044 240.894 458.192 240.863 458.335L240.842 458.449L235.782 480.652L242.58 472.381L244.484 470.074L248.577 465.087L251.641 461.363C251.702 461.29 251.772 461.225 251.848 461.168C252.053 461.031 252.299 460.972 252.543 461.002C252.788 461.031 253.013 461.147 253.18 461.328C253.346 461.509 253.442 461.744 253.45 461.99C253.459 462.236 253.379 462.477 253.226 462.669L253.205 462.685Z" fill="#01C2AF"/>
<path opacity="0.5" d="M197.457 485.122L210.808 489.996H205.922L196.989 486.738L196.873 486.696C196.675 486.624 196.513 486.479 196.418 486.292C196.323 486.104 196.304 485.887 196.363 485.686C196.365 485.665 196.371 485.645 196.382 485.627C196.419 485.523 196.476 485.428 196.55 485.346C196.624 485.264 196.714 485.198 196.814 485.151C196.914 485.104 197.022 485.077 197.133 485.072C197.243 485.067 197.353 485.084 197.457 485.122V485.122Z" fill="#01C2AF"/>
<path opacity="0.5" d="M190.772 474.156L206.222 489.384H203.299L189.322 475.618C189.226 475.523 189.15 475.409 189.098 475.285C189.046 475.16 189.018 475.026 189.018 474.891C189.017 474.756 189.043 474.622 189.095 474.497C189.146 474.372 189.221 474.258 189.316 474.162C189.412 474.066 189.525 473.99 189.649 473.938C189.774 473.885 189.908 473.858 190.043 473.858C190.178 473.857 190.312 473.883 190.437 473.934C190.562 473.986 190.676 474.061 190.772 474.156V474.156Z" fill="#01C2AF"/>
<path d="M331.52 489.996H309.099" stroke="#FEC748" stroke-miterlimit="10"/>
<path opacity="0.7" d="M554.823 489.789H112.387V492.705H554.823V489.789Z" fill="url(#paint0_linear_6009_436)"/>
<path opacity="0.7" d="M459.836 492.081C462.828 492.081 465.253 489.655 465.253 486.663C465.253 483.671 462.828 481.245 459.836 481.245C456.844 481.245 454.419 483.671 454.419 486.663C454.419 489.655 456.844 492.081 459.836 492.081Z" fill="#F9D58C"/>
<path opacity="0.7" d="M347.352 492.081C351.493 492.081 354.851 488.723 354.851 484.58C354.851 480.438 351.493 477.079 347.352 477.079C343.21 477.079 339.852 480.438 339.852 484.58C339.852 488.723 343.21 492.081 347.352 492.081Z" fill="#F9D58C"/>
<path d="M363.183 472.911C364.563 472.911 365.682 471.792 365.682 470.412C365.682 469.031 364.563 467.912 363.183 467.912C361.803 467.912 360.684 469.031 360.684 470.412C360.684 471.792 361.803 472.911 363.183 472.911Z" fill="#F9D58C"/>
<path d="M279.863 387.905C281.243 387.905 282.362 386.786 282.362 385.406C282.362 384.025 281.243 382.906 279.863 382.906C278.483 382.906 277.364 384.025 277.364 385.406C277.364 386.786 278.483 387.905 279.863 387.905Z" fill="#F9D58C"/>
<path d="M354.018 374.572C355.398 374.572 356.517 373.453 356.517 372.073C356.517 370.692 355.398 369.573 354.018 369.573C352.638 369.573 351.519 370.692 351.519 372.073C351.519 373.453 352.638 374.572 354.018 374.572Z" fill="#F9D58C"/>
<path d="M341.672 420.925C341.651 421.199 341.549 421.461 341.379 421.678C341.209 421.895 340.979 422.057 340.718 422.143C340.456 422.229 340.175 422.236 339.91 422.163C339.644 422.09 339.406 421.94 339.226 421.732C339.045 421.525 338.93 421.268 338.895 420.995C338.86 420.722 338.907 420.444 339.029 420.197C339.151 419.951 339.343 419.745 339.582 419.608C339.82 419.47 340.094 419.406 340.369 419.423C340.553 419.435 340.734 419.484 340.899 419.566C341.065 419.648 341.213 419.762 341.334 419.902C341.455 420.041 341.548 420.204 341.606 420.379C341.664 420.555 341.686 420.74 341.672 420.925V420.925Z" fill="#F9D58C"/>
<path d="M326.992 383.577C326.97 383.851 326.868 384.113 326.698 384.329C326.528 384.546 326.298 384.707 326.036 384.793C325.775 384.879 325.494 384.886 325.229 384.813C324.963 384.739 324.726 384.589 324.545 384.381C324.365 384.173 324.25 383.917 324.215 383.644C324.18 383.371 324.227 383.093 324.349 382.847C324.471 382.6 324.664 382.395 324.902 382.257C325.141 382.12 325.414 382.056 325.689 382.073C325.874 382.085 326.054 382.133 326.22 382.216C326.386 382.298 326.534 382.412 326.655 382.552C326.776 382.692 326.869 382.855 326.926 383.03C326.984 383.206 327.006 383.392 326.992 383.577Z" fill="#F9D58C"/>
<path d="M371.985 411.911C371.964 412.185 371.861 412.447 371.691 412.664C371.521 412.88 371.291 413.042 371.03 413.128C370.768 413.214 370.487 413.22 370.222 413.147C369.957 413.074 369.719 412.924 369.539 412.716C369.358 412.508 369.244 412.251 369.209 411.978C369.174 411.705 369.22 411.428 369.343 411.181C369.465 410.934 369.657 410.729 369.896 410.592C370.134 410.454 370.408 410.39 370.682 410.408C370.867 410.419 371.048 410.468 371.213 410.55C371.379 410.632 371.527 410.747 371.648 410.887C371.77 411.026 371.862 411.189 371.92 411.365C371.978 411.541 372 411.726 371.985 411.911V411.911Z" fill="#F9D58C"/>
<path d="M259.601 388.841C259.579 389.115 259.477 389.377 259.307 389.593C259.137 389.81 258.907 389.971 258.645 390.057C258.384 390.143 258.103 390.15 257.838 390.077C257.572 390.004 257.335 389.853 257.154 389.645C256.974 389.437 256.859 389.181 256.824 388.908C256.79 388.635 256.836 388.357 256.958 388.111C257.081 387.864 257.273 387.659 257.511 387.522C257.75 387.384 258.023 387.32 258.298 387.337C258.67 387.364 259.016 387.538 259.261 387.819C259.505 388.101 259.627 388.469 259.601 388.841V388.841Z" fill="#F9D58C"/>
<path d="M346.519 461.245C346.497 461.519 346.395 461.781 346.225 461.997C346.055 462.214 345.824 462.375 345.563 462.461C345.301 462.547 345.02 462.554 344.755 462.481C344.49 462.407 344.252 462.257 344.072 462.049C343.892 461.841 343.777 461.585 343.742 461.312C343.707 461.039 343.754 460.761 343.876 460.515C343.998 460.268 344.19 460.063 344.429 459.925C344.667 459.788 344.941 459.724 345.216 459.741C345.4 459.753 345.581 459.801 345.747 459.883C345.913 459.966 346.06 460.08 346.182 460.22C346.303 460.36 346.395 460.523 346.453 460.698C346.511 460.874 346.533 461.06 346.519 461.245Z" fill="#F9D58C"/>
<path d="M384.483 481.082C384.461 481.357 384.359 481.618 384.189 481.835C384.019 482.051 383.788 482.213 383.527 482.299C383.266 482.385 382.985 482.392 382.719 482.318C382.454 482.245 382.216 482.095 382.036 481.887C381.856 481.679 381.741 481.422 381.706 481.149C381.671 480.876 381.718 480.599 381.84 480.352C381.962 480.106 382.155 479.901 382.393 479.763C382.631 479.625 382.905 479.561 383.18 479.579C383.364 479.591 383.545 479.639 383.711 479.721C383.877 479.803 384.025 479.918 384.146 480.058C384.267 480.198 384.359 480.36 384.417 480.536C384.475 480.712 384.497 480.898 384.483 481.082V481.082Z" fill="#F9D58C"/>
<path opacity="0.2" d="M211.539 324.571C219.822 324.571 226.537 309.459 226.537 290.818C226.537 272.177 219.822 257.066 211.539 257.066C203.255 257.066 196.54 272.177 196.54 290.818C196.54 309.459 203.255 324.571 211.539 324.571Z" fill="#F9D58C"/>
<defs>
<linearGradient id="paint0_linear_6009_436" x1="112.387" y1="491.245" x2="554.823" y2="491.245" gradientUnits="userSpaceOnUse">
<stop stop-color="#FFFBF1"/>
<stop offset="0.5" stop-color="#FEC748"/>
<stop offset="1" stop-color="#FFEEC7"/>
</linearGradient>
</defs>
</svg>
