<svg width="160" height="126" viewBox="0 0 160 126" fill="none" xmlns="http://www.w3.org/2000/svg">
<path d="M70.8694 56.3084C73.2071 67.4749 80.5562 83.0557 95.6631 92.9635C110.299 103.316 127.744 103.845 138.112 98.8552C148.907 94.0114 152.626 83.6487 149.686 75.5893C146.723 67.1599 139.865 61.4328 133.35 57.7444C126.576 54.0013 120.145 52.2965 112.021 50.6548C104.113 49.0638 95.7591 46.5669 89.1473 43.096C82.4387 39.8872 77.472 35.704 74.1061 36.8006C71.0551 37.7003 68.4564 44.7974 70.8694 56.3084Z" fill="#E7F0FE"/>
<path d="M87.3957 72.0342C85.7839 60.7409 79.4559 44.7204 65.0197 33.863C51.0821 22.5918 33.7077 20.9429 23.0395 25.2563C11.9536 29.3967 7.57385 39.4989 9.98732 47.7301C12.3995 56.3325 18.8745 62.4881 25.1368 66.5873C31.656 70.7574 37.9625 72.8717 45.9637 75.0322C53.7532 77.128 61.9284 80.1562 68.3027 84.0446C74.7903 87.6776 79.4766 92.1711 82.9065 91.2929C86.0088 90.5915 89.0602 83.6762 87.3957 72.0342Z" fill="#E7F0FE"/>
<path d="M90.865 95.084H69.998V105.834H90.865V95.084Z" fill="#A0C5FF"/>
<g opacity="0.3">
<path d="M90.865 102.061L69.998 99.7447V95.084H90.865V102.061Z" fill="#000141"/>
</g>
<path d="M120.732 103.948H39.5575C37.848 103.948 36.4619 105.33 36.4619 107.036H123.828C123.828 105.33 122.442 103.948 120.732 103.948Z" fill="#C7DBFF"/>
<path d="M141.865 23.7013V92.4103C141.865 95.2113 139.585 97.4856 136.777 97.4856H27.6523C25.2755 97.4856 23.278 95.8539 22.7201 93.6514C22.6186 93.2533 22.5664 92.8383 22.5664 92.4103V23.7013C22.5664 20.8978 24.8464 18.626 27.6519 18.626H136.777C139.585 18.626 141.865 20.8978 141.865 23.7013Z" fill="#A0C5FF"/>
<path d="M134.842 21.5146H29.5895C27.3099 21.5146 25.4619 23.358 25.4619 25.6319V90.4782C25.4619 92.7521 27.3099 94.5955 29.5895 94.5955H134.842C137.121 94.5955 138.969 92.7521 138.969 90.4782V25.6319C138.969 23.358 137.121 21.5146 134.842 21.5146Z" fill="#E7F0FE"/>
<path d="M134.842 21.5146H29.5895C27.3099 21.5146 25.4619 23.358 25.4619 25.6319V90.4782C25.4619 92.7521 27.3099 94.5955 29.5895 94.5955H134.842C137.121 94.5955 138.969 92.7521 138.969 90.4782V25.6319C138.969 23.358 137.121 21.5146 134.842 21.5146Z" fill="#E7F0FE"/>
<path d="M134.842 23.9868H88.5967V92.123H134.842C135.751 92.123 136.491 91.3851 136.491 90.4783V25.632C136.491 24.7248 135.751 23.9868 134.842 23.9868Z" fill="white"/>
<path d="M24.682 107.374H139.75C140.064 107.374 140.319 107.119 140.319 106.806C140.319 106.492 140.064 106.237 139.75 106.237H24.682C24.3675 106.237 24.1123 106.492 24.1123 106.806C24.1123 107.12 24.367 107.374 24.682 107.374Z" fill="#A0C5FF"/>
<path d="M98.842 36.2056C97.2327 36.2056 95.9287 37.5063 95.9287 39.1115C95.9287 40.7168 97.2331 42.0175 98.842 42.0175C100.451 42.0175 101.755 40.7168 101.755 39.1115C101.755 37.5067 100.451 36.2056 98.842 36.2056ZM98.842 41.54C97.4971 41.54 96.4049 40.4534 96.4049 39.112C96.4049 37.7705 97.4971 36.6839 98.842 36.6839C100.187 36.6839 101.276 37.7705 101.276 39.112C101.276 40.4534 100.187 41.54 98.842 41.54Z" fill="#A0C5FF"/>
<path d="M112.806 36.8799H105.14C104.951 36.8799 104.777 37.0084 104.746 37.194C104.708 37.4305 104.89 37.635 105.12 37.635H112.806C113.015 37.635 113.184 37.4658 113.184 37.2575C113.184 37.0491 113.015 36.8799 112.806 36.8799Z" fill="#A0C5FF"/>
<path d="M127.446 36.8799H114.078C113.868 36.8799 113.699 37.0491 113.699 37.2575C113.699 37.4662 113.869 37.635 114.078 37.635H127.466C127.696 37.635 127.878 37.4305 127.839 37.194C127.809 37.0084 127.634 36.8799 127.446 36.8799Z" fill="#A0C5FF"/>
<path d="M116.11 38.7339H105.14C104.951 38.7339 104.777 38.8624 104.746 39.048C104.708 39.2845 104.89 39.489 105.12 39.489H116.11C116.319 39.489 116.489 39.3198 116.489 39.1115C116.488 38.9031 116.319 38.7339 116.11 38.7339Z" fill="#A0C5FF"/>
<path d="M116.11 40.5879H105.14C104.951 40.5879 104.777 40.7164 104.746 40.902C104.708 41.1385 104.89 41.3435 105.12 41.3435H116.11C116.319 41.3435 116.489 41.1742 116.489 40.9659C116.488 40.7567 116.319 40.5879 116.11 40.5879Z" fill="#A0C5FF"/>
<path d="M127.445 38.7339H117.381C117.173 38.7339 117.003 38.9031 117.003 39.1115C117.003 39.3202 117.173 39.489 117.381 39.489H127.465C127.695 39.489 127.877 39.2845 127.839 39.048C127.809 38.8628 127.634 38.7339 127.445 38.7339Z" fill="#A0C5FF"/>
<path d="M98.7998 40.5617C98.7526 40.5617 98.7055 40.5571 98.6587 40.5474C98.4751 40.5096 98.3147 40.4 98.2133 40.2429L97.1821 38.6507C96.9728 38.3277 97.0659 37.8964 97.3901 37.6876C97.7143 37.478 98.1463 37.5717 98.356 37.8947L99.0015 38.8922L102.336 36.6658C102.656 36.4507 103.09 36.5368 103.305 36.8573C103.519 37.1765 103.433 37.6091 103.113 37.8233L99.1884 40.4437C99.0726 40.5214 98.937 40.5617 98.7998 40.5617Z" fill="#A0C5FF"/>
<path d="M122.017 48.9475C122.017 50.5527 123.321 51.8535 124.93 51.8535C126.539 51.8535 127.843 50.5527 127.843 48.9475C127.843 47.3422 126.539 46.0415 124.93 46.0415C123.321 46.0415 122.017 47.3422 122.017 48.9475ZM122.496 48.9475C122.496 47.606 123.585 46.5195 124.93 46.5195C126.275 46.5195 127.367 47.606 127.367 48.9475C127.367 50.289 126.275 51.3755 124.93 51.3755C123.585 51.3755 122.496 50.289 122.496 48.9475Z" fill="#A0C5FF"/>
<path d="M110.966 46.7158H118.632C118.821 46.7158 118.995 46.8443 119.026 47.03C119.065 47.2664 118.882 47.471 118.652 47.471H110.966C110.757 47.471 110.588 47.3017 110.588 47.0934C110.588 46.8847 110.758 46.7158 110.966 46.7158Z" fill="#A0C5FF"/>
<path d="M96.3266 46.7158H109.695C109.904 46.7158 110.073 46.8851 110.073 47.0934C110.073 47.3021 109.903 47.471 109.695 47.471H96.3064C96.0765 47.471 95.8942 47.2664 95.9329 47.03C95.9633 46.8443 96.138 46.7158 96.3266 46.7158Z" fill="#A0C5FF"/>
<path d="M107.662 48.5698H118.632C118.82 48.5698 118.995 48.6983 119.026 48.884C119.064 49.1204 118.882 49.325 118.652 49.325H107.662C107.452 49.325 107.283 49.1557 107.283 48.9474C107.284 48.7391 107.453 48.5698 107.662 48.5698Z" fill="#A0C5FF"/>
<path d="M107.662 50.4233H118.632C118.82 50.4233 118.995 50.5519 119.026 50.7375C119.064 50.974 118.882 51.1789 118.652 51.1789H107.662C107.452 51.1789 107.283 51.0097 107.283 50.8013C107.284 50.5926 107.453 50.4233 107.662 50.4233Z" fill="#A0C5FF"/>
<path d="M96.3271 48.5698H106.391C106.599 48.5698 106.769 48.7391 106.769 48.9474C106.769 49.1561 106.599 49.325 106.391 49.325H96.3064C96.0765 49.325 95.8942 49.1204 95.9329 48.884C95.9633 48.6983 96.1384 48.5698 96.3271 48.5698Z" fill="#A0C5FF"/>
<path d="M125.254 50.0553C125.207 50.0553 125.16 50.0507 125.113 50.0411C124.929 50.0033 124.769 49.8936 124.667 49.7366L123.636 48.1443C123.427 47.8214 123.52 47.39 123.844 47.1813C124.168 46.9717 124.6 47.0654 124.81 47.3883L125.456 48.3858L128.79 46.1594C129.11 45.9444 129.544 46.0305 129.759 46.3509C129.973 46.6701 129.888 47.1027 129.567 47.3169L125.643 49.9373C125.527 50.015 125.391 50.0553 125.254 50.0553Z" fill="#A0C5FF"/>
<path d="M119.516 84.7437C119.516 84.7437 117.744 89.3544 116.254 92.0143C118.856 92.0143 120.831 92.0143 120.831 92.0143V86.1297L119.516 84.7437Z" fill="#FECECC"/>
<path d="M125.059 78.0298C125.059 78.0298 120.881 80.9324 119.064 84.7032C119.064 84.7032 121.561 89.5382 123.051 88.7599C125.227 87.623 125.059 78.0298 125.059 78.0298Z" fill="#A0C5FF"/>
<path d="M133.201 92.0143C133.129 85.905 131.297 77.9191 126.389 77.8074C122.466 77.7183 119.976 85.6358 119.516 92.0143H133.201Z" fill="#5D74E4"/>
<path d="M123.195 81.7088C123.176 81.7088 123.158 81.6995 123.148 81.6823C123.132 81.6563 123.14 81.6227 123.166 81.6067C123.427 81.4484 123.361 81.1884 123.358 81.1775C123.35 81.1481 123.368 81.1178 123.397 81.1099C123.426 81.1019 123.456 81.1191 123.465 81.1481C123.498 81.2682 123.491 81.5387 123.224 81.7004C123.215 81.7063 123.205 81.7088 123.195 81.7088Z" fill="#A0C5FF"/>
<path d="M124.525 84.2542C124.506 84.2542 124.488 84.245 124.478 84.2277C124.462 84.2017 124.47 84.1677 124.496 84.1521C124.757 83.9938 124.691 83.7338 124.688 83.7229C124.68 83.6935 124.698 83.6633 124.727 83.6553C124.756 83.6473 124.786 83.6645 124.795 83.6935C124.828 83.8136 124.821 84.0837 124.554 84.2458C124.545 84.2517 124.535 84.2542 124.525 84.2542Z" fill="#A0C5FF"/>
<path d="M127.276 82.1009C127.257 82.1009 127.239 82.0916 127.229 82.0744C127.213 82.0484 127.221 82.0144 127.247 81.9988C127.508 81.8405 127.442 81.5805 127.439 81.5696C127.431 81.5402 127.449 81.5099 127.478 81.502C127.507 81.494 127.537 81.5112 127.546 81.5402C127.579 81.6603 127.572 81.9303 127.305 82.0925C127.296 82.0983 127.286 82.1009 127.276 82.1009Z" fill="#A0C5FF"/>
<path d="M123.44 85.7206C123.44 85.739 123.431 85.7571 123.414 85.7676C123.388 85.7836 123.354 85.7752 123.338 85.7491C123.179 85.4887 122.919 85.5547 122.908 85.5576C122.878 85.5656 122.848 85.548 122.84 85.519C122.832 85.49 122.849 85.4598 122.878 85.4514C122.999 85.4182 123.269 85.4257 123.432 85.6916C123.438 85.7008 123.44 85.7109 123.44 85.7206Z" fill="#A0C5FF"/>
<path d="M120.885 88.0716C120.867 88.0716 120.849 88.0623 120.838 88.0451C120.822 88.0191 120.831 87.9851 120.857 87.9695C121.118 87.8112 121.052 87.5512 121.049 87.5403C121.041 87.5109 121.058 87.4806 121.087 87.4727C121.117 87.4647 121.147 87.4819 121.155 87.5109C121.189 87.631 121.181 87.9011 120.914 88.0632C120.905 88.0691 120.895 88.0716 120.885 88.0716Z" fill="#A0C5FF"/>
<path d="M122.864 82.8496C122.862 82.8311 122.869 82.8122 122.885 82.8C122.91 82.782 122.944 82.7866 122.962 82.811C123.145 83.055 123.398 82.9647 123.409 82.9609C123.437 82.9504 123.469 82.9647 123.48 82.9932C123.491 83.0214 123.477 83.0533 123.448 83.0642C123.331 83.1087 123.061 83.1268 122.874 82.8773C122.868 82.8689 122.865 82.8593 122.864 82.8496Z" fill="#A0C5FF"/>
<path d="M126.01 80.9066C126.008 80.8881 126.016 80.8692 126.032 80.857C126.056 80.839 126.091 80.844 126.109 80.8684C126.292 81.1124 126.545 81.0221 126.556 81.0183C126.584 81.0078 126.616 81.0221 126.627 81.0506C126.638 81.0788 126.623 81.1107 126.595 81.1216C126.478 81.1661 126.208 81.1842 126.021 80.9347C126.015 80.9259 126.011 80.9162 126.01 80.9066Z" fill="#A0C5FF"/>
<path d="M124.072 87.8875C124.07 87.8691 124.077 87.8502 124.093 87.838C124.118 87.8199 124.152 87.825 124.17 87.8493C124.353 88.0933 124.606 88.003 124.617 87.9993C124.645 87.9888 124.677 88.003 124.688 88.0316C124.699 88.0597 124.685 88.0917 124.656 88.1026C124.539 88.1471 124.269 88.1652 124.082 87.9157C124.076 87.9069 124.072 87.8972 124.072 87.8875Z" fill="#A0C5FF"/>
<path d="M126.77 83.8636C126.768 83.8452 126.776 83.8263 126.792 83.8141C126.816 83.796 126.851 83.8011 126.869 83.825C127.052 84.069 127.305 83.9787 127.315 83.9749C127.344 83.9644 127.376 83.9787 127.387 84.0073C127.398 84.0354 127.383 84.0673 127.355 84.0783C127.238 84.1228 126.968 84.1408 126.78 83.8914C126.774 83.883 126.771 83.8733 126.77 83.8636Z" fill="#A0C5FF"/>
<path d="M120.662 85.9588C120.661 85.9403 120.668 85.9214 120.684 85.9093C120.709 85.8912 120.743 85.8962 120.761 85.9206C120.944 86.1646 121.197 86.0743 121.208 86.0705C121.236 86.06 121.268 86.0743 121.279 86.1029C121.29 86.131 121.275 86.1629 121.247 86.1739C121.13 86.2184 120.86 86.2364 120.672 85.987C120.667 85.9781 120.663 85.9685 120.662 85.9588Z" fill="#A0C5FF"/>
<path d="M125.448 82.3791C125.347 82.3791 125.278 82.3194 125.19 82.2426C125.149 82.2077 125.104 82.1682 125.047 82.1262C124.917 82.0317 124.899 82.0481 124.811 82.1266C124.763 82.1699 124.697 82.2287 124.595 82.2812C124.5 82.3295 124.411 82.3375 124.33 82.3051C124.186 82.2472 124.126 82.0809 124.124 82.0737C124.114 82.0452 124.13 82.0137 124.158 82.0036C124.187 81.9935 124.218 82.0086 124.229 82.0372C124.229 82.0384 124.275 82.164 124.372 82.2031C124.423 82.2232 124.48 82.2169 124.545 82.1833C124.635 82.1376 124.692 82.0863 124.738 82.0452C124.845 81.9494 124.92 81.8977 125.112 82.0376C125.173 82.0821 125.221 82.1233 125.263 82.1594C125.394 82.2728 125.433 82.3072 125.601 82.2207C125.628 82.2069 125.661 82.2174 125.675 82.2442C125.689 82.2711 125.679 82.3043 125.652 82.3186C125.568 82.3614 125.504 82.3791 125.448 82.3791Z" fill="#A0C5FF"/>
<path d="M126.448 87.6847C126.347 87.6847 126.278 87.625 126.19 87.5482C126.149 87.5133 126.104 87.4738 126.047 87.4318C125.917 87.3373 125.899 87.3537 125.811 87.4322C125.763 87.4755 125.697 87.5343 125.595 87.5868C125.5 87.6351 125.411 87.6431 125.33 87.6103C125.186 87.5524 125.126 87.386 125.124 87.3789C125.114 87.3503 125.129 87.3188 125.158 87.3088C125.187 87.2987 125.219 87.3138 125.229 87.3424C125.229 87.3436 125.275 87.4692 125.372 87.5083C125.423 87.5284 125.48 87.5221 125.545 87.4885C125.635 87.4427 125.692 87.3915 125.738 87.3503C125.845 87.2546 125.92 87.2029 126.112 87.3428C126.173 87.3873 126.221 87.4285 126.263 87.4646C126.394 87.578 126.433 87.6124 126.601 87.5259C126.628 87.512 126.661 87.5225 126.675 87.5494C126.689 87.5763 126.679 87.6095 126.652 87.6238C126.568 87.6666 126.504 87.6847 126.448 87.6847Z" fill="#A0C5FF"/>
<path d="M121.542 84.7438C121.538 84.7438 121.533 84.7433 121.528 84.7421C121.382 84.7043 121.318 84.6136 121.29 84.5443C121.238 84.4141 121.273 84.262 121.331 84.1688C121.434 84.0041 121.471 83.8681 121.319 83.7395C121.241 83.674 121.23 83.6064 121.234 83.561C121.247 83.4199 121.421 83.3174 121.441 83.3061C121.467 83.291 121.501 83.3002 121.516 83.3267C121.531 83.3531 121.522 83.3867 121.496 83.4019C121.459 83.4233 121.351 83.4997 121.344 83.5711C121.343 83.5816 121.34 83.6135 121.39 83.6551C121.647 83.8718 121.486 84.1297 121.425 84.2267C121.383 84.2939 121.355 84.4094 121.393 84.5031C121.419 84.5695 121.475 84.614 121.556 84.635C121.586 84.6425 121.603 84.6728 121.596 84.7022C121.59 84.7274 121.567 84.7438 121.542 84.7438Z" fill="#A0C5FF"/>
<path d="M122.672 91.4176C122.668 91.4176 122.663 91.4172 122.658 91.4159C122.512 91.3781 122.448 91.2874 122.42 91.2181C122.368 91.0879 122.403 90.9358 122.461 90.8426C122.564 90.678 122.601 90.5419 122.449 90.4134C122.371 90.3478 122.36 90.2802 122.364 90.2349C122.377 90.0937 122.551 89.9913 122.571 89.9799C122.597 89.9648 122.631 89.9741 122.646 90.0005C122.661 90.027 122.652 90.0606 122.626 90.0757C122.588 90.0971 122.481 90.1735 122.474 90.2449C122.474 90.2554 122.471 90.2874 122.52 90.3289C122.777 90.5457 122.616 90.8035 122.556 90.9006C122.514 90.9678 122.485 91.0833 122.523 91.1769C122.55 91.2433 122.605 91.2878 122.687 91.3088C122.716 91.3164 122.734 91.3466 122.726 91.376C122.719 91.4012 122.697 91.4176 122.672 91.4176Z" fill="#A0C5FF"/>
<path d="M122.136 89.7765C122.131 89.7765 122.127 89.776 122.122 89.7748C121.976 89.737 121.912 89.6463 121.884 89.577C121.832 89.4468 121.867 89.2947 121.925 89.2015C122.028 89.0369 122.065 88.9008 121.913 88.7722C121.835 88.7067 121.824 88.6391 121.828 88.5937C121.841 88.4526 122.015 88.3502 122.035 88.3388C122.061 88.3237 122.095 88.3329 122.11 88.3594C122.125 88.3859 122.116 88.4195 122.089 88.4346C122.052 88.456 121.945 88.5324 121.938 88.6038C121.937 88.6143 121.934 88.6463 121.984 88.6878C122.241 88.9046 122.08 89.1624 122.019 89.2594C121.977 89.3266 121.949 89.4422 121.987 89.5358C122.014 89.6022 122.069 89.6467 122.15 89.6677C122.18 89.6752 122.198 89.7055 122.19 89.7349C122.183 89.7597 122.161 89.7765 122.136 89.7765Z" fill="#A0C5FF"/>
<path d="M126.051 85.27C126.053 85.2738 126.055 85.278 126.057 85.2826C126.108 85.425 126.069 85.5287 126.027 85.5905C125.949 85.7064 125.802 85.7631 125.693 85.7673C125.498 85.7749 125.365 85.8206 125.344 86.0193C125.333 86.1201 125.283 86.1676 125.243 86.1894C125.119 86.2579 124.936 86.1722 124.916 86.1621C124.888 86.1487 124.877 86.1159 124.89 86.0886C124.904 86.0613 124.937 86.05 124.964 86.0634C125.002 86.0823 125.127 86.1277 125.19 86.0932C125.199 86.0882 125.227 86.0726 125.234 86.008C125.269 85.6741 125.574 85.6619 125.688 85.6577C125.768 85.6543 125.879 85.6132 125.936 85.5292C125.976 85.4699 125.982 85.3994 125.954 85.32C125.943 85.2914 125.958 85.2599 125.987 85.2494C126.011 85.2406 126.037 85.2499 126.051 85.27Z" fill="#A0C5FF"/>
<path d="M125.106 90.3051C125.106 90.3097 125.105 90.3143 125.104 90.3189C125.066 90.4651 124.975 90.5289 124.906 90.5567C124.775 90.6087 124.623 90.5735 124.529 90.5155C124.364 90.413 124.228 90.3761 124.099 90.5281C124.033 90.6054 123.966 90.6167 123.92 90.6125C123.779 90.5995 123.676 90.426 123.665 90.4063C123.649 90.3798 123.659 90.3462 123.685 90.3311C123.712 90.316 123.745 90.3252 123.761 90.3517C123.782 90.3887 123.859 90.4962 123.93 90.5029C123.941 90.5037 123.973 90.5067 124.014 90.4571C124.232 90.2009 124.49 90.3614 124.587 90.4218C124.655 90.4638 124.771 90.492 124.865 90.4542C124.931 90.4277 124.976 90.3727 124.997 90.2912C125.004 90.2618 125.035 90.2442 125.064 90.2517C125.089 90.2585 125.106 90.2807 125.106 90.3051Z" fill="#A0C5FF"/>
<path d="M122.682 88.0559C122.524 88.0559 122.396 87.9282 122.396 87.7712C122.396 87.6145 122.524 87.4868 122.682 87.4868C122.839 87.4868 122.967 87.6145 122.967 87.7712C122.967 87.9282 122.839 88.0559 122.682 88.0559ZM122.682 87.5969C122.586 87.5969 122.507 87.675 122.507 87.7712C122.507 87.8673 122.586 87.9455 122.682 87.9455C122.778 87.9455 122.857 87.8673 122.857 87.7712C122.857 87.675 122.778 87.5969 122.682 87.5969Z" fill="#A0C5FF"/>
<path d="M126.966 83.3586C126.809 83.3586 126.681 83.2309 126.681 83.0738C126.681 82.9167 126.809 82.7891 126.966 82.7891C127.124 82.7891 127.252 82.9167 127.252 83.0738C127.251 83.2309 127.123 83.3586 126.966 83.3586ZM126.966 82.8995C126.87 82.8995 126.791 82.9776 126.791 83.0738C126.791 83.17 126.87 83.2481 126.966 83.2481C127.063 83.2481 127.141 83.17 127.141 83.0738C127.141 82.9776 127.063 82.8995 126.966 82.8995Z" fill="#A0C5FF"/>
<path d="M122.545 83.9382C122.388 83.9382 122.26 83.8106 122.26 83.6535C122.26 83.4964 122.388 83.3691 122.545 83.3691C122.703 83.3691 122.831 83.4968 122.831 83.6535C122.83 83.8106 122.703 83.9382 122.545 83.9382ZM122.545 83.4792C122.449 83.4792 122.371 83.5573 122.371 83.6535C122.371 83.7497 122.449 83.8278 122.545 83.8278C122.642 83.8278 122.72 83.7497 122.72 83.6535C122.72 83.5573 122.642 83.4792 122.545 83.4792Z" fill="#A0C5FF"/>
<path d="M120.505 91.4177C120.348 91.4177 120.22 91.2901 120.22 91.133C120.22 90.9763 120.348 90.8486 120.505 90.8486C120.663 90.8486 120.791 90.9763 120.791 91.133C120.791 91.2901 120.663 91.4177 120.505 91.4177ZM120.505 90.9591C120.409 90.9591 120.33 91.0372 120.33 91.1334C120.33 91.2296 120.409 91.3077 120.505 91.3077C120.602 91.3077 120.68 91.2296 120.68 91.1334C120.68 91.0372 120.602 90.9591 120.505 90.9591Z" fill="#A0C5FF"/>
<path d="M124.954 80.9973C124.797 80.9973 124.669 80.8696 124.669 80.7126C124.669 80.5559 124.797 80.4282 124.954 80.4282C125.112 80.4282 125.24 80.5559 125.24 80.7126C125.239 80.8696 125.111 80.9973 124.954 80.9973ZM124.954 80.5383C124.858 80.5383 124.78 80.6164 124.78 80.7126C124.78 80.8087 124.858 80.8869 124.954 80.8869C125.051 80.8869 125.129 80.8087 125.129 80.7126C125.129 80.6164 125.051 80.5383 124.954 80.5383Z" fill="#A0C5FF"/>
<path d="M127.141 90.4318C126.983 90.4318 126.855 90.3041 126.855 90.1471C126.855 89.99 126.983 89.8623 127.141 89.8623C127.298 89.8623 127.426 89.99 127.426 90.1471C127.426 90.3041 127.298 90.4318 127.141 90.4318ZM127.141 89.9728C127.045 89.9728 126.966 90.0509 126.966 90.1471C126.966 90.2432 127.045 90.3214 127.141 90.3214C127.237 90.3214 127.316 90.2432 127.316 90.1471C127.316 90.0509 127.237 89.9728 127.141 89.9728Z" fill="#A0C5FF"/>
<path d="M125.377 76.2169L125.062 78.0678C125.062 78.0678 125.407 79.8083 127.781 78.4844L127.201 75.8389L125.377 76.2169Z" fill="#FECECC"/>
<path opacity="0.1" d="M127.201 75.8394L125.377 76.2169L125.24 77.02C125.284 77.0326 125.327 77.0448 125.371 77.0561C125.58 77.1111 125.794 77.1573 125.998 77.2216C126.158 77.272 126.318 77.3367 126.436 77.432C126.56 77.5324 126.622 77.6575 126.63 77.7919C126.644 78.012 126.488 78.2044 126.377 78.4014C126.306 78.5278 126.268 78.6979 126.111 78.7857C125.997 78.8495 125.848 78.8726 125.701 78.8705C126.105 79.057 126.752 79.0591 127.781 78.4854L127.201 75.8394Z" fill="#201135"/>
<path d="M123.736 71.1131C123.736 71.1131 122.642 77.0591 124.872 77.1989C127.102 77.3388 128.631 74.9742 128.631 74.9742C128.631 74.9742 129.557 74.8272 129.62 73.715C129.671 72.8183 129.115 72.9804 129.115 72.9804C129.115 72.9804 129.543 70.6927 127.944 70.245C126.345 69.7981 123.736 71.1131 123.736 71.1131Z" fill="#FECECC"/>
<path opacity="0.1" d="M127.015 74.187C127.04 74.3315 126.882 74.4789 126.663 74.5159C126.443 74.5528 126.246 74.4655 126.221 74.3206C126.197 74.1761 126.355 74.0287 126.574 73.9917C126.793 73.9552 126.991 74.0425 127.015 74.187Z" fill="#201135"/>
<path opacity="0.1" d="M124.531 74.2013C124.555 74.3458 124.397 74.4932 124.178 74.5298C123.959 74.5667 123.761 74.4794 123.737 74.3345C123.712 74.19 123.87 74.0426 124.09 74.006C124.309 73.9691 124.506 74.0564 124.531 74.2013Z" fill="#201135"/>
<path d="M124.636 72.8409C124.615 72.8409 124.595 72.83 124.583 72.8102C124.573 72.793 124.336 72.4024 123.754 72.6595C123.723 72.6733 123.687 72.659 123.673 72.6284C123.659 72.5977 123.673 72.5612 123.705 72.5477C124.39 72.2445 124.686 72.7447 124.689 72.7493C124.706 72.7787 124.696 72.8161 124.667 72.8329C124.657 72.8384 124.646 72.8409 124.636 72.8409Z" fill="#000141"/>
<path d="M125.825 72.852C125.818 72.852 125.81 72.8508 125.803 72.8478C125.771 72.8352 125.755 72.8 125.768 72.7685C125.77 72.763 125.993 72.2292 126.8 72.4014C126.833 72.4085 126.854 72.4409 126.847 72.474C126.84 72.5068 126.808 72.5282 126.774 72.5211C126.067 72.3699 125.884 72.8092 125.882 72.8138C125.872 72.8373 125.85 72.852 125.825 72.852Z" fill="#000141"/>
<path d="M125.127 74.3828C125.106 74.3828 125.085 74.3799 125.064 74.374C124.934 74.3362 124.879 74.19 124.877 74.1841C124.87 74.1661 124.873 74.1459 124.883 74.1295C125.103 73.7927 125.045 73.3378 125.044 73.3332C125.039 73.2996 125.063 73.269 125.097 73.2643C125.131 73.2593 125.161 73.2832 125.166 73.3168C125.169 73.3366 125.228 73.7973 125.004 74.1673C125.022 74.1993 125.054 74.2438 125.099 74.2568C125.14 74.2686 125.19 74.2522 125.249 74.2081C125.276 74.1875 125.314 74.1925 125.334 74.2194C125.355 74.2463 125.35 74.2845 125.323 74.3051C125.256 74.3568 125.19 74.3828 125.127 74.3828Z" fill="#000141"/>
<path d="M124.34 75.1798C124.34 75.1798 125.039 75.496 125.823 75.1323C126 75.4574 125.072 76.3029 124.34 75.1798Z" fill="#FCFAF7"/>
<path d="M124.45 73.3341C124.45 73.5248 124.344 73.6793 124.213 73.6793C124.083 73.6793 123.977 73.5248 123.977 73.3341C123.977 73.1434 124.083 72.9893 124.213 72.9893C124.344 72.9893 124.45 73.1438 124.45 73.3341Z" fill="#000141"/>
<path d="M126.58 73.3341C126.58 73.5248 126.474 73.6793 126.343 73.6793C126.213 73.6793 126.106 73.5248 126.106 73.3341C126.106 73.1434 126.213 72.9893 126.343 72.9893C126.474 72.9893 126.58 73.1438 126.58 73.3341Z" fill="#000141"/>
<path opacity="0.1" d="M125.247 76.0459C125.182 76.0459 125.14 76.0363 125.136 76.0354C125.119 76.0316 125.109 76.0153 125.113 75.9989C125.117 75.9825 125.134 75.9724 125.15 75.9762C125.153 75.977 125.422 76.0367 125.666 75.8254C125.679 75.8149 125.698 75.8162 125.709 75.8288C125.72 75.8414 125.719 75.8607 125.706 75.872C125.536 76.0182 125.358 76.0459 125.247 76.0459Z" fill="#201135"/>
<path opacity="0.1" d="M129.009 73.3444C129.009 73.3444 129.367 73.1764 129.437 73.4284C129.507 73.6804 129.283 74.3167 128.939 74.4637C128.939 74.4637 129.563 73.8623 129.36 73.4981C129.157 73.1344 129.03 73.5191 129.009 73.3444Z" fill="#201135"/>
<path d="M127.681 77.9606C127.681 77.9606 128.216 78.452 127.927 79.2068C127.681 79.8473 127.364 80.4105 126.465 80.2551C125.566 80.0997 125.534 79.2068 125.534 79.2068C125.534 79.2068 124.758 80.2341 124.11 79.6944C123.009 78.7771 125.092 77.8896 125.092 77.8896C125.092 77.8896 125.062 78.4113 125.85 78.6448C126.638 78.8787 127.681 77.9606 127.681 77.9606Z" fill="#A0C5FF"/>
<path d="M127.086 70.6173C127.086 70.6173 126.442 71.787 125.751 71.737C125.059 71.687 124.995 71.5589 124.995 71.5589C124.995 71.5589 124.594 72.1713 123.57 72.1213C122.547 72.0713 122.463 71.3708 122.463 71.3708C122.463 71.3708 121.704 71.133 121.927 70.283C122.15 69.4329 122.868 69.6979 122.868 69.6979C122.868 69.6979 122.486 69.1796 123.219 68.6118C123.954 68.0435 124.665 69.0629 124.665 69.0629C124.665 69.0629 124.862 68.7684 125.874 68.4396C126.886 68.1103 127.58 69.1968 127.58 69.1968C127.58 69.1968 128.98 68.7458 129.265 70.0826C129.265 70.0826 130.203 70.6341 129.784 71.4531C129.784 71.4531 130.493 73.0907 129.038 73.0991C129.038 73.0991 128.796 73.9239 128.209 73.8752C127.623 73.8265 127.961 73.0142 127.834 72.6933C127.706 72.372 126.768 72.0881 127.086 70.6173Z" fill="#000141"/>
<path d="M132.74 86.2153C132.74 86.2153 134.514 91.1361 133.665 92.0147H126.681C126.681 92.0147 129.551 91.0516 129.623 89.9727C129.694 88.8937 128.653 87.2569 128.653 87.2569L132.74 86.2153Z" fill="#FECECC"/>
<path d="M128.207 88.1016C128.207 88.1016 131.477 89.0748 133.252 86.8051C133.252 86.8051 132.439 81.1855 129.096 78.7554C127.101 79.2216 128.207 88.1016 128.207 88.1016Z" fill="#A0C5FF"/>
<path opacity="0.1" d="M116.834 56.4023H85.7815C84.9457 56.4023 84.2683 57.079 84.2695 57.9127L84.2889 73.3708C84.2897 74.2032 84.9668 74.8773 85.8009 74.8773H112.067L115.207 75.9487L115.864 74.8773H116.835C118.886 74.8773 120.55 73.2183 120.55 71.1716V60.1084C120.549 58.0618 118.886 56.4023 116.834 56.4023Z" fill="#000141"/>
<path d="M115.207 73.397V75.9489L109.954 73.7044L115.207 73.397Z" fill="white"/>
<path d="M86.4151 55.8535H116.176C118.228 55.8535 119.891 57.5125 119.891 59.5592V70.6216C119.891 72.6682 118.228 74.3272 116.176 74.3272H86.4151C84.3634 74.3272 82.7002 72.6682 82.7002 70.6216V59.5592C82.7002 57.5125 84.3634 55.8535 86.4151 55.8535Z" fill="white"/>
<path d="M88.0808 64.5713C86.9768 64.5713 86.082 65.4638 86.082 66.565C86.082 67.6663 86.9768 68.5588 88.0808 68.5588C89.1848 68.5588 90.0795 67.6663 90.0795 66.565C90.0795 65.4638 89.1848 64.5713 88.0808 64.5713ZM88.0808 68.2303C87.1582 68.2303 86.4088 67.4848 86.4088 66.5646C86.4088 65.6444 87.1578 64.8989 88.0808 64.8989C89.0033 64.8989 89.7507 65.6444 89.7507 66.5646C89.7507 67.4848 89.0033 68.2303 88.0808 68.2303Z" fill="#A0C5FF"/>
<path d="M88.3433 66.5648C88.3433 66.7097 88.2258 66.8269 88.0805 66.8269C87.9353 66.8269 87.8174 66.7097 87.8174 66.5648C87.8174 66.4199 87.9353 66.3027 88.0805 66.3027C88.2258 66.3027 88.3433 66.4199 88.3433 66.5648Z" fill="#A0C5FF"/>
<path d="M88.08 65.1523C87.9869 65.1523 87.9111 65.2275 87.9111 65.3208V66.4896C87.9111 66.5824 87.9865 66.658 88.08 66.658C88.173 66.658 88.2488 66.5829 88.2488 66.4896V65.3208C88.2488 65.2275 88.173 65.1523 88.08 65.1523Z" fill="#A0C5FF"/>
<path d="M89.0668 65.6341C89.0011 65.5686 88.8942 65.5686 88.8281 65.6341L87.9995 66.4607C87.9338 66.5262 87.9338 66.6329 87.9995 66.6988C88.0651 66.7643 88.1721 66.7643 88.2382 66.6988L89.0668 65.8722C89.1325 65.8063 89.1325 65.6996 89.0668 65.6341Z" fill="#A0C5FF"/>
<path d="M97.6599 65.0337H92.4014C92.2721 65.0337 92.1521 65.1219 92.1315 65.2492C92.105 65.4117 92.23 65.5515 92.3875 65.5515H97.6603C97.8039 65.5515 97.9201 65.4356 97.9201 65.2924C97.9193 65.1496 97.8031 65.0337 97.6599 65.0337Z" fill="#A0C5FF"/>
<path d="M107.703 65.0337H98.5322C98.3887 65.0337 98.2725 65.1496 98.2725 65.2928C98.2725 65.436 98.3887 65.552 98.5322 65.552H107.717C107.875 65.552 108 65.4117 107.973 65.2496C107.952 65.1219 107.832 65.0337 107.703 65.0337Z" fill="#A0C5FF"/>
<path d="M99.9263 66.3057H92.4008C92.2716 66.3057 92.1516 66.3939 92.1305 66.5211C92.104 66.6832 92.229 66.8239 92.3865 66.8239H99.9259C100.069 66.8239 100.186 66.708 100.186 66.5648C100.186 66.422 100.07 66.3057 99.9263 66.3057Z" fill="#A0C5FF"/>
<path d="M99.9263 67.5776H92.4008C92.2716 67.5776 92.1516 67.6658 92.1305 67.7931C92.104 67.9556 92.229 68.0959 92.3865 68.0959H99.9259C100.069 68.0959 100.186 67.98 100.186 67.8368C100.186 67.6936 100.07 67.5776 99.9263 67.5776Z" fill="#A0C5FF"/>
<path d="M107.703 66.3057H100.799C100.655 66.3057 100.539 66.4216 100.539 66.5648C100.539 66.708 100.655 66.8239 100.799 66.8239H107.717C107.875 66.8239 107.999 66.6837 107.973 66.5211C107.952 66.3939 107.832 66.3057 107.703 66.3057Z" fill="#A0C5FF"/>
<path d="M83.3574 61.4994V59.5594C83.3574 57.8777 84.7288 56.5098 86.4143 56.5098H116.175C117.861 56.5098 119.232 57.8777 119.232 59.5594V61.4994H83.3574Z" fill="#5D74E4"/>
<path d="M90.0586 59.5151L89.8754 60.0792H89.2725L90.059 57.9053H90.7537L91.5403 60.0792H90.9213L90.7381 59.5151H90.0586ZM90.1975 59.0741H90.6017L90.3996 58.4063L90.1975 59.0741Z" fill="white"/>
<path d="M93.6834 58.6108C93.6834 59.0392 93.3959 59.2631 93.0801 59.3009C92.9634 59.3135 92.875 59.3164 92.739 59.3164H92.4864V60.0787H91.918V57.9048H92.7394C92.8754 57.9048 92.9639 57.9081 93.0805 57.9207C93.3963 57.9585 93.6834 58.1824 93.6834 58.6108ZM93.0898 58.6108C93.0898 58.447 93.0047 58.3617 92.859 58.3496C92.8182 58.3462 92.7677 58.3462 92.7074 58.3462H92.4864V58.8754H92.7074C92.7677 58.8754 92.8182 58.8754 92.859 58.872C93.0047 58.8599 93.0898 58.7746 93.0898 58.6108Z" fill="white"/>
<path d="M95.8914 58.6108C95.8914 59.0392 95.6039 59.2631 95.2881 59.3009C95.1715 59.3135 95.083 59.3164 94.947 59.3164H94.6944V60.0787H94.126V57.9048H94.9475C95.0835 57.9048 95.1719 57.9081 95.2885 57.9207C95.6039 57.9585 95.8914 58.1824 95.8914 58.6108ZM95.2973 58.6108C95.2973 58.447 95.2119 58.3617 95.0666 58.3496C95.0258 58.3462 94.9752 58.3462 94.915 58.3462H94.694V58.8754H94.915C94.9752 58.8754 95.0258 58.8754 95.0666 58.872C95.2123 58.8599 95.2973 58.7746 95.2973 58.6108Z" fill="white"/>
<path d="M98.4809 58.9924C98.4809 59.6887 98.0447 60.1234 97.3659 60.1234C96.6868 60.1234 96.251 59.6887 96.251 58.9924C96.251 58.2931 96.6868 57.8613 97.3659 57.8613C98.0447 57.8613 98.4809 58.2931 98.4809 58.9924ZM97.8994 58.9924C97.8994 58.5291 97.6943 58.2771 97.3655 58.2771C97.0371 58.2771 96.8316 58.5291 96.8316 58.9924C96.8316 59.4523 97.0371 59.7076 97.3655 59.7076C97.6943 59.7076 97.8994 59.4523 97.8994 58.9924Z" fill="white"/>
<path d="M98.9941 60.0792V57.9053H99.5626V60.0792H98.9941Z" fill="white"/>
<path d="M101.501 60.0792L100.709 58.6424C100.728 58.8629 100.728 59.0552 100.728 59.1812V60.0792H100.159V57.9053H100.867L101.694 59.4051C101.678 59.1846 101.675 58.9607 101.675 58.8347V57.9053H102.244V60.0792H101.501Z" fill="white"/>
<path d="M103.908 58.3463V60.0792H103.339V58.3463H102.632V57.9053H104.615V58.3463H103.908Z" fill="white"/>
<path d="M107.502 60.0792H106.933V59.1653C106.933 58.9763 106.933 58.6957 106.939 58.4752C106.902 58.6957 106.838 58.9729 106.788 59.1653L106.548 60.0792H105.963L105.72 59.1653C105.67 58.9763 105.606 58.6957 105.572 58.4752C105.578 58.6957 105.578 58.9763 105.578 59.1653V60.0792H105.01V57.9053H105.897L106.267 59.5277L106.637 57.9053H107.502V60.0792H107.502Z" fill="white"/>
<path d="M109.767 60.0792H108.097V57.9053H109.736V58.3463H108.665V58.7684H109.673V59.2094H108.665V59.6382H109.767V60.0792Z" fill="white"/>
<path d="M111.63 60.0792L110.838 58.6424C110.856 58.8629 110.857 59.0552 110.857 59.1812V60.0792H110.288V57.9053H110.995L111.823 59.4051C111.807 59.1846 111.804 58.9607 111.804 58.8347V57.9053H112.373V60.0792H111.63Z" fill="white"/>
<path d="M114.037 58.3463V60.0792H113.468V58.3463H112.761V57.9053H114.744V58.3463H114.037Z" fill="white"/>
<path d="M116.358 63.4902H111.553C110.67 63.4902 109.954 64.2042 109.954 65.085V69.8461C109.954 70.7268 110.67 71.4408 111.553 71.4408H116.358C117.241 71.4408 117.957 70.7268 117.957 69.8461V65.085C117.957 64.2042 117.241 63.4902 116.358 63.4902Z" fill="#E7F0FE"/>
<path d="M117.674 65.9199V65.085C117.674 64.3613 117.084 63.7725 116.359 63.7725H111.553C110.828 63.7725 110.237 64.3613 110.237 65.085V65.9199H117.674Z" fill="#A0C5FF"/>
<path d="M112.581 65.1169L112.521 65.3004H112.324L112.58 64.5923H112.807L113.063 65.3004H112.861L112.801 65.1169H112.581ZM112.626 64.9732H112.758L112.692 64.7557L112.626 64.9732Z" fill="white"/>
<path d="M113.761 64.8224C113.761 64.9619 113.668 65.035 113.564 65.0471C113.527 65.0513 113.498 65.0522 113.453 65.0522H113.371V65.3004H113.186V64.5923H113.453C113.497 64.5923 113.526 64.5931 113.564 64.5973C113.668 64.6099 113.761 64.6826 113.761 64.8224ZM113.568 64.8224C113.568 64.7691 113.54 64.7414 113.493 64.7372C113.479 64.7363 113.463 64.7363 113.444 64.7363H113.372V64.909H113.444C113.463 64.909 113.48 64.909 113.493 64.9081C113.54 64.9035 113.568 64.8758 113.568 64.8224Z" fill="white"/>
<path d="M114.512 65.3003H114.311C114.294 65.2499 114.284 65.2092 114.278 65.1588C114.269 65.0807 114.238 65.0357 114.19 65.0324C114.17 65.0311 114.152 65.0311 114.132 65.0311H114.091V65.2999H113.905V64.5918H114.187C114.231 64.5918 114.26 64.5926 114.298 64.5968C114.401 64.609 114.491 64.6594 114.491 64.7846C114.491 64.874 114.442 64.9333 114.347 64.961C114.421 64.9879 114.448 65.042 114.459 65.1273C114.468 65.2084 114.485 65.2583 114.512 65.3003ZM114.157 64.8984C114.177 64.8984 114.194 64.8984 114.207 64.8976C114.254 64.8934 114.297 64.877 114.297 64.8178C114.297 64.7585 114.259 64.7417 114.212 64.7375C114.198 64.7367 114.182 64.7367 114.163 64.7367H114.091V64.8988H114.157V64.8984Z" fill="white"/>
<path d="M114.663 65.3004V64.5923H114.848V65.3004H114.663Z" fill="white"/>
<path d="M115.587 65.3004H115.043V64.5923H115.228V65.1446H115.587V65.3004H115.587Z" fill="white"/>
<path d="M113.571 69.0914V69.6399H111.471V69.3346L112.323 68.5357C112.727 68.1556 112.865 67.9679 112.865 67.7096C112.865 67.5059 112.751 67.3925 112.559 67.3925C112.354 67.3925 112.253 67.5219 112.225 67.8037L112.221 67.8427H111.514L111.518 67.8037C111.577 67.2085 111.954 66.8755 112.618 66.8755C113.25 66.8755 113.603 67.177 113.603 67.6823C113.603 67.9994 113.458 68.2426 112.936 68.7436L112.575 69.0922H113.571V69.0914Z" fill="#A0C5FF"/>
<path d="M116.441 68.837C116.441 69.354 116.017 69.6946 115.334 69.6946C114.647 69.6946 114.246 69.3616 114.191 68.8215L114.188 68.7824H114.894L114.902 68.8215C114.941 69.0096 115.075 69.178 115.307 69.178C115.55 69.178 115.703 69.0411 115.703 68.8567C115.703 68.6257 115.534 68.5081 115.252 68.4964L115.146 68.4926V68.0382L115.252 68.0302C115.511 68.0104 115.641 67.8697 115.641 67.6854C115.641 67.509 115.534 67.3993 115.338 67.3993C115.13 67.3993 115.044 67.5678 115.028 67.7442L115.024 67.7832H114.317L114.321 67.7442C114.368 67.2897 114.706 66.8823 115.409 66.8823C116.072 66.8823 116.378 67.2192 116.378 67.603C116.378 67.9201 116.217 68.1318 115.864 68.2179C116.249 68.2923 116.441 68.4884 116.441 68.837Z" fill="#A0C5FF"/>
<path d="M64.8246 40.4729C64.3901 43.2978 64.5324 45.0194 64.7737 46.3903C65.1943 48.8065 65.9206 50.1593 64.3518 54.5849C61.8903 61.5229 54.8251 56.422 48.5969 62.4036C41.7455 68.9917 35.2516 71.6814 29.8183 71.7213C23.4322 71.7696 18.5034 68.1463 16.1539 62.8677C11.8074 53.0863 15.7792 50.1094 24.4554 47.2844C33.1265 44.4599 29.2145 36.406 33.8263 33.5026C38.439 30.6046 44.0423 31.4156 46.2377 29.5655C48.4322 27.7154 55.1206 25.1815 61.164 27.5919C66.2133 29.5982 66.0183 32.6836 64.8246 40.4729Z" fill="#000141"/>
<path opacity="0.5" d="M64.3518 54.5849C61.8904 61.5229 54.8251 56.422 48.5969 62.4036C41.7455 68.9917 35.2516 71.6814 29.8184 71.7213C29.8377 71.5814 29.852 71.442 29.8723 71.3076C30.4798 66.9068 31.7733 62.3146 33.7981 58.3548C35.7716 54.4916 38.7169 51.4004 42.1708 48.8162C43.9093 47.5096 45.7379 46.3289 47.5472 45.1244C48.5009 44.4868 49.4731 43.8736 50.5131 43.3784C51.5038 42.911 52.6184 42.5863 53.4849 41.8908C54.8811 40.7698 55.3228 39.0545 55.5013 37.3561C55.6571 35.8562 55.6874 34.2821 56.7295 33.1737C59.2984 32.7785 59.3278 36.6395 59.4828 38.3754C59.6074 39.7874 59.8382 41.202 60.2634 42.5603C60.8028 44.2798 61.8887 45.5398 63.6247 46.1101C64.0007 46.2323 64.3834 46.3268 64.7729 46.3894C65.1944 48.8065 65.9211 50.1589 64.3518 54.5849Z" fill="black"/>
<path d="M62.5308 51.4418L62.1851 46.2725C62.1851 46.2725 71.6209 48.5006 74.7582 68.7357C75.9161 76.2067 73.5927 79.2076 69.9481 79.7922C66.303 80.3773 57.1249 67.4623 62.5308 51.4418Z" fill="#5D74E4"/>
<path d="M79.2078 41.8341C79.1964 41.9151 79.1787 41.987 79.1598 42.042C79.1556 42.0533 79.1522 42.0634 79.1484 42.0722C79.0537 42.3049 78.9476 42.5317 78.8423 42.7383C78.5606 43.2948 78.2878 43.7106 78.2878 43.7106C78.2878 43.7106 78.2137 47.339 78.0297 47.7758C77.6764 48.1454 75.7152 47.6607 75.7152 47.6607C75.4495 47.3029 75.9737 43.6896 75.9295 42.9744C75.8861 42.2583 76.1392 41.4468 76.1392 41.4468C76.1392 41.4468 76.1888 37.7487 77.0267 37.7618C77.3994 37.7672 77.2398 39.6341 77.26 40.3511C77.2604 40.3569 77.26 40.3628 77.2604 40.3687C77.2613 40.367 77.5173 40.1616 77.7758 40.3133C77.9025 40.3868 77.9392 40.4796 77.9392 40.4796C77.9392 40.4796 78.1227 40.4124 78.2566 40.4527C78.3914 40.493 78.5728 40.6278 78.5699 40.695C78.5724 40.695 78.7316 40.627 78.8747 40.7303C79.0179 40.8328 79.0613 41.0936 79.0613 41.0936H79.0596C79.0781 41.1201 79.0954 41.1465 79.1105 41.1738C79.2255 41.383 79.2352 41.6371 79.2078 41.8341Z" fill="#FECECC"/>
<path opacity="0.2" d="M79.2076 41.8339C79.1832 41.807 79.1546 41.7848 79.1192 41.7713C78.9622 41.7117 78.8607 41.8469 78.8039 41.9624C78.7706 42.0301 78.7483 42.1061 78.7066 42.1695C78.6716 42.2254 78.6093 42.2707 78.5521 42.3043C78.0649 42.6 77.1036 42.3493 77.0961 41.7197C77.0927 41.4618 77.1129 41.1938 77.1466 40.9402C77.1748 40.7281 77.19 40.5685 77.2603 40.3685C77.2611 40.3669 77.5171 40.1615 77.7756 40.3131C77.9024 40.3866 77.939 40.4794 77.939 40.4794C77.939 40.4794 78.1226 40.4122 78.2565 40.4525C78.3912 40.4929 78.5727 40.6277 78.5698 40.6949C78.5723 40.6949 78.7314 40.6268 78.8746 40.7302C79.0178 40.8326 79.0611 41.0935 79.0611 41.0935H79.0594C79.078 41.1199 79.0952 41.1464 79.1104 41.1737C79.2253 41.3828 79.235 41.6369 79.2076 41.8339Z" fill="white"/>
<path opacity="0.1" d="M78.8541 41.8376C78.711 42.4735 78.3632 42.613 78.2091 42.6432C77.7977 42.5437 77.4167 42.3815 77.2364 42.211C77.1105 42.0922 77.0697 41.82 77.0752 41.5117C77.0718 41.5285 77.0684 41.5453 77.0651 41.5625C77.0145 41.8456 76.972 42.1724 77.1004 42.4416C77.2272 42.7075 77.5089 42.828 77.791 42.8389C78.0175 42.8477 78.2444 42.7999 78.4613 42.7272H78.4617C78.4621 42.7272 78.4625 42.7268 78.463 42.7264C78.4832 42.7196 78.5034 42.7129 78.5236 42.7058C78.5181 42.7049 78.5127 42.7041 78.5072 42.7028C78.844 42.5084 78.8541 41.8376 78.8541 41.8376Z" fill="#5D74E4"/>
<path d="M78.2001 42.5705C78.2839 42.3811 78.3353 42.2257 78.3879 42.0274C78.4401 41.825 78.4759 41.6154 78.4629 41.4071C78.4612 41.6158 78.4115 41.8191 78.3462 42.0153C78.2797 42.2106 78.1075 42.5692 78.1075 42.5692C78.0367 42.568 77.8031 42.4823 77.7041 42.4399C77.6991 42.4378 77.6944 42.4357 77.6894 42.4336C77.758 42.2341 77.8186 42.0338 77.87 41.8301C77.921 41.6243 77.966 41.4147 77.9744 41.2026C77.9517 41.4134 77.8927 41.6175 77.8283 41.8183C77.7639 42.0148 77.6902 42.2089 77.6102 42.3987C77.5437 42.3685 77.478 42.3374 77.4174 42.2988C77.2502 42.1921 77.1757 42.1047 77.1231 41.7901C77.1054 41.6847 77.102 41.5764 77.0999 41.468C77.0953 41.3597 77.0978 41.2513 77.1003 41.1421C77.0595 41.3567 77.0422 41.5759 77.057 41.7969C77.065 41.9073 77.0818 42.019 77.1294 42.1266C77.1433 42.1526 77.1542 42.1803 77.1744 42.2038L77.2026 42.24L77.2346 42.2702C77.2557 42.2912 77.278 42.3088 77.3016 42.3252C77.3243 42.3429 77.3479 42.3588 77.3723 42.3727C77.5664 42.4878 77.7761 42.56 77.9883 42.6163C78.2005 42.6721 78.4073 42.6608 78.5976 42.4017C78.4742 42.5482 78.2452 42.5835 78.2001 42.5705Z" fill="#EAB2B2"/>
<path opacity="0.1" d="M78.2675 43.6751C77.9968 43.8885 77.4389 43.8578 76.9328 43.778C76.548 43.7176 76.2389 43.4891 76.0195 43.2627C76.0469 43.3282 76.0764 43.3937 76.1113 43.4572C76.2023 43.6226 76.5593 44.3614 77.0646 44.395C77.8545 44.4475 78.1084 43.7818 78.2633 43.7066C78.2646 43.6961 78.2663 43.6856 78.2675 43.6751Z" fill="#5D74E4"/>
<path opacity="0.1" d="M77.0072 41.3051C77.0072 41.3051 77.0872 41.5256 76.8918 41.5923C76.6964 41.6587 76.3945 41.3878 76.3162 41.938C76.2379 42.4878 75.9836 43.1207 75.9242 42.6713C75.8653 42.2219 75.7903 41.4214 76.0994 41.303C76.4088 41.1837 77.0072 41.3051 77.0072 41.3051Z" fill="#5D74E4"/>
<path d="M75.9292 42.9744C75.9292 42.9744 75.3516 41.8862 75.3372 41.5149C75.3229 41.1436 75.7756 40.6879 76.0539 40.6539C76.3111 40.6228 76.8707 40.9504 76.9794 41.118C77.088 41.2856 77.1819 41.5221 76.6631 41.4864C76.144 41.4507 76.1145 41.5884 76.1145 41.5884L75.9292 42.9744Z" fill="#EAB2B2"/>
<path opacity="0.2" d="M76.6465 41.1454C76.6465 41.1454 76.9282 41.3524 76.9922 41.3293C77.0562 41.3062 76.9421 41.0757 76.8347 41.0332C76.7273 40.9908 76.6465 41.1454 76.6465 41.1454Z" fill="white"/>
<path d="M75.417 45.5512C75.4165 45.9817 70.2633 64.7053 69.9757 66.0745C67.3349 78.646 74.9462 78.9904 74.9462 78.9904C75.0582 78.953 75.1694 78.9139 75.2709 78.8631C83.4633 74.7832 78.6043 45.4042 78.6043 45.4042C78.6043 45.4042 75.4258 45.1064 75.417 45.5512Z" fill="#5D74E4"/>
<g opacity="0.1">
<path d="M76.6831 74.9001C75.9807 74.7665 75.3791 74.3776 75.1155 73.6947C74.8447 72.9937 74.8982 72.1974 74.9883 71.4666C75.0944 70.6064 75.2843 69.7589 75.4149 68.9025C75.5235 68.1872 75.6439 67.3825 75.3993 66.6815C74.9909 65.5114 74.2241 64.5093 73.5487 63.4845C72.8401 62.4084 72.2313 61.2908 72.0376 60.0018C71.9727 59.5701 71.9429 59.1358 71.9294 58.7007C70.9353 62.3853 70.0877 65.5421 69.9757 66.0742C67.3349 78.6456 74.9462 78.99 74.9462 78.99C75.0582 78.9527 75.1694 78.9136 75.2708 78.8628C76.6637 78.1689 77.6789 76.7426 78.4052 74.8551C77.8435 74.9912 77.2519 75.0084 76.6831 74.9001Z" fill="#000141"/>
</g>
<path d="M40.2783 92.301H70.6531C68.2476 77.6355 71.7478 47.4715 58.4926 44.7129C51.4733 43.2522 38.4699 52.8538 41.5044 65.6432C42.3368 74.5556 43.6438 83.355 40.2783 92.301Z" fill="#C7DBFF"/>
<path d="M64.9747 69.5281C64.9747 69.8792 64.9924 70.248 65.01 70.5987C64.9924 70.6163 65.01 70.6163 65.01 70.6163C65.0395 71.773 65.0888 72.9805 65.1511 74.1632C65.1671 74.6139 65.1726 75.0461 65.2214 75.4804C65.2509 76.3477 65.3001 77.3137 65.3444 78.1843C65.6446 84.9514 66.5174 88.1496 67.493 92.3009H73.5831C71.6959 44.027 62.8753 46.9015 61.8842 46.2412C61.7115 51.0427 64.6989 62.704 64.9747 69.4933C64.9574 69.5105 64.9574 69.5105 64.9747 69.5281Z" fill="#C7DBFF"/>
<path d="M52.8962 92.0141C53.4061 89.8049 56.2019 87.951 56.3337 83.5666C56.3514 83.549 56.3514 83.5313 56.3337 83.5137C56.3607 83.0761 56.3489 82.5666 56.3514 82.1264C56.3514 82.1092 56.3514 82.1092 56.3337 82.092C56.2929 74.3951 55.2268 66.594 53.8693 59.0554C53.852 59.0378 53.852 59.0378 53.852 59.0378C53.1219 55.9978 52.6057 45.783 53.2331 45.2681C51.9451 46.3244 49.5552 50.0032 48.4874 51.1787C49.0621 52.5211 50.8946 55.1116 51.4933 56.5089L46.6348 66.1488C53.5324 76.2313 52.8962 92.0141 52.8962 92.0141Z" fill="#5D74E4"/>
<path d="M63.2323 56.9544C63.8087 63.2154 60.1822 79.5454 63.9169 91.9102C63.9169 91.9102 64.5611 76.2312 67.2462 66.4435L63.4142 58.1737C66.7906 56.4824 65.7704 52.5218 66.1775 51.1794C64.9628 50.0039 62.3245 46.0693 60.7666 45.5645C62.1725 46.0197 62.5712 49.772 63.2323 56.9544Z" fill="#5D74E4"/>
<path d="M52.8964 45.991C52.6753 46.9687 53.749 51.2515 56.2787 53.2229C57.3065 54.0747 58.4606 54.5636 59.5831 54.3742C63.3301 53.7748 61.5435 47.608 60.8955 45.8099C60.8795 45.7469 60.8479 45.6835 60.8324 45.6365C60.2315 44.1068 60.453 38.8707 60.453 38.8707L56.6109 38.0664C56.6109 38.0664 56.8479 38.9812 55.8677 41.615C54.8711 44.2488 53.2282 44.6192 52.8964 45.991Z" fill="#FECECC"/>
<path opacity="0.5" d="M56.2783 53.2229C57.3061 54.0747 58.4602 54.5636 59.5827 54.3742C63.3297 53.7748 61.5432 47.608 60.8952 45.8099C60.8792 45.7469 60.8476 45.6835 60.832 45.6365C60.2312 44.1068 60.4526 38.8707 60.4526 38.8707L56.8476 38.1294C56.9743 38.2239 57.0531 38.3818 57.0691 38.5868C57.1482 40.6843 58.9663 42.1509 59.7251 44.0119C60.3099 45.4475 60.6893 47.4185 59.8042 48.8222C59.5512 49.2325 57.7802 51.4724 56.2783 53.2229Z" fill="#EAB2B2"/>
<path d="M63.1439 40.7944C61.7738 42.7054 56.7182 41.0523 56.1468 38.589C55.9691 37.8137 55.6639 36.4806 55.6639 36.4806C55.6639 36.4806 54.4483 35.9497 54.6214 34.7082C54.7662 33.7472 55.5628 34.3546 55.5628 34.3546L55.5586 33.2873L63.0643 32.3638C63.0643 32.3638 63.1818 32.9064 63.335 33.7422C63.4091 34.1727 63.4786 34.6931 63.5561 35.2416C63.7995 37.2379 63.9064 39.7427 63.1439 40.7944Z" fill="#FECECC"/>
<path opacity="0.5" d="M63.556 35.2406C62.4574 35.4602 61.0928 35.6421 60.3863 35.5858C59.1421 35.4787 55.5762 34.1481 55.5762 34.1481L62.8654 31.9448C63.3214 32.5101 63.4785 34.692 63.556 35.2406Z" fill="#EAB2B2"/>
<path opacity="0.1" d="M58.4934 37.8915C58.4833 38.1133 58.7473 38.3057 59.0833 38.3212C59.4193 38.3367 59.7002 38.17 59.7107 37.9482C59.7212 37.7269 59.4572 37.5345 59.1208 37.5186C58.7848 37.503 58.504 37.6702 58.4934 37.8915Z" fill="#201135"/>
<path opacity="0.1" d="M62.2269 37.4624C62.2163 37.6837 62.4803 37.8761 62.8168 37.8916C63.1528 37.9072 63.4336 37.7404 63.4441 37.5187C63.4547 37.2973 63.1902 37.105 62.8542 37.0894C62.5178 37.0735 62.2374 37.2406 62.2269 37.4624Z" fill="#201135"/>
<path d="M61.8215 35.4395C61.8535 35.4357 61.8821 35.4155 61.8956 35.384C61.9074 35.3567 62.1928 34.7267 63.1128 35.0073C63.1625 35.022 63.2139 34.9947 63.2286 34.946C63.2434 34.8973 63.216 34.8456 63.1672 34.8305C62.0825 34.4991 61.7284 35.3038 61.7251 35.3118C61.7053 35.3588 61.7272 35.413 61.7743 35.4332C61.7895 35.4395 61.8059 35.4416 61.8215 35.4395Z" fill="#000141"/>
<path d="M60.0374 35.6715C60.0488 35.6702 60.0601 35.6664 60.0706 35.661C60.1157 35.6366 60.1325 35.5803 60.1077 35.5358C60.1035 35.5278 59.6715 34.7672 58.4921 35.1717C58.4437 35.188 58.418 35.241 58.4349 35.2893C58.4517 35.3376 58.5035 35.3636 58.5528 35.3468C59.586 34.9919 59.9414 35.6181 59.9452 35.6244C59.9633 35.658 60.0008 35.6761 60.0374 35.6715Z" fill="#000141"/>
<path d="M61.3642 37.8433C61.3962 37.8396 61.4269 37.8312 61.4564 37.8186C61.6446 37.7383 61.7006 37.509 61.7031 37.4994C61.7098 37.4708 61.7027 37.441 61.6837 37.4187C61.2922 36.9529 61.2972 36.2591 61.2972 36.2524C61.298 36.2011 61.2568 36.1591 61.2058 36.1587C61.1532 36.1575 61.1124 36.199 61.1119 36.2499C61.1115 36.2805 61.1065 36.9823 61.5094 37.4977C61.4888 37.5489 61.4475 37.622 61.3831 37.6489C61.3233 37.6737 61.2441 37.659 61.1494 37.6027C61.1052 37.5766 61.0484 37.5913 61.0227 37.6354C60.9966 37.6795 61.0113 37.7362 61.0555 37.7623C61.1663 37.8274 61.2698 37.8547 61.3642 37.8433Z" fill="#000141"/>
<path d="M62.6908 38.8975C62.6908 38.8975 61.6984 39.4989 60.4555 39.0949C60.2479 39.6144 61.7961 40.7156 62.6908 38.8975Z" fill="#FCFAF7"/>
<path d="M62.1901 36.1465C62.2246 36.4325 62.412 36.6454 62.6082 36.6215C62.8044 36.598 62.9354 36.3464 62.9008 36.0604C62.8663 35.7743 62.6789 35.5614 62.4827 35.5853C62.2865 35.6093 62.1556 35.8604 62.1901 36.1465Z" fill="#000141"/>
<path d="M58.9929 36.5317C59.0275 36.8177 59.2148 37.0307 59.4111 37.0067C59.6073 36.9832 59.7382 36.732 59.7037 36.4456C59.6692 36.1596 59.4818 35.9466 59.2856 35.9706C59.089 35.9945 58.958 36.2457 58.9929 36.5317Z" fill="#000141"/>
<path opacity="0.1" d="M61.487 40.3623C61.5843 40.3505 61.6457 40.3287 61.652 40.3262C61.676 40.3173 61.6883 40.2909 61.6794 40.267C61.6706 40.243 61.6436 40.2308 61.62 40.2392C61.6163 40.2409 61.223 40.3791 60.8184 40.1061C60.7965 40.0926 60.7683 40.0977 60.7539 40.1187C60.7396 40.1397 60.7455 40.1687 60.7666 40.183C61.0478 40.3728 61.3203 40.3825 61.487 40.3623Z" fill="#201135"/>
<path opacity="0.5" d="M55.3849 34.6009C55.3849 34.6009 55.1129 34.309 54.9824 34.5312C54.8527 34.7538 54.9386 35.5992 55.358 35.8827C55.358 35.8827 54.9272 35.1242 55.0502 34.8642C55.1727 34.6038 55.5037 34.8197 55.3849 34.6009Z" fill="#EAB2B2"/>
<path d="M63.2138 33.8863C63.082 33.2622 62.8572 32.8913 62.1368 32.7347C61.9991 32.7044 62.7978 33.266 62.8627 34.085C62.4732 34.3487 62.0126 34.573 61.5292 34.7154C59.7448 35.2467 55.402 34.0934 55.402 34.0934C54.8454 28.0815 63.3848 29.6577 64.2799 31.7926C64.477 32.2596 63.8968 33.2496 63.2138 33.8863Z" fill="#000141"/>
<path d="M60.9492 88.9911C64.6103 79.0362 66.2684 68.5421 65.7547 57.1597C65.7332 56.6956 65.3964 56.3633 65.0086 56.4137C59.7417 57.1093 54.0974 57.6599 48.0444 58.0564C47.7547 58.0753 47.5084 58.4096 47.484 58.8031C46.9059 68.5383 44.6718 77.7187 40.8229 86.5588C40.6617 86.9293 40.78 87.2732 41.0932 87.3245C47.673 88.4064 53.9324 89.1842 59.8718 89.6857C60.3084 89.7239 60.796 89.4102 60.9492 88.9911Z" fill="white"/>
<g opacity="0.2">
<path opacity="0.1" d="M60.3296 86.1454C63.2269 77.4607 64.6134 68.3416 64.3797 58.5615C59.5191 59.0966 54.3507 59.5078 48.8547 59.7883C48.2774 68.8872 46.2463 77.4976 42.8008 85.7973C46.6328 86.3676 50.3511 86.8376 53.9561 87.2131C56.1321 86.8683 58.2559 86.5121 60.3296 86.1454Z" fill="#5D74E4"/>
</g>
<path d="M60.1825 85.7434C63.0368 77.0687 64.3867 67.9539 64.1219 58.1704C59.2899 58.7152 54.1518 59.1377 48.6873 59.4329C48.1391 68.5301 46.1429 77.1342 42.7383 85.4213C46.5534 85.9828 50.2553 86.4465 53.8444 86.8161C56.0082 86.4696 58.1206 86.1117 60.1825 85.7434Z" fill="#A0C5FF"/>
<g opacity="0.1">
<path d="M64.1219 58.1704C63.0722 58.2889 62.001 58.3989 60.9219 58.5056C62.0217 60.9084 62.6768 63.5552 61.8288 65.9601C61.1576 67.8627 59.7577 68.9821 57.8861 69.5856C57.3539 69.7574 56.6149 69.9493 56.252 70.4193C56.2431 70.4306 56.2385 70.4336 56.2313 70.4424C56.2313 70.4428 56.2318 70.4428 56.2318 70.4432C56.241 70.5159 56.3821 70.7103 56.4052 70.7532C56.8595 71.5877 57.1989 72.4626 57.3075 73.4118C57.4991 75.0863 56.7446 76.5353 55.3833 77.498C53.5484 78.7958 51.1429 79.8235 48.8995 80.0642C47.545 80.2095 46.1766 80.0217 44.8482 79.6677C44.2162 81.6026 43.5189 83.5216 42.7383 85.4213C46.5534 85.9832 50.2553 86.4465 53.8448 86.8161C56.0086 86.4696 58.121 86.1117 60.1829 85.7434C63.0368 77.0687 64.3871 67.9539 64.1219 58.1704Z" fill="#5D74E4"/>
</g>
<path d="M60.1828 85.7433C59.8165 85.3007 59.4477 84.8529 59.0755 84.3989C57.3845 85.1994 55.6418 86.0054 53.8447 86.816C56.0085 86.4695 58.1209 86.1117 60.1828 85.7433Z" fill="#A0C5FF"/>
<path opacity="0.25" d="M40.751 81.1812V84.5076C40.751 84.5076 50.4996 87.4489 56.463 82.8444C62.4263 78.24 62.2491 76.1711 62.2491 76.1711C62.2491 76.1711 65.1813 77.3555 65.0373 76.0199C64.8933 74.6847 61.8276 73.851 60.5884 74.1269C59.3493 74.4033 40.751 81.1812 40.751 81.1812Z" fill="#000141"/>
<path d="M62.1914 73.437C61.5278 73.5912 58.6356 73.5273 58.3425 73.8318C58.3425 73.8318 58.2036 75.422 58.6061 75.692C59.0448 75.7953 62.3627 75.422 62.3627 75.422C62.3627 75.422 62.756 75.7777 63.6141 75.9659C63.8427 76.0163 64.0743 76.0536 64.2949 76.07V76.0709C64.2958 76.0709 64.2958 76.0709 64.297 76.0717C64.308 76.073 64.3644 76.0835 64.4469 76.0965H64.4478C64.7459 76.1435 65.3863 76.23 65.489 76.1124C65.6187 75.9654 65.6739 75.7546 65.5488 75.629C65.5543 75.6227 65.5589 75.6156 65.5644 75.6093C65.6423 75.6 65.8381 75.5606 65.9164 75.4064C65.9935 75.2565 65.9 75.1351 65.8541 75.0876C65.8566 75.0797 65.86 75.0717 65.8625 75.0641C65.9274 75.0599 66.0692 75.0402 66.1059 74.9482C66.1522 74.8293 66.1909 74.6227 66.0111 74.5232C66.012 74.5206 66.012 74.5173 66.0128 74.5148C66.0507 74.4954 66.1972 74.4089 66.1762 74.1989C66.1522 73.9583 66.0394 73.9247 66.0394 73.9247C66.0394 73.9247 66.1855 73.7256 66.1539 73.5576C66.1227 73.3887 65.9711 73.1821 65.5871 73.1313L65.5838 73.1317C65.5467 73.1174 65.5071 73.1044 65.4646 73.0981C65.2911 73.07 65.1202 73.0544 64.9577 73.0481C64.9244 73.0473 64.8916 73.0469 64.8583 73.0456C64.2255 73.0338 63.7412 73.1514 63.7412 73.1514C63.7412 73.1514 64.6419 72.2518 64.2962 71.7549C63.9518 71.2585 62.8558 73.2825 62.1914 73.437Z" fill="#FECECC"/>
<path opacity="0.2" d="M64.9585 73.0483C65.2212 74.0979 64.5732 75.5255 64.2958 76.0694C64.2949 76.0694 64.2949 76.0702 64.2949 76.0702H64.2958C64.2966 76.0702 64.2966 76.0702 64.2979 76.0711C64.3421 76.0744 64.3926 76.0833 64.4478 76.0959H64.4486C64.7467 76.1429 65.3871 76.2294 65.4899 76.1118C65.6196 75.9648 65.6747 75.754 65.5497 75.6284C65.5551 75.6221 65.5598 75.615 65.5652 75.6087C65.6431 75.5994 65.8389 75.5599 65.9172 75.4058C65.9943 75.2559 65.9008 75.1345 65.8549 75.087C65.8575 75.079 65.8608 75.0711 65.8633 75.0635C65.9282 75.0593 66.0701 75.0396 66.1067 74.9476C66.153 74.8287 66.1918 74.6221 66.012 74.5225C66.0128 74.52 66.0128 74.5167 66.0137 74.5141C66.0516 74.4948 66.1981 74.4083 66.177 74.1983C66.153 73.9576 66.0402 73.924 66.0402 73.924C66.0402 73.924 66.1863 73.725 66.1547 73.557C66.1236 73.3881 65.972 73.1815 65.588 73.1307L65.5846 73.1311C65.5476 73.1168 65.508 73.1038 65.4655 73.0975C65.2916 73.0702 65.1206 73.0546 64.9585 73.0483Z" fill="white"/>
<path d="M65.5219 75.5649C65.3926 75.4885 65.2591 75.4263 65.1206 75.3747C64.9821 75.3234 64.8385 75.2856 64.6924 75.2705C64.8368 75.2965 64.9758 75.3444 65.108 75.4049C65.2398 75.4654 65.3678 75.5376 65.4852 75.6195L65.4861 75.6199C65.5008 75.6304 65.5214 75.6271 65.532 75.612C65.5425 75.5973 65.5387 75.5767 65.524 75.5666C65.5231 75.5658 65.5223 75.5653 65.5219 75.5649Z" fill="#FF97A6"/>
<path d="M65.9974 73.8749C65.8526 73.7964 65.7035 73.7334 65.5499 73.6825C65.3958 73.6317 65.2366 73.5964 65.0762 73.5859C65.2358 73.6086 65.3894 73.6552 65.5372 73.7161C65.6842 73.777 65.8277 73.851 65.9591 73.9358L65.9604 73.9366C65.9768 73.9476 65.9995 73.9429 66.0101 73.9261C66.021 73.9093 66.0164 73.8871 65.9995 73.8766C65.9991 73.8757 65.9983 73.8753 65.9974 73.8749Z" fill="#FF97A6"/>
<path d="M65.9651 74.4562C65.8207 74.3706 65.6712 74.3013 65.5158 74.2433C65.3609 74.1862 65.2005 74.1438 65.0371 74.127C65.1988 74.1559 65.3542 74.2097 65.502 74.2773C65.6493 74.3449 65.7929 74.4256 65.9238 74.5171L65.9251 74.518C65.9415 74.5297 65.9647 74.5255 65.9761 74.5092C65.9878 74.4928 65.9836 74.4697 65.9672 74.4583C65.9668 74.4575 65.966 74.4567 65.9651 74.4562Z" fill="#FF97A6"/>
<path d="M65.8199 75.013C65.6754 74.9278 65.5264 74.858 65.3714 74.8005C65.2169 74.7434 65.0565 74.7014 64.8936 74.6846C65.0548 74.7136 65.2098 74.7669 65.3576 74.8345C65.5049 74.9021 65.6477 74.9824 65.7786 75.0739L65.7799 75.0748C65.7967 75.0865 65.8194 75.0823 65.8308 75.0659C65.8426 75.0496 65.8384 75.0265 65.822 75.0151C65.8211 75.0139 65.8203 75.0134 65.8199 75.013Z" fill="#FF97A6"/>
<path opacity="0.2" d="M64.076 71.7396C64.076 71.7396 63.8204 72.1407 63.7349 72.1466C63.6494 72.1524 63.6221 72.0521 63.6221 72.0521C63.6221 72.0521 63.9252 71.7102 64.076 71.7396Z" fill="white"/>
<path d="M47.9303 48.2896C47.9303 48.2896 32.0604 60.6762 35.6684 77.9709C36.4886 81.9021 45.7176 76.4514 44.9501 74.5568C40.1286 62.6565 47.9303 48.2896 47.9303 48.2896Z" fill="#5D74E4"/>
<path opacity="0.25" d="M44.5424 73.4511C43.0439 69.0117 43.1744 64.3085 43.9138 60.1841C43.9138 60.1816 43.9138 60.1795 43.9138 60.177C43.9209 59.5902 43.9736 59.0052 44.03 58.4214C43.5929 58.8204 43.246 59.3109 42.9365 59.812C42.5761 60.3962 42.2662 61.0094 41.9445 61.6151C41.7854 61.9149 41.6191 62.2085 41.5033 62.529C41.3845 62.8574 41.3121 63.1997 41.2801 63.5471C41.2195 64.2098 41.3075 64.873 41.4182 65.5261C41.6283 66.768 42.0052 68.1267 41.4452 69.3288C41.2039 69.8466 40.8485 70.2969 40.5071 70.7509C40.1121 71.2759 39.7517 71.8232 39.4628 72.4141C38.8847 73.5977 38.5715 74.9337 38.8186 76.2395C39.4022 75.6502 40.0489 75.1265 40.7614 74.6985C41.9121 74.0084 43.2098 73.5909 44.5424 73.4511Z" fill="#000141"/>
<path d="M61.3931 72.9114C61.3931 72.9114 62.2256 75.3357 61.3999 76.2622C60.5746 77.1887 44.7199 82.6336 40.2786 81.7087C32.3696 80.0615 35.0083 73.6443 42.1287 72.4087C49.2491 71.1735 61.3931 72.9114 61.3931 72.9114Z" fill="#5D74E4"/>
<path d="M36.0382 92.3146H76.0937C76.2032 92.3146 76.2921 92.226 76.2921 92.1168C76.2921 92.0076 76.2032 91.9189 76.0937 91.9189H36.0382C35.9287 91.9189 35.8398 92.0076 35.8398 92.1168C35.8398 92.226 35.9287 92.3146 36.0382 92.3146Z" fill="#A0C5FF"/>
<path d="M98.2109 30.3564C98.2109 31.2014 97.6816 31.7294 96.8576 31.7294C96.0332 31.7294 95.5039 31.2014 95.5039 30.3564C95.5039 29.5071 96.0332 28.9834 96.8576 28.9834C97.6816 28.9834 98.2109 29.5071 98.2109 30.3564ZM97.5052 30.3564C97.5052 29.794 97.2559 29.4882 96.8572 29.4882C96.4584 29.4882 96.2092 29.794 96.2092 30.3564C96.2092 30.9146 96.4584 31.2245 96.8572 31.2245C97.2559 31.2245 97.5052 30.9146 97.5052 30.3564Z" fill="#5D74E4"/>
<path d="M100.466 31.6754L99.5039 29.9312C99.527 30.1991 99.527 30.4322 99.527 30.5851V31.675H98.8369V29.0361H99.6959L100.7 30.8568C100.681 30.5889 100.677 30.3176 100.677 30.1643V29.0361H101.367V31.675H100.466V31.6754Z" fill="#5D74E4"/>
<path d="M104.121 31.6755H102.093V29.0366H102.783V31.0942H104.121V31.6755Z" fill="#5D74E4"/>
<path d="M104.712 31.6755V29.0366H105.402V31.6755H104.712Z" fill="#5D74E4"/>
<path d="M107.757 31.6754L106.795 29.9312C106.818 30.1991 106.818 30.4322 106.818 30.5851V31.675H106.128V29.0361H106.987L107.992 30.8568C107.972 30.5889 107.968 30.3176 107.968 30.1643V29.0361H108.658V31.675H107.757V31.6754Z" fill="#5D74E4"/>
<path d="M111.412 31.6755H109.384V29.0366H111.374V29.5721H110.074V30.0845H111.297V30.62H110.074V31.14H111.412V31.6755V31.6755Z" fill="#5D74E4"/>
<path d="M115.389 30.3218C115.389 31.148 114.883 31.5915 114.27 31.6604C114.135 31.6755 114.074 31.6755 113.932 31.6755H112.932V29.0366H113.932C114.074 29.0366 114.135 29.0366 114.27 29.0517C114.883 29.1206 115.389 29.4957 115.389 30.3218ZM114.668 30.3332C114.668 29.8628 114.431 29.6103 114.086 29.5797C113.998 29.5721 113.936 29.5721 113.836 29.5721H113.622V31.1404H113.836C113.936 31.1404 113.998 31.1404 114.086 31.1328C114.431 31.1022 114.668 30.8036 114.668 30.3332Z" fill="#5D74E4"/>
<path d="M118.621 30.3564C118.621 31.2014 118.092 31.7294 117.268 31.7294C116.443 31.7294 115.914 31.2014 115.914 30.3564C115.914 29.5071 116.443 28.9834 117.268 28.9834C118.092 28.9834 118.621 29.5071 118.621 30.3564ZM117.916 30.3564C117.916 29.794 117.667 29.4882 117.268 29.4882C116.869 29.4882 116.62 29.794 116.62 30.3564C116.62 30.9146 116.869 31.2245 117.268 31.2245C117.667 31.2245 117.916 30.9146 117.916 30.3564Z" fill="#5D74E4"/>
<path d="M121.652 29.9048L121.656 29.943H120.966L120.958 29.9048C120.9 29.6217 120.728 29.4882 120.448 29.4882C120.119 29.4882 119.869 29.7637 119.869 30.3332C119.869 30.9989 120.145 31.2244 120.452 31.2244C120.721 31.2244 120.893 31.0598 120.951 30.7692L120.958 30.7309H121.648L121.644 30.7692C121.579 31.4042 121.092 31.7293 120.429 31.7293C119.719 31.7293 119.148 31.2702 119.148 30.3752C119.148 29.4571 119.739 28.9829 120.456 28.9829C121.211 28.9833 121.599 29.3849 121.652 29.9048Z" fill="#5D74E4"/>
<path d="M123.57 29.5721V31.6759H122.879V29.5721H122.021V29.0366H124.429V29.5721H123.57Z" fill="#5D74E4"/>
<path d="M127.431 30.3564C127.431 31.2014 126.902 31.7294 126.077 31.7294C125.253 31.7294 124.724 31.2014 124.724 30.3564C124.724 29.5071 125.253 28.9834 126.077 28.9834C126.902 28.9834 127.431 29.5071 127.431 30.3564ZM126.725 30.3564C126.725 29.794 126.476 29.4882 126.077 29.4882C125.679 29.4882 125.429 29.794 125.429 30.3564C125.429 30.9146 125.679 31.2245 126.077 31.2245C126.476 31.2245 126.725 30.9146 126.725 30.3564Z" fill="#5D74E4"/>
<path d="M130.32 31.6755H129.568C129.506 31.4882 129.468 31.3353 129.445 31.1475C129.411 30.8569 129.296 30.6885 129.12 30.6771C129.043 30.6734 128.978 30.6734 128.901 30.6734H128.748V31.6755H128.058V29.0366H129.108C129.273 29.0366 129.38 29.0404 129.522 29.0555C129.906 29.1013 130.239 29.2886 130.239 29.7557C130.239 30.0883 130.059 30.3101 129.706 30.4134C129.982 30.5129 130.082 30.7158 130.12 31.0329C130.154 31.3315 130.216 31.5188 130.32 31.6755ZM128.997 30.1765C129.069 30.1765 129.131 30.1765 129.181 30.1727C129.357 30.1576 129.518 30.0963 129.518 29.8745C129.518 29.6528 129.376 29.5914 129.2 29.5763C129.15 29.5725 129.088 29.5725 129.016 29.5725H128.747V30.1769H128.997V30.1765Z" fill="#5D74E4"/>
<path d="M72.3341 37.5745V34.7232H72.2831C70.9172 34.7232 69.8057 33.6148 69.8057 32.2523V30.8058C69.8057 29.4433 70.9168 28.335 72.2831 28.335H82.5745C83.9404 28.335 85.0516 29.4433 85.0516 30.8058V32.2523C85.0516 33.6148 83.94 34.7232 82.5745 34.7232H75.4756L72.3341 37.5745ZM72.2831 28.6277C71.0793 28.6277 70.1 29.6046 70.1 30.8054V32.2519C70.1 33.4527 71.0793 34.4296 72.2831 34.4296H72.628V36.9109L75.3615 34.4296H82.5741C83.7779 34.4296 84.7572 33.4527 84.7572 32.2519V30.8054C84.7572 29.6046 83.7779 28.6277 82.5741 28.6277H72.2831Z" fill="#A0C5FF"/>
<path d="M76.6384 31.629C76.6666 32.0645 77.043 32.3946 77.4797 32.3665C77.9163 32.3388 78.2472 31.9629 78.219 31.5278C78.1908 31.0922 77.8144 30.7621 77.3782 30.7902C76.9416 30.818 76.6102 31.1934 76.6384 31.629Z" fill="#A0C5FF"/>
<path d="M79.6973 31.5786C79.6973 32.015 80.0518 32.3686 80.4893 32.3686C80.9267 32.3686 81.2813 32.015 81.2813 31.5786C81.2813 31.1422 80.9267 30.7886 80.4893 30.7886C80.0518 30.7886 79.6973 31.1422 79.6973 31.5786Z" fill="#A0C5FF"/>
<path d="M73.5778 31.629C73.6056 32.0645 73.9825 32.3946 74.4187 32.3665C74.8553 32.3388 75.1863 31.9629 75.1585 31.5278C75.1303 31.0922 74.7539 30.7621 74.3172 30.7902C73.881 30.818 73.5496 31.1934 73.5778 31.629Z" fill="#A0C5FF"/>
<path opacity="0.2" d="M22.5371 44.2324V45.9888C22.5371 45.9888 23.9645 46.4046 25.4617 45.2685V43.334L22.5371 44.2324Z" fill="#000141"/>
<path d="M21.2185 45.1355C19.4193 45.1355 17.6202 44.4525 16.2505 43.0859C13.5116 40.3533 13.5116 35.9068 16.2505 33.1747C18.9894 30.4418 23.4476 30.4418 26.1865 33.1747C26.5368 33.5241 26.5368 34.0899 26.1865 34.4393C25.8362 34.7888 25.2686 34.7888 24.9187 34.4393C23.9305 33.4536 22.616 32.9105 21.2185 32.9105C19.821 32.9105 18.5065 33.4536 17.5183 34.4393C15.4783 36.4746 15.4783 39.7859 17.5183 41.8212C18.5065 42.807 19.821 43.35 21.2185 43.35C22.616 43.35 23.9305 42.807 24.9187 41.8212C26.5204 40.2231 26.9116 37.7951 25.8922 35.7791C25.669 35.3381 25.8467 34.8001 26.2884 34.5775C26.7309 34.3524 27.2694 34.5317 27.493 34.9727C28.8627 37.68 28.3377 40.9405 26.1869 43.0859C24.8168 44.4521 23.0172 45.1355 21.2185 45.1355Z" fill="#A0C5FF"/>
<path d="M25.2804 34.078C27.5237 36.3158 27.5237 39.9442 25.2804 42.182C23.037 44.4197 19.3995 44.4197 17.1562 42.182C14.9128 39.9442 14.9128 36.3158 17.1562 34.078C19.3995 31.8399 23.0366 31.8399 25.2804 34.078Z" fill="white"/>
<path opacity="0.54" d="M23.0983 37.486V40.3315C23.0983 40.8065 22.7139 41.1903 22.2398 41.1903H20.2634C19.7897 41.1903 19.4053 40.8065 19.4053 40.3315V37.486C19.4053 37.4553 19.4078 37.4276 19.4103 37.3994C19.4255 37.2369 19.4895 37.0819 19.5914 36.9551L20.5947 35.6846H21.9093L22.9126 36.9551C23.0145 37.0819 23.0781 37.2373 23.0937 37.3994C23.0958 37.4276 23.0983 37.4557 23.0983 37.486Z" fill="#A0C5FF"/>
<path d="M23.0983 37.4859V39.9707H19.4053L19.4103 37.3994H23.0933C23.0958 37.4276 23.0983 37.4557 23.0983 37.4859Z" fill="#5D74E4"/>
<path d="M22.1187 34.7426V35.4045C22.1187 35.5611 21.9924 35.6876 21.8349 35.6876H20.6627C20.5056 35.6876 20.3789 35.5611 20.3789 35.4045V34.7308C20.3861 34.5788 20.5103 34.4595 20.6627 34.4595H21.8349C21.9924 34.4595 22.1187 34.5859 22.1187 34.7426Z" fill="#A0C5FF"/>
<path d="M21.5449 34.731H20.3799V34.7893H21.5449V34.731Z" fill="white"/>
<path d="M21.3273 34.9131H20.3799V34.9715H21.3273V34.9131Z" fill="white"/>
<path d="M21.5449 35.1099H20.3799V35.1682H21.5449V35.1099Z" fill="white"/>
<path d="M21.3273 35.292H20.3799V35.3529H21.3273V35.292Z" fill="white"/>
<path d="M22.44 37.3994V39.9707H22.2143V37.4859C22.2143 37.4553 22.2126 37.4276 22.2109 37.3994H22.44V37.3994Z" fill="white"/>
<path opacity="0.2" d="M141.865 65.3003V67.2441C141.865 67.2441 140.957 67.8035 138.969 67.2441V64.8198L141.865 65.3003Z" fill="#000141"/>
<path d="M140.315 66.2875C138.463 66.2875 136.61 65.584 135.2 64.177C132.38 61.3634 132.38 56.785 135.2 53.9718C138.02 51.1578 142.611 51.1578 145.431 53.9718C145.791 54.3313 145.791 54.9143 145.431 55.2742C145.07 55.6342 144.486 55.6342 144.125 55.2742C143.107 54.2591 141.754 53.7005 140.315 53.7005C138.876 53.7005 137.523 54.2595 136.506 55.2742C134.406 57.3696 134.406 60.7792 136.506 62.875C137.523 63.8901 138.877 64.4487 140.315 64.4487C141.754 64.4487 143.108 63.8897 144.125 62.875C145.774 61.2298 146.177 58.7296 145.127 56.6535C144.897 56.1995 145.08 55.6455 145.535 55.4166C145.991 55.1848 146.546 55.3696 146.776 55.8236C148.186 58.6111 147.645 61.9682 145.431 64.1774C144.02 65.5836 142.168 66.2875 140.315 66.2875Z" fill="#A0C5FF"/>
<path d="M144.498 54.9019C146.808 57.206 146.808 60.9419 144.498 63.2461C142.188 65.5502 138.443 65.5502 136.133 63.2461C133.823 60.9419 133.823 57.206 136.133 54.9019C138.443 52.5978 142.188 52.5978 144.498 54.9019Z" fill="url(#paint0_linear_135_73)"/>
<path d="M142.454 56.6159L141.465 59.9121C141.306 60.4413 140.747 60.7458 140.215 60.5871C139.685 60.4283 139.386 59.8676 139.545 59.338L140.534 56.0422C140.694 55.513 141.253 55.2085 141.783 55.3673C142.314 55.5256 142.614 56.0867 142.454 56.6159Z" fill="#5D74E4"/>
<path d="M142.454 56.6159L141.967 58.2363L140.047 57.6626L140.534 56.0422C140.693 55.513 141.252 55.2085 141.782 55.3673C142.313 55.5256 142.613 56.0867 142.454 56.6159Z" fill="#A0C5FF"/>
<path opacity="0.44" d="M140.047 57.6626L141.897 58.4753L141.967 58.2363L140.047 57.6626Z" fill="#BAF1EB"/>
<path opacity="0.49" d="M141.866 55.5811C142.034 55.6819 142.181 55.8297 142.271 56.0183C142.378 56.2085 142.314 56.4563 142.264 56.6294C142.172 57.0095 142.07 57.3866 141.961 57.7617C141.745 58.5127 141.511 59.2582 141.242 59.9932L141.239 60.0037L141.237 60.0062C141.146 60.1511 141.026 60.267 140.878 60.3447C140.73 60.4228 140.551 60.4333 140.406 60.3703C140.562 60.398 140.717 60.3619 140.836 60.275C140.953 60.1872 141.047 60.0637 141.113 59.9402L141.107 59.9528C141.289 59.1914 141.504 58.4404 141.738 57.6949C141.854 57.322 141.976 56.9507 142.109 56.5828C142.182 56.3917 142.235 56.235 142.177 56.0527C142.127 55.8763 142.006 55.7163 141.866 55.5811Z" fill="white"/>
<path d="M140.135 58.2391V61.6797C140.135 62.2324 139.687 62.6839 139.132 62.6839C138.578 62.6839 138.13 62.2324 138.13 61.6797V58.2391C138.13 57.6864 138.578 57.2349 139.132 57.2349C139.687 57.2349 140.135 57.6864 140.135 58.2391Z" fill="#5D74E4"/>
<path d="M140.134 58.2391V59.9304H138.13V58.2391C138.13 57.6864 138.578 57.2349 139.132 57.2349C139.686 57.2349 140.134 57.6864 140.134 58.2391Z" fill="#A0C5FF"/>
<path opacity="0.44" d="M138.13 59.9302L140.135 60.1792L140.134 59.9302H138.13Z" fill="#BAF1EB"/>
<path opacity="0.49" d="M139.273 57.416C139.463 57.4643 139.646 57.5634 139.786 57.7188C139.944 57.87 139.954 58.1258 139.956 58.306C139.977 58.6966 139.988 59.0872 139.991 59.4778C140 60.259 139.991 61.0398 139.946 61.821L139.945 61.8323L139.944 61.8348C139.898 61.9999 139.817 62.1452 139.697 62.262C139.578 62.3792 139.41 62.4405 139.253 62.4216C139.41 62.4035 139.548 62.3246 139.637 62.207C139.724 62.0894 139.779 61.944 139.806 61.8071L139.805 61.821C139.759 61.0398 139.749 60.2586 139.758 59.4778C139.762 59.0872 139.773 58.6966 139.794 58.306C139.81 58.1019 139.815 57.9368 139.707 57.7789C139.607 57.6239 139.446 57.5051 139.273 57.416Z" fill="white"/>
<path d="M141.809 62.1021C141.64 62.3696 141.325 62.4851 141.035 62.4162C141.001 62.4099 140.969 62.4011 140.935 62.3877C140.895 62.3734 140.853 62.3507 140.815 62.3272C140.771 62.2999 140.734 62.2688 140.698 62.2352C140.672 62.2109 140.65 62.1857 140.63 62.1579C140.449 61.9274 140.421 61.6002 140.589 61.3352C140.755 61.0727 141.065 60.9538 141.351 61.0164C141.385 61.0227 141.417 61.0315 141.45 61.0449C141.496 61.0626 141.54 61.0827 141.583 61.11C141.621 61.134 141.66 61.1621 141.69 61.1924C141.717 61.2167 141.739 61.2419 141.759 61.2696C141.947 61.5011 141.978 61.8345 141.809 62.1021Z" fill="#5D74E4"/>
<path d="M141.759 61.2699C141.759 61.2699 140.969 62.4018 140.935 62.3884C140.895 62.3741 140.853 62.3514 140.814 62.3279C140.771 62.3006 140.733 62.2695 140.698 62.2359C140.672 62.2116 141.35 61.0171 141.35 61.0171C141.384 61.0234 141.416 61.0322 141.45 61.0456C141.495 61.0633 141.54 61.0834 141.583 61.1107C141.621 61.1347 141.66 61.1628 141.69 61.1931C141.717 61.217 141.739 61.2422 141.759 61.2699Z" fill="#A0C5FF"/>
<path opacity="0.49" d="M141.691 61.1928L140.935 62.3881C140.895 62.3739 140.853 62.3512 140.814 62.3277C140.771 62.3004 140.734 62.2693 140.698 62.2357L141.45 61.0454C141.496 61.0631 141.54 61.0832 141.583 61.1105C141.622 61.134 141.661 61.1622 141.691 61.1928Z" fill="white"/>
<path d="M143.549 60.5679C143.612 60.9618 143.41 61.3327 143.077 61.5078C143.04 61.5305 143.002 61.5486 142.96 61.5633C142.909 61.5834 142.85 61.5969 142.794 61.6057C142.73 61.6158 142.669 61.6174 142.608 61.6149C142.562 61.6137 142.521 61.6082 142.479 61.599C142.116 61.5301 141.816 61.2428 141.754 60.853C141.693 60.4671 141.887 60.0979 142.21 59.9198C142.248 59.8971 142.286 59.8791 142.328 59.8644C142.386 59.8429 142.445 59.8253 142.509 59.8152C142.565 59.8068 142.625 59.8014 142.679 59.8047C142.724 59.806 142.765 59.8114 142.808 59.8211C143.178 59.8845 143.486 60.1739 143.549 60.5679Z" fill="#5D74E4"/>
<path d="M142.808 59.8211C142.808 59.8211 143.003 61.5486 142.96 61.5633C142.91 61.5834 142.851 61.5969 142.795 61.6057C142.731 61.6158 142.67 61.6174 142.608 61.6149C142.563 61.6137 142.211 59.9198 142.211 59.9198C142.248 59.8971 142.286 59.8791 142.329 59.8644C142.387 59.8429 142.445 59.8253 142.509 59.8152C142.565 59.8068 142.626 59.8014 142.679 59.8047C142.725 59.806 142.766 59.8114 142.808 59.8211Z" fill="#A0C5FF"/>
<path opacity="0.49" d="M142.679 59.8047L142.96 61.5633C142.91 61.5834 142.851 61.5969 142.795 61.6057C142.731 61.6158 142.67 61.6174 142.609 61.6149L142.329 59.8644C142.387 59.8429 142.446 59.8253 142.509 59.8152C142.565 59.8068 142.626 59.8014 142.679 59.8047Z" fill="white"/>
<path d="M144.566 41.6966C144.699 41.6966 144.806 41.5895 144.806 41.4572C144.806 41.3249 144.699 41.2178 144.566 41.2178C144.434 41.2178 144.326 41.3249 144.326 41.4572C144.326 41.5895 144.434 41.6966 144.566 41.6966Z" fill="#A0C5FF"/>
<path d="M144.566 43.532C144.699 43.532 144.806 43.4249 144.806 43.2926C144.806 43.1603 144.699 43.0532 144.566 43.0532C144.434 43.0532 144.326 43.1603 144.326 43.2926C144.326 43.4249 144.434 43.532 144.566 43.532Z" fill="#A0C5FF"/>
<path d="M144.566 45.3675C144.699 45.3675 144.806 45.2604 144.806 45.1281C144.806 44.9958 144.699 44.8887 144.566 44.8887C144.434 44.8887 144.326 44.9958 144.326 45.1281C144.326 45.2604 144.434 45.3675 144.566 45.3675Z" fill="#A0C5FF"/>
<path d="M144.566 47.2029C144.699 47.2029 144.806 47.0958 144.806 46.9635C144.806 46.8312 144.699 46.7241 144.566 46.7241C144.434 46.7241 144.326 46.8312 144.326 46.9635C144.326 47.0958 144.434 47.2029 144.566 47.2029Z" fill="#A0C5FF"/>
<path d="M145.602 40.7371C145.735 40.7371 145.842 40.63 145.842 40.4977C145.842 40.3654 145.735 40.2583 145.602 40.2583C145.47 40.2583 145.362 40.3654 145.362 40.4977C145.362 40.63 145.47 40.7371 145.602 40.7371Z" fill="#A0C5FF"/>
<path d="M145.602 42.573C145.735 42.573 145.842 42.4659 145.842 42.3336C145.842 42.2013 145.735 42.0942 145.602 42.0942C145.47 42.0942 145.362 42.2013 145.362 42.3336C145.362 42.4655 145.47 42.573 145.602 42.573Z" fill="#A0C5FF"/>
<path d="M145.602 44.4085C145.735 44.4085 145.842 44.3014 145.842 44.1691C145.842 44.0368 145.735 43.9297 145.602 43.9297C145.47 43.9297 145.362 44.0368 145.362 44.1691C145.362 44.3014 145.47 44.4085 145.602 44.4085Z" fill="#A0C5FF"/>
<path d="M145.602 46.2439C145.735 46.2439 145.842 46.1368 145.842 46.0045C145.842 45.8722 145.735 45.7651 145.602 45.7651C145.47 45.7651 145.362 45.8722 145.362 46.0045C145.362 46.1368 145.47 46.2439 145.602 46.2439Z" fill="#A0C5FF"/>
<path d="M15.3591 86.4979C15.5258 86.4979 15.6606 86.3631 15.6606 86.1972C15.6606 86.0309 15.5254 85.8965 15.3591 85.8965C15.1928 85.8965 15.0576 86.0313 15.0576 86.1972C15.0576 86.3635 15.1924 86.4979 15.3591 86.4979Z" fill="#A0C5FF"/>
<path d="M15.3591 88.8041C15.5258 88.8041 15.6606 88.6693 15.6606 88.5034C15.6606 88.3375 15.5254 88.2026 15.3591 88.2026C15.1928 88.2026 15.0576 88.3375 15.0576 88.5034C15.0576 88.6697 15.1924 88.8041 15.3591 88.8041Z" fill="#A0C5FF"/>
<path d="M15.3591 91.1102C15.5258 91.1102 15.6606 90.9754 15.6606 90.8095C15.6606 90.6432 15.5254 90.5088 15.3591 90.5088C15.1928 90.5088 15.0576 90.6436 15.0576 90.8095C15.0576 90.9754 15.1924 91.1102 15.3591 91.1102Z" fill="#A0C5FF"/>
<path d="M15.3591 93.4164C15.5258 93.4164 15.6606 93.2816 15.6606 93.1157C15.6606 92.9493 15.5254 92.8149 15.3591 92.8149C15.1928 92.8149 15.0576 92.9498 15.0576 93.1157C15.0576 93.2816 15.1924 93.4164 15.3591 93.4164Z" fill="#A0C5FF"/>
<path d="M16.6608 85.2924C16.8276 85.2924 16.9623 85.1575 16.9623 84.9916C16.9623 84.8257 16.8272 84.6909 16.6608 84.6909C16.4945 84.6909 16.3594 84.8257 16.3594 84.9916C16.3594 85.1575 16.4941 85.2924 16.6608 85.2924Z" fill="#A0C5FF"/>
<path d="M16.6608 87.5985C16.8276 87.5985 16.9623 87.4637 16.9623 87.2978C16.9623 87.1319 16.8272 86.9971 16.6608 86.9971C16.4945 86.9971 16.3594 87.1319 16.3594 87.2978C16.3594 87.4637 16.4941 87.5985 16.6608 87.5985Z" fill="#A0C5FF"/>
<path d="M16.6608 89.9047C16.8276 89.9047 16.9623 89.7698 16.9623 89.6039C16.9623 89.4376 16.8272 89.3032 16.6608 89.3032C16.4945 89.3032 16.3594 89.438 16.3594 89.6039C16.359 89.7698 16.4941 89.9047 16.6608 89.9047Z" fill="#A0C5FF"/>
<path d="M16.6608 92.2108C16.8276 92.2108 16.9623 92.076 16.9623 91.9101C16.9623 91.7442 16.8272 91.6094 16.6608 91.6094C16.4945 91.6094 16.3594 91.7442 16.3594 91.9101C16.359 92.076 16.4941 92.2108 16.6608 92.2108Z" fill="#A0C5FF"/>
<defs>
<linearGradient id="paint0_linear_135_73" x1="134.4" y1="59.0741" x2="146.23" y2="59.0741" gradientUnits="userSpaceOnUse">
<stop stop-color="#D1F4FF"/>
<stop offset="0.4183" stop-color="#FBFEFE"/>
<stop offset="1" stop-color="#D1F4FF"/>
</linearGradient>
</defs>
</svg>
