<svg width="20" height="20" viewBox="0 0 20 20" fill="none" xmlns="http://www.w3.org/2000/svg">
<path d="M13.0004 10.0004C13.0004 10.796 12.6843 11.5591 12.1217 12.1217C11.5591 12.6843 10.796 13.0004 10.0004 13.0004C9.20474 13.0004 8.44168 12.6843 7.87907 12.1217C7.31646 11.5591 7.00039 10.796 7.00039 10.0004C7.00039 9.82939 7.01839 9.66239 7.04939 9.50039H6.00039V13.4974C6.00039 13.7754 6.22539 14.0004 6.50339 14.0004H13.4984C13.6316 14.0001 13.7593 13.947 13.8534 13.8527C13.9475 13.7584 14.0004 13.6306 14.0004 13.4974V9.50039H12.9514C12.9824 9.66239 13.0004 9.82939 13.0004 10.0004V10.0004ZM10.0004 12.0004C10.2631 12.0003 10.5232 11.9485 10.7659 11.8479C11.0086 11.7473 11.2291 11.5999 11.4148 11.4141C11.6005 11.2283 11.7478 11.0077 11.8483 10.765C11.9488 10.5223 12.0005 10.2621 12.0004 9.99939C12.0003 9.73668 11.9485 9.47656 11.8479 9.23387C11.7473 8.99118 11.5999 8.77069 11.4141 8.58497C11.2283 8.39925 11.0077 8.25195 10.765 8.15148C10.5223 8.051 10.2621 7.99932 9.99939 7.99939C9.46883 7.99952 8.96004 8.21042 8.58497 8.58568C8.2099 8.96094 7.99926 9.46983 7.99939 10.0004C7.99952 10.531 8.21042 11.0397 8.58568 11.4148C8.96094 11.7899 9.46983 12.0005 10.0004 12.0004V12.0004ZM12.4004 7.90039H13.5994C13.679 7.90039 13.7555 7.86882 13.8119 7.81258C13.8683 7.75635 13.9001 7.68005 13.9004 7.60039V6.40139C13.9004 6.32156 13.8687 6.245 13.8122 6.18855C13.7558 6.1321 13.6792 6.10039 13.5994 6.10039H12.4004C12.3206 6.10039 12.244 6.1321 12.1876 6.18855C12.1311 6.245 12.0994 6.32156 12.0994 6.40139V7.60039C12.1004 7.76539 12.2354 7.90039 12.4004 7.90039V7.90039ZM10.0004 0.400391C7.45431 0.400391 5.01251 1.41182 3.21217 3.21217C1.41182 5.01251 0.400391 7.45431 0.400391 10.0004C0.400391 12.5465 1.41182 14.9883 3.21217 16.7886C5.01251 18.589 7.45431 19.6004 10.0004 19.6004C11.2611 19.6004 12.5094 19.3521 13.6742 18.8696C14.8389 18.3872 15.8972 17.6801 16.7886 16.7886C17.6801 15.8972 18.3872 14.8389 18.8696 13.6742C19.3521 12.5094 19.6004 11.2611 19.6004 10.0004C19.6004 8.7397 19.3521 7.49136 18.8696 6.32663C18.3872 5.1619 17.6801 4.10361 16.7886 3.21217C15.8972 2.32072 14.8389 1.61359 13.6742 1.13115C12.5094 0.648702 11.2611 0.400391 10.0004 0.400391V0.400391ZM15.0004 13.8894C15.0004 14.5004 14.5004 15.0004 13.8894 15.0004H6.11139C5.50039 15.0004 5.00039 14.5004 5.00039 13.8894V6.11139C5.00039 5.50039 5.50039 5.00039 6.11139 5.00039H13.8894C14.5004 5.00039 15.0004 5.50039 15.0004 6.11139V13.8894V13.8894Z" fill="#F47B1E"/>
</svg>
