<svg width="52" height="80" viewBox="0 0 52 80" fill="none" xmlns="http://www.w3.org/2000/svg">
<path d="M11.231 16.9364C11.0161 16.9126 5.83232 16.4348 1.36523 13.3771L2.58353 11.6094C6.57286 14.3326 11.3744 14.7865 11.4222 14.8104L11.231 16.9364Z" fill="#7ABD4C"/>
<path d="M10.9683 16.5064C10.9205 16.4587 5.83232 11.4899 1.05469 9.76997L1.77133 7.73947C7.00284 9.60275 12.2582 14.7626 12.4732 14.9776L10.9683 16.5064ZM12.9271 15.2165C12.6643 14.9537 6.35786 8.98166 3.89738 3.12905L5.8801 2.29297C8.17336 7.71558 14.3365 13.5921 14.4082 13.6399L12.9271 15.2165Z" fill="#4FA812"/>
<path d="M12.4494 15.8852C12.4016 15.8374 7.60005 11.4181 4.16016 8.90985L5.42623 7.16602C8.98557 9.74594 13.7154 14.1175 13.9304 14.3086L12.4494 15.8852Z" fill="#7ABD4C"/>
<path d="M11.0419 13.5925C11.0419 13.5925 4.54436 19.6123 14.0519 27.6865C14.0519 27.6865 44.0076 54.3218 49.908 52.7691C49.908 52.7691 54.9962 53.4619 43.4343 38.7706C43.4343 38.7706 32.828 25.0349 24.3954 16.3635C24.4193 16.3635 17.0379 8.38487 11.0419 13.5925Z" fill="#EB5900"/>
<path d="M34.8101 28.0449C32.2063 31.5804 29.3397 35.2353 26.7598 38.4124C27.5481 39.0574 28.3603 39.7023 29.1725 40.3473C31.6091 37.3374 34.3323 33.8736 36.8406 30.5054C36.1717 29.6932 35.5028 28.881 34.8101 28.0449Z" fill="#DE4A00"/>
<path d="M16.4867 27.8771C16.3434 27.8771 16.1762 27.8294 16.0567 27.7338C8.8425 22.1917 10.4191 17.3424 10.4908 17.1513C10.6102 16.7691 11.0402 16.578 11.3985 16.6975C11.7807 16.8169 11.9718 17.223 11.8524 17.6052C11.8046 17.7724 10.6341 21.7379 16.9406 26.5872C17.2511 26.826 17.3228 27.2799 17.0839 27.5905C16.9167 27.7816 16.7017 27.8771 16.4867 27.8771Z" fill="#F48435"/>
<path d="M24.275 21.4267C24.1795 21.4267 24.0601 21.4028 23.9645 21.355C23.6062 21.1878 23.4629 20.7578 23.6301 20.3995C28.336 10.4859 33.1137 10.7726 33.3048 10.7964C33.7109 10.8203 33.9975 11.1786 33.9498 11.5847C33.9259 11.967 33.5675 12.2775 33.1853 12.2297C33.1137 12.2297 29.1243 12.182 24.92 21.0206C24.8006 21.2595 24.5378 21.4267 24.275 21.4267Z" fill="#F59653"/>
<path d="M34.3301 11.3948C34.3062 11.1798 33.7567 5.99608 35.8589 1.02734L37.8416 1.86343C35.9544 6.33052 36.4561 11.1082 36.4561 11.1559L34.3301 11.3948Z" fill="#7ABD4C"/>
<path d="M36.505 12.2307L34.6895 11.0602C34.7372 10.9886 38.6071 5.01652 39.3238 0L41.4498 0.310546C40.6615 5.80483 36.6722 11.968 36.505 12.2307ZM38.1771 13.8551L36.3377 12.7085C36.5288 12.398 41.1631 5.0404 46.3947 1.48107L47.613 3.27268C42.7637 6.59314 38.2249 13.7835 38.1771 13.8551Z" fill="#4FA812"/>
<path d="M37.437 13.4974L35.5977 12.3747C35.6215 12.3269 39.0137 6.73707 40.8053 2.86719L42.7641 3.75105C40.9486 7.76426 37.5804 13.2824 37.437 13.4974Z" fill="#7ABD4C"/>
<path d="M37.556 10.5592C37.556 10.5592 30.3656 5.37543 24.3458 16.3162C24.3458 16.3162 4.16031 50.9541 6.88356 56.4484C6.88356 56.4484 7.21799 61.5843 19.3293 47.3231C19.3293 47.3231 30.6762 34.2085 37.5082 24.2232C37.5082 24.2232 43.8386 15.4085 37.556 10.5592Z" fill="#F47B1E"/>
<path d="M37.5076 10.5578C37.5076 10.5578 36.4326 9.79342 34.7605 9.45898C36.2654 14.0216 33.2794 19.3487 33.2794 19.3487C27.4746 30.2417 17.2982 44.7657 17.2982 44.7657C11.1589 53.6999 8.14904 55.8737 6.66797 56.0648C6.71575 56.2081 6.73963 56.3276 6.8113 56.447C6.8113 56.447 7.14573 61.583 19.257 47.3217C19.257 47.3217 30.6039 34.2071 37.4359 24.2219C37.4359 24.2219 43.7902 15.4071 37.5076 10.5578Z" fill="#F3690B"/>
<path d="M0.455078 61.7455H2.45191L4.1458 65.876H4.22398L5.91787 61.7455H7.9147V68.4168H6.3446V64.3189H6.28922L4.68654 68.3745H3.68324L2.08056 64.2961H2.02518V68.4168H0.455078V61.7455Z" fill="#F47B1E"/>
<path d="M9.49702 68.4168H8.65008L11.0997 61.7455H11.9336L14.3832 68.4168H13.5363L11.5427 62.8009H11.4906L9.49702 68.4168ZM9.80974 65.8108H13.2236V66.5275H9.80974V65.8108Z" fill="#F47B1E"/>
<path d="M15.4224 68.4168V61.7455H17.6766C18.1977 61.7455 18.6256 61.8345 18.96 62.0126C19.2944 62.1885 19.542 62.4307 19.7027 62.739C19.8634 63.0474 19.9438 63.3981 19.9438 63.7912C19.9438 64.1843 19.8634 64.5328 19.7027 64.8369C19.542 65.1409 19.2955 65.3798 18.9633 65.5535C18.631 65.7251 18.2064 65.8108 17.6896 65.8108H15.8654V65.0812H17.6635C18.0197 65.0812 18.3063 65.029 18.5235 64.9248C18.7428 64.8206 18.9014 64.6729 18.9991 64.4818C19.099 64.2885 19.1489 64.0583 19.1489 63.7912C19.1489 63.5241 19.099 63.2906 18.9991 63.0908C18.8992 62.8911 18.7396 62.7369 18.5202 62.6283C18.3009 62.5175 18.011 62.4622 17.6505 62.4622H16.2302V68.4168H15.4224ZM18.5626 65.4199L20.2044 68.4168H19.2662L17.6505 65.4199H18.5626Z" fill="#F47B1E"/>
<path d="M21.2899 68.4168V61.7455H22.0978V65.0551H22.1759L25.1728 61.7455H26.2282L23.4268 64.7554L26.2282 68.4168H25.251L22.9317 65.3157L22.0978 66.2539V68.4168H21.2899Z" fill="#F47B1E"/>
<path d="M32.5893 65.0812C32.5893 65.7848 32.4622 66.3928 32.2082 66.9054C31.9541 67.4179 31.6055 67.8131 31.1625 68.0911C30.7195 68.369 30.2135 68.508 29.6445 68.508C29.0756 68.508 28.5696 68.369 28.1265 68.0911C27.6835 67.8131 27.335 67.4179 27.0809 66.9054C26.8268 66.3928 26.6998 65.7848 26.6998 65.0812C26.6998 64.3775 26.8268 63.7695 27.0809 63.257C27.335 62.7445 27.6835 62.3492 28.1265 62.0713C28.5696 61.7933 29.0756 61.6543 29.6445 61.6543C30.2135 61.6543 30.7195 61.7933 31.1625 62.0713C31.6055 62.3492 31.9541 62.7445 32.2082 63.257C32.4622 63.7695 32.5893 64.3775 32.5893 65.0812ZM31.8075 65.0812C31.8075 64.5035 31.7109 64.016 31.5176 63.6186C31.3265 63.2211 31.067 62.9204 30.739 62.7162C30.4133 62.5121 30.0485 62.41 29.6445 62.41C29.2406 62.41 28.8747 62.5121 28.5468 62.7162C28.221 62.9204 27.9615 63.2211 27.7682 63.6186C27.5771 64.016 27.4816 64.5035 27.4816 65.0812C27.4816 65.6588 27.5771 66.1464 27.7682 66.5438C27.9615 66.9412 28.221 67.242 28.5468 67.4461C28.8747 67.6502 29.2406 67.7523 29.6445 67.7523C30.0485 67.7523 30.4133 67.6502 30.739 67.4461C31.067 67.242 31.3265 66.9412 31.5176 66.5438C31.7109 66.1464 31.8075 65.6588 31.8075 65.0812Z" fill="#F47B1E"/>
<path d="M33.9078 61.7455L35.8883 67.3614H35.9665L37.947 61.7455H38.794L36.3443 68.4168H35.5104L33.0608 61.7455H33.9078Z" fill="#F47B1E"/>
<path d="M45.1232 61.7455V68.4168H44.3415L40.7061 63.1788H40.641V68.4168H39.8331V61.7455H40.6149L44.2633 66.9966H44.3284V61.7455H45.1232Z" fill="#F47B1E"/>
<path d="M47.0134 68.4168H46.1665L48.6161 61.7455H49.45L51.8996 68.4168H51.0527L49.0591 62.8009H49.007L47.0134 68.4168ZM47.3261 65.8108H50.74V66.5275H47.3261V65.8108Z" fill="#F47B1E"/>
<path d="M11.2728 74.8797C11.2337 74.5496 11.0751 74.2933 10.7972 74.1109C10.5192 73.9285 10.1782 73.8373 9.77432 73.8373C9.47897 73.8373 9.22055 73.885 8.99904 73.9806C8.7797 74.0761 8.60814 74.2075 8.48436 74.3747C8.36274 74.542 8.30194 74.732 8.30194 74.9448C8.30194 75.1229 8.34428 75.276 8.42898 75.4041C8.51584 75.5301 8.6266 75.6354 8.76124 75.7201C8.89588 75.8026 9.03704 75.871 9.18471 75.9253C9.33239 75.9774 9.46811 76.0198 9.5919 76.0524L10.2695 76.2348C10.4432 76.2804 10.6365 76.3434 10.8493 76.4237C11.0643 76.5041 11.2695 76.6137 11.4649 76.7527C11.6626 76.8895 11.8254 77.0654 11.9536 77.2804C12.0817 77.4954 12.1458 77.7593 12.1458 78.072C12.1458 78.4325 12.0513 78.7582 11.8624 79.0492C11.6756 79.3402 11.402 79.5715 11.0415 79.7431C10.6832 79.9146 10.2477 80.0004 9.73523 80.0004C9.25746 80.0004 8.84376 79.9233 8.49413 79.7691C8.14666 79.6149 7.87303 79.4 7.67324 79.1242C7.47562 78.8484 7.36378 78.528 7.33772 78.1632H8.17164C8.19335 78.4151 8.27805 78.6236 8.42572 78.7886C8.57556 78.9515 8.7645 79.0731 8.99252 79.1535C9.22272 79.2316 9.47028 79.2707 9.73523 79.2707C10.0436 79.2707 10.3205 79.2208 10.5659 79.1209C10.8113 79.0188 11.0056 78.8777 11.149 78.6974C11.2923 78.515 11.364 78.3022 11.364 78.059C11.364 77.8374 11.3021 77.6572 11.1783 77.5182C11.0545 77.3792 10.8916 77.2663 10.6897 77.1794C10.4877 77.0926 10.2695 77.0166 10.0349 76.9514L9.21403 76.7169C8.69283 76.567 8.28022 76.3531 7.97619 76.0752C7.67216 75.7972 7.52014 75.4334 7.52014 74.9839C7.52014 74.6104 7.62112 74.2846 7.82309 74.0067C8.02722 73.7265 8.30085 73.5093 8.64397 73.3552C8.98926 73.1988 9.37473 73.1206 9.80038 73.1206C10.2304 73.1206 10.6126 73.1977 10.947 73.3519C11.2814 73.5039 11.5464 73.7124 11.7418 73.9773C11.9395 74.2423 12.0437 74.5431 12.0546 74.8797H11.2728Z" fill="#F47B1E"/>
<path d="M18.8423 75.2966H18.0345C17.9867 75.0642 17.9031 74.8601 17.7836 74.6842C17.6664 74.5083 17.523 74.3606 17.3537 74.2412C17.1864 74.1196 17.0008 74.0284 16.7966 73.9676C16.5925 73.9068 16.3797 73.8764 16.1582 73.8764C15.7542 73.8764 15.3883 73.9784 15.0604 74.1826C14.7346 74.3867 14.4751 74.6875 14.2819 75.0849C14.0907 75.4823 13.9952 75.9698 13.9952 76.5475C13.9952 77.1251 14.0907 77.6127 14.2819 78.0101C14.4751 78.4075 14.7346 78.7083 15.0604 78.9124C15.3883 79.1166 15.7542 79.2186 16.1582 79.2186C16.3797 79.2186 16.5925 79.1882 16.7966 79.1274C17.0008 79.0666 17.1864 78.9765 17.3537 78.857C17.523 78.7354 17.6664 78.5867 17.7836 78.4108C17.9031 78.2327 17.9867 78.0286 18.0345 77.7984H18.8423C18.7815 78.1393 18.6708 78.4444 18.5101 78.7137C18.3494 78.983 18.1496 79.2121 17.9107 79.401C17.6718 79.5878 17.4036 79.73 17.1061 79.8278C16.8107 79.9255 16.4948 79.9744 16.1582 79.9744C15.5892 79.9744 15.0832 79.8354 14.6402 79.5574C14.1972 79.2794 13.8486 78.8842 13.5945 78.3717C13.3404 77.8592 13.2134 77.2511 13.2134 76.5475C13.2134 75.8439 13.3404 75.2358 13.5945 74.7233C13.8486 74.2108 14.1972 73.8155 14.6402 73.5376C15.0832 73.2596 15.5892 73.1206 16.1582 73.1206C16.4948 73.1206 16.8107 73.1695 17.1061 73.2672C17.4036 73.3649 17.6718 73.5083 17.9107 73.6972C18.1496 73.884 18.3494 74.112 18.5101 74.3813C18.6708 74.6484 18.7815 74.9535 18.8423 75.2966Z" fill="#F47B1E"/>
<path d="M20.1478 79.8831V73.2118H20.9556V76.1826H24.5128V73.2118H25.3206V79.8831H24.5128V76.8993H20.9556V79.8831H20.1478Z" fill="#F47B1E"/>
<path d="M32.5669 76.5475C32.5669 77.2511 32.4399 77.8592 32.1858 78.3717C31.9317 78.8842 31.5831 79.2794 31.1401 79.5574C30.6971 79.8354 30.1911 79.9744 29.6221 79.9744C29.0532 79.9744 28.5472 79.8354 28.1041 79.5574C27.6611 79.2794 27.3126 78.8842 27.0585 78.3717C26.8044 77.8592 26.6774 77.2511 26.6774 76.5475C26.6774 75.8439 26.8044 75.2358 27.0585 74.7233C27.3126 74.2108 27.6611 73.8155 28.1041 73.5376C28.5472 73.2596 29.0532 73.1206 29.6221 73.1206C30.1911 73.1206 30.6971 73.2596 31.1401 73.5376C31.5831 73.8155 31.9317 74.2108 32.1858 74.7233C32.4399 75.2358 32.5669 75.8439 32.5669 76.5475ZM31.7851 76.5475C31.7851 75.9698 31.6885 75.4823 31.4952 75.0849C31.3041 74.6875 31.0446 74.3867 30.7166 74.1826C30.3909 73.9784 30.0261 73.8764 29.6221 73.8764C29.2182 73.8764 28.8523 73.9784 28.5244 74.1826C28.1986 74.3867 27.9391 74.6875 27.7458 75.0849C27.5547 75.4823 27.4592 75.9698 27.4592 76.5475C27.4592 77.1251 27.5547 77.6127 27.7458 78.0101C27.9391 78.4075 28.1986 78.7083 28.5244 78.9124C28.8523 79.1166 29.2182 79.2186 29.6221 79.2186C30.0261 79.2186 30.3909 79.1166 30.7166 78.9124C31.0446 78.7083 31.3041 78.4075 31.4952 78.0101C31.6885 77.6127 31.7851 77.1251 31.7851 76.5475Z" fill="#F47B1E"/>
<path d="M39.5542 76.5475C39.5542 77.2511 39.4271 77.8592 39.1731 78.3717C38.919 78.8842 38.5704 79.2794 38.1274 79.5574C37.6844 79.8354 37.1784 79.9744 36.6094 79.9744C36.0404 79.9744 35.5345 79.8354 35.0914 79.5574C34.6484 79.2794 34.2999 78.8842 34.0458 78.3717C33.7917 77.8592 33.6647 77.2511 33.6647 76.5475C33.6647 75.8439 33.7917 75.2358 34.0458 74.7233C34.2999 74.2108 34.6484 73.8155 35.0914 73.5376C35.5345 73.2596 36.0404 73.1206 36.6094 73.1206C37.1784 73.1206 37.6844 73.2596 38.1274 73.5376C38.5704 73.8155 38.919 74.2108 39.1731 74.7233C39.4271 75.2358 39.5542 75.8439 39.5542 76.5475ZM38.7724 76.5475C38.7724 75.9698 38.6758 75.4823 38.4825 75.0849C38.2914 74.6875 38.0319 74.3867 37.7039 74.1826C37.3782 73.9784 37.0133 73.8764 36.6094 73.8764C36.2055 73.8764 35.8396 73.9784 35.5117 74.1826C35.1859 74.3867 34.9264 74.6875 34.7331 75.0849C34.542 75.4823 34.4465 75.9698 34.4465 76.5475C34.4465 77.1251 34.542 77.6127 34.7331 78.0101C34.9264 78.4075 35.1859 78.7083 35.5117 78.9124C35.8396 79.1166 36.2055 79.2186 36.6094 79.2186C37.0133 79.2186 37.3782 79.1166 37.7039 78.9124C38.0319 78.7083 38.2914 78.4075 38.4825 78.0101C38.6758 77.6127 38.7724 77.1251 38.7724 76.5475Z" fill="#F47B1E"/>
<path d="M40.9126 79.8831V73.2118H41.7204V79.1665H44.8215V79.8831H40.9126Z" fill="#F47B1E"/>
</svg>
